<svg width="226" height="255" viewBox="0 0 226 255" fill="none" xmlns="http://www.w3.org/2000/svg">
<rect x="15.5" y="0.5" width="169" height="179" rx="39.5" fill="white" stroke="#E0E0E0"/>
<circle opacity="0.2" cx="99.8003" cy="90.4113" r="50.8003" stroke="#BDBDBD" stroke-width="20"/>
<g filter="url(#filter0_d)">
<path d="M63.7976 126.251C69.9252 132.406 77.5287 136.888 85.8819 139.268C94.235 141.647 103.059 141.846 111.51 139.843C119.962 137.841 127.759 133.706 134.157 127.832C140.555 121.958 145.34 114.541 148.055 106.291C150.77 98.0408 151.324 89.2322 149.665 80.7067C148.006 72.1811 144.188 64.2234 138.577 57.5935" stroke="url(#paint0_linear)" stroke-width="20"/>
</g>
<path d="M80.3768 82.2911C77.242 82.2911 74.9471 84.3322 74.9471 87.213V87.2325C74.9471 89.879 76.8123 91.8029 79.5369 91.8029C81.4412 91.8029 82.8279 90.8458 83.3846 89.5372H83.4334C83.4432 89.6935 83.4334 89.8888 83.4236 90.0743C83.3162 92.5646 82.4178 94.5275 80.3572 94.5275C79.2049 94.5275 78.4236 93.9513 78.0721 93.1017L78.0428 93.0236H75.1326L75.1522 93.1115C75.5721 95.2892 77.6229 96.8712 80.3475 96.8712C84.0194 96.8712 86.2557 94.088 86.2557 89.4689V89.4493C86.2557 84.674 83.7752 82.2911 80.3768 82.2911ZM80.3865 89.6251C78.9217 89.6251 77.8182 88.5997 77.8182 87.1349V87.1154C77.8182 85.7189 78.9803 84.6349 80.4158 84.6349C81.8611 84.6349 82.994 85.7286 82.994 87.1544V87.1642C82.994 88.5997 81.8611 89.6251 80.3865 89.6251ZM93.4236 82.2911C90.2889 82.2911 87.994 84.3322 87.994 87.213V87.2325C87.994 89.879 89.8592 91.8029 92.5838 91.8029C94.4881 91.8029 95.8748 90.8458 96.4315 89.5372H96.4803C96.4901 89.6935 96.4803 89.8888 96.4705 90.0743C96.3631 92.5646 95.4647 94.5275 93.4041 94.5275C92.2518 94.5275 91.4705 93.9513 91.119 93.1017L91.0897 93.0236H88.1795L88.199 93.1115C88.619 95.2892 90.6697 96.8712 93.3944 96.8712C97.0662 96.8712 99.3026 94.088 99.3026 89.4689V89.4493C99.3026 84.674 96.8221 82.2911 93.4236 82.2911ZM93.4334 89.6251C91.9686 89.6251 90.8651 88.5997 90.8651 87.1349V87.1154C90.8651 85.7189 92.0272 84.6349 93.4627 84.6349C94.908 84.6349 96.0408 85.7286 96.0408 87.1544V87.1642C96.0408 88.5997 94.908 89.6251 93.4334 89.6251ZM102.027 96.7931C102.906 96.7931 103.609 96.09 103.609 95.2111C103.609 94.3224 102.906 93.629 102.027 93.629C101.138 93.629 100.445 94.3224 100.445 95.2111C100.445 96.09 101.138 96.7931 102.027 96.7931ZM105.435 96.6271H115.68V94.2833H109.293V94.1661L112.242 91.4708C114.674 89.2345 115.484 88.1212 115.484 86.4122V86.3927C115.484 83.9904 113.433 82.2911 110.455 82.2911C107.476 82.2911 105.269 84.1564 105.269 86.8126V86.8907H108.004L108.013 86.8029C108.053 85.5333 109.029 84.5861 110.474 84.5861C111.724 84.5861 112.603 85.4064 112.613 86.5587V86.5782C112.613 87.5548 112.232 88.2482 110.416 89.9474L105.435 94.6056V96.6271Z" fill="black"/>
<path opacity="0.2" d="M126.776 86.6223H128.218L122.428 97.3273H121L126.776 86.6223ZM118.265 89.2541C118.265 88.7892 118.366 88.3472 118.566 87.9279C118.771 87.5086 119.081 87.1874 119.496 86.9641C119.915 86.7362 120.41 86.6223 120.979 86.6223C121.818 86.6223 122.479 86.8615 122.962 87.34C123.445 87.8185 123.686 88.4566 123.686 89.2541C123.686 90.0562 123.445 90.6965 122.962 91.175C122.479 91.6535 121.818 91.8928 120.979 91.8928C120.41 91.8928 119.915 91.7811 119.496 91.5578C119.081 91.3299 118.771 91.0064 118.566 90.5871C118.366 90.1678 118.265 89.7235 118.265 89.2541ZM120.186 89.2678C120.186 89.8329 120.277 90.243 120.46 90.4982C120.578 90.6668 120.751 90.7512 120.979 90.7512C121.207 90.7512 121.378 90.6668 121.492 90.4982C121.674 90.243 121.765 89.8329 121.765 89.2678C121.765 88.7072 121.674 88.2971 121.492 88.0373C121.378 87.8732 121.207 87.7912 120.979 87.7912C120.751 87.7912 120.578 87.8732 120.46 88.0373C120.277 88.2925 120.186 88.7027 120.186 89.2678ZM125.491 94.675C125.491 94.2056 125.591 93.7635 125.792 93.3488C125.992 92.9295 126.302 92.606 126.721 92.3781C127.141 92.1502 127.633 92.0363 128.198 92.0363C129.041 92.0363 129.704 92.2779 130.187 92.7609C130.67 93.2394 130.912 93.8775 130.912 94.675C130.912 95.4725 130.67 96.1128 130.187 96.5959C129.704 97.0744 129.041 97.3137 128.198 97.3137C127.633 97.3137 127.141 97.1997 126.721 96.9719C126.302 96.744 125.992 96.4227 125.792 96.008C125.591 95.5887 125.491 95.1444 125.491 94.675ZM127.412 94.6887C127.412 95.2538 127.503 95.6639 127.685 95.9191C127.799 96.0832 127.97 96.1652 128.198 96.1652C128.426 96.1652 128.599 96.0832 128.718 95.9191C128.9 95.6639 128.991 95.2538 128.991 94.6887C128.991 94.1236 128.9 93.7111 128.718 93.4514C128.599 93.2873 128.426 93.2053 128.198 93.2053C127.97 93.2053 127.799 93.2896 127.685 93.4582C127.503 93.7134 127.412 94.1236 127.412 94.6887Z" fill="black"/>
<g filter="url(#filter1_d)">
<path d="M150.601 90.4113C150.601 83.7401 149.287 77.1342 146.734 70.9708C144.181 64.8074 140.439 59.2073 135.722 54.49C131.004 49.7728 125.404 46.0308 119.241 43.4779C113.077 40.9249 106.472 39.6109 99.8003 39.6109" stroke="url(#paint1_linear)" stroke-width="38"/>
</g>
<rect x="49.5127" y="53.8699" width="44.1963" height="20.8281" rx="10" fill="#1D2125"/>
<rect x="84.3744" y="70.8245" width="4.93917" height="4.93917" transform="rotate(45 84.3744 70.8245)" fill="#1D2125"/>
<path d="M62.9909 58.2243V64.4123C62.9909 65.7143 63.3549 66.7083 64.0829 67.4083C64.7829 68.0803 65.7909 68.4163 67.1209 68.4163C68.4369 68.4163 69.4449 68.0663 70.1589 67.3943C70.8729 66.7083 71.2369 65.7143 71.2369 64.4123V58.2243H69.7109V64.4403C69.7109 65.3363 69.5009 65.9943 69.0949 66.4283C68.6749 66.8623 68.0169 67.0863 67.1209 67.0863C66.2109 67.0863 65.5529 66.8623 65.1329 66.4283C64.7129 65.9943 64.5169 65.3363 64.5169 64.4403V58.2243H62.9909ZM76.6761 60.7863C75.6961 60.7863 74.9401 61.1363 74.4361 61.8503V60.9823H73.0501V70.9923H74.5341V67.1563C75.1221 67.9963 75.8501 68.4163 76.7461 68.4163C77.7821 68.4163 78.6081 68.0383 79.1961 67.2823C79.7421 66.5823 80.0221 65.7003 80.0221 64.6363C80.0221 63.5163 79.7421 62.6203 79.1821 61.9203C78.5661 61.1643 77.7401 60.7863 76.6761 60.7863ZM76.4521 61.9903C77.1801 61.9903 77.7121 62.2423 78.0621 62.7743C78.3421 63.2223 78.4961 63.8383 78.4961 64.6363C78.4961 65.4343 78.3281 66.0503 78.0201 66.4983C77.6701 66.9743 77.1381 67.2123 76.4101 67.2123C75.8501 67.2123 75.4021 66.9883 75.0661 66.5543C74.6741 66.0783 74.4921 65.4483 74.4921 64.6783V64.5523C74.4921 63.8103 74.6461 63.2083 74.9541 62.7603C75.3041 62.2423 75.8081 61.9903 76.4521 61.9903Z" fill="white"/>
<defs>
<filter id="filter0_d" x="0.990528" y="43.1734" width="215.33" height="211.518" filterUnits="userSpaceOnUse" color-interpolation-filters="sRGB">
<feFlood flood-opacity="0" result="BackgroundImageFix"/>
<feColorMatrix in="SourceAlpha" type="matrix" values="0 0 0 0 0 0 0 0 0 0 0 0 0 0 0 0 0 0 127 0"/>
<feOffset dy="47.76"/>
<feGaussianBlur stdDeviation="27.86"/>
<feColorMatrix type="matrix" values="0 0 0 0 1 0 0 0 0 0.653083 0 0 0 0 0.245833 0 0 0 0.25 0"/>
<feBlend mode="normal" in2="BackgroundImageFix" result="effect1_dropShadow"/>
<feBlend mode="normal" in="SourceGraphic" in2="effect1_dropShadow" result="shape"/>
</filter>
<filter id="filter1_d" x="44.0804" y="12.651" width="181.24" height="181.24" filterUnits="userSpaceOnUse" color-interpolation-filters="sRGB">
<feFlood flood-opacity="0" result="BackgroundImageFix"/>
<feColorMatrix in="SourceAlpha" type="matrix" values="0 0 0 0 0 0 0 0 0 0 0 0 0 0 0 0 0 0 127 0"/>
<feOffset dy="47.76"/>
<feGaussianBlur stdDeviation="27.86"/>
<feColorMatrix type="matrix" values="0 0 0 0 0.203125 0 0 0 0 0.585 0 0 0 0 0.9375 0 0 0 0.25 0"/>
<feBlend mode="normal" in2="BackgroundImageFix" result="effect1_dropShadow"/>
<feBlend mode="normal" in="SourceGraphic" in2="effect1_dropShadow" result="shape"/>
</filter>
<linearGradient id="paint0_linear" x1="187.939" y1="49.263" x2="46.2446" y2="12.7159" gradientUnits="userSpaceOnUse">
<stop stop-color="#FFCF71"/>
<stop offset="1" stop-color="#CA7007"/>
</linearGradient>
<linearGradient id="paint1_linear" x1="125.2" y1="121.399" x2="64.008" y2="1.25026" gradientUnits="userSpaceOnUse">
<stop stop-color="#5FB1DF"/>
<stop offset="1" stop-color="#D2EFFF"/>
</linearGradient>
</defs>
</svg>
