<svg width="282" height="82" viewBox="0 0 282 82" fill="none" xmlns="http://www.w3.org/2000/svg">
<path d="M59.914 19.6458C62.8045 19.6458 64.7452 22.1913 64.7452 24.5624C64.7452 29.3731 56.6921 33.3125 56.5452 33.3125C56.3983 33.3125 48.3452 29.3731 48.3452 24.5624C48.3452 22.1913 50.2859 19.6458 53.1764 19.6458C54.83 19.6458 55.9165 20.418 56.5452 21.1082C57.1739 20.418 58.2604 19.6458 59.914 19.6458V19.6458Z" stroke="#323232" stroke-width="2" stroke-linecap="round" stroke-linejoin="round"/>
<path d="M56.7544 43.7162C53.9801 43.7162 51.3527 43.1046 48.9918 42.0079L37.6484 44.4166L40.023 33.0528C38.9194 30.6885 38.3044 28.0474 38.3044 25.2662" stroke="#323232" stroke-width="2" stroke-linecap="round" stroke-linejoin="round"/>
<path d="M56.7342 43.6958C66.9124 43.6958 75.1671 35.4445 75.1671 25.2628C75.1671 15.0812 66.9158 6.83334 56.7342 6.83334C46.5525 6.83334 38.3013 15.0846 38.3013 25.2663" stroke="#323232" stroke-width="2" stroke-linecap="round" stroke-linejoin="round"/>
<path d="M28.2898 64.9166H36.6265" stroke="#323232" stroke-width="2" stroke-linecap="round" stroke-linejoin="round"/>
<path d="M51.2503 42.8757V67.4792C51.2503 71.7261 47.8849 75.1667 43.7337 75.1667H21.1837C17.0324 75.1667 13.667 71.7261 13.667 67.4792V21.3542C13.667 17.1072 17.0324 13.6667 21.1837 13.6667H42.4114" stroke="#323232" stroke-width="2" stroke-linecap="round" stroke-linejoin="round"/>
<path d="M150.453 33.678C150.453 34.1913 150.369 34.672 150.201 35.12C150.042 35.5773 149.813 35.974 149.515 36.31C149.216 36.646 148.852 36.9073 148.423 37.094C147.993 37.29 147.513 37.388 146.981 37.388H146.127C145.081 37.388 144.269 37.066 143.691 36.422C143.112 35.778 142.823 34.896 142.823 33.776V31.298H143.957V33.734C143.957 34.462 144.139 35.05 144.503 35.498C144.867 35.946 145.464 36.17 146.295 36.17H146.911C147.331 36.17 147.69 36.1047 147.989 35.974C148.297 35.8433 148.549 35.666 148.745 35.442C148.941 35.218 149.085 34.9567 149.179 34.658C149.272 34.3593 149.319 34.0467 149.319 33.72V29.954H150.453V33.678ZM147.121 29.688H145.749V28.484H147.121V29.688ZM154.071 34C153.819 34 153.576 33.9673 153.343 33.902C153.109 33.8273 152.904 33.706 152.727 33.538C152.559 33.37 152.423 33.1507 152.321 32.88C152.218 32.6 152.167 32.2547 152.167 31.844V25.32H153.315V31.592C153.315 31.9467 153.389 32.2313 153.539 32.446C153.697 32.6607 153.945 32.768 154.281 32.768H154.561C154.766 32.768 154.869 32.9687 154.869 33.37C154.869 33.79 154.766 34 154.561 34H154.071ZM155.586 32.768C156.314 32.768 156.678 32.4273 156.678 31.746V29.954H157.826V31.746C157.826 31.9327 157.854 32.0913 157.91 32.222C157.976 32.3527 158.06 32.46 158.162 32.544C158.265 32.6187 158.382 32.6747 158.512 32.712C158.652 32.7493 158.792 32.768 158.932 32.768H159.324C159.539 32.768 159.646 32.9687 159.646 33.37C159.646 33.79 159.539 34 159.324 34H158.89C158.554 34 158.237 33.9393 157.938 33.818C157.649 33.6967 157.406 33.4587 157.21 33.104C156.996 33.4587 156.748 33.6967 156.468 33.818C156.198 33.9393 155.904 34 155.586 34H154.564C154.443 34 154.364 33.9533 154.326 33.86C154.28 33.7573 154.256 33.608 154.256 33.412C154.256 33.188 154.28 33.0247 154.326 32.922C154.364 32.8193 154.443 32.768 154.564 32.768H155.586ZM157.588 36.8H156.216V35.596H157.588V36.8ZM160.568 32.768V31.564C160.568 31.228 160.601 30.8873 160.666 30.542C160.741 30.1967 160.862 29.8887 161.03 29.618C161.208 29.338 161.446 29.1093 161.744 28.932C162.043 28.7547 162.421 28.666 162.878 28.666C163.224 28.666 163.527 28.7267 163.788 28.848C164.059 28.96 164.283 29.114 164.46 29.31C164.647 29.506 164.782 29.7393 164.866 30.01C164.96 30.2713 165.006 30.556 165.006 30.864C165.006 31.3027 164.913 31.704 164.726 32.068C164.549 32.432 164.306 32.7493 163.998 33.02C163.69 33.2907 163.331 33.51 162.92 33.678C162.51 33.8367 162.076 33.93 161.618 33.958V34.952C161.618 35.372 161.698 35.666 161.856 35.834C162.015 36.0113 162.23 36.1233 162.5 36.17L163.76 34.532C164.096 34.112 164.386 33.7853 164.628 33.552C164.871 33.3093 165.1 33.132 165.314 33.02C165.529 32.908 165.748 32.838 165.972 32.81C166.196 32.782 166.462 32.768 166.77 32.768C166.892 32.768 166.971 32.8193 167.008 32.922C167.055 33.0153 167.078 33.1647 167.078 33.37C167.078 33.5847 167.055 33.7433 167.008 33.846C166.971 33.9487 166.892 34 166.77 34C166.509 34 166.28 34.0093 166.084 34.028C165.898 34.0467 165.706 34.1073 165.51 34.21C165.324 34.3127 165.123 34.4667 164.908 34.672C164.703 34.8867 164.456 35.1807 164.166 35.554L162.794 37.388C162.477 37.388 162.183 37.3413 161.912 37.248C161.642 37.164 161.404 37.024 161.198 36.828C161.002 36.6413 160.848 36.3987 160.736 36.1C160.624 35.8013 160.568 35.4467 160.568 35.036V34H159.322C159.201 34 159.122 33.9533 159.084 33.86C159.038 33.7573 159.014 33.608 159.014 33.412C159.014 33.188 159.038 33.0247 159.084 32.922C159.122 32.8193 159.201 32.768 159.322 32.768H160.568ZM161.618 32.81C162.02 32.7913 162.365 32.7307 162.654 32.628C162.944 32.516 163.182 32.3807 163.368 32.222C163.564 32.054 163.709 31.872 163.802 31.676C163.896 31.48 163.942 31.2793 163.942 31.074C163.942 30.7193 163.849 30.43 163.662 30.206C163.485 29.982 163.21 29.87 162.836 29.87C162.444 29.87 162.141 30.01 161.926 30.29C161.721 30.57 161.618 30.976 161.618 31.508V32.81ZM167.893 24.858L172.093 23.206L172.289 24.046L167.935 25.768L167.893 24.858ZM170.357 32.768C170.703 32.768 170.941 32.698 171.071 32.558C171.202 32.418 171.267 32.2453 171.267 32.04C171.267 31.8907 171.239 31.7367 171.183 31.578C171.137 31.41 171.006 31.2187 170.791 31.004L167.935 28.162V26.888L172.583 25.096L172.849 26.244L169.069 27.686L171.379 30.01C171.827 30.458 172.21 30.8407 172.527 31.158C172.854 31.466 173.134 31.7227 173.367 31.928C173.601 32.1333 173.801 32.292 173.969 32.404C174.147 32.516 174.305 32.6 174.445 32.656C174.585 32.712 174.725 32.7447 174.865 32.754C175.005 32.7633 175.159 32.768 175.327 32.768C175.449 32.768 175.528 32.8193 175.565 32.922C175.612 33.0153 175.635 33.1647 175.635 33.37C175.635 33.5847 175.612 33.7433 175.565 33.846C175.528 33.9487 175.449 34 175.327 34C175.057 34 174.809 33.9813 174.585 33.944C174.371 33.9067 174.156 33.832 173.941 33.72C173.727 33.608 173.493 33.4493 173.241 33.244C172.989 33.0387 172.695 32.768 172.359 32.432C172.359 32.712 172.308 32.95 172.205 33.146C172.103 33.342 171.967 33.5053 171.799 33.636C171.631 33.7573 171.435 33.8507 171.211 33.916C170.987 33.972 170.745 34 170.483 34H166.773C166.652 34 166.573 33.9533 166.535 33.86C166.489 33.7573 166.465 33.608 166.465 33.412C166.465 33.188 166.489 33.0247 166.535 32.922C166.573 32.8193 166.652 32.768 166.773 32.768H170.357ZM176.606 32.768C176.942 32.768 177.203 32.6793 177.39 32.502C177.586 32.3247 177.684 32.0727 177.684 31.746V29.954H178.832V31.802C178.832 32.5113 178.641 33.0573 178.258 33.44C177.885 33.8133 177.362 34 176.69 34H175.332C175.211 34 175.131 33.9533 175.094 33.86C175.047 33.7573 175.024 33.608 175.024 33.412C175.024 33.188 175.047 33.0247 175.094 32.922C175.131 32.8193 175.211 32.768 175.332 32.768H176.606ZM178.44 28.232H177.068V27.028H178.44V28.232ZM186.94 36.17C187.379 36.17 187.747 36.1327 188.046 36.058C188.354 35.9833 188.601 35.8807 188.788 35.75C188.975 35.6193 189.105 35.4653 189.18 35.288C189.264 35.12 189.306 34.9427 189.306 34.756C189.306 34.5507 189.25 34.3733 189.138 34.224C189.035 34.0747 188.849 34 188.578 34H186.394L186.464 32.768H191.392C191.597 32.768 191.7 32.9687 191.7 33.37C191.7 33.79 191.597 34 191.392 34H190.09C190.211 34.1027 190.291 34.2287 190.328 34.378C190.375 34.5273 190.398 34.7 190.398 34.896C190.398 35.148 190.342 35.4187 190.23 35.708C190.118 35.9973 189.931 36.2633 189.67 36.506C189.418 36.758 189.082 36.968 188.662 37.136C188.242 37.304 187.719 37.388 187.094 37.388H185.652C184.607 37.388 183.795 37.066 183.216 36.422C182.637 35.778 182.348 34.896 182.348 33.776V31.298H183.482V33.734C183.482 34.462 183.664 35.05 184.028 35.498C184.392 35.946 184.989 36.17 185.82 36.17H186.94ZM191.746 32.768C192.465 32.768 192.824 32.4273 192.824 31.746V25.32H193.972V31.746C193.972 31.9327 194 32.0913 194.056 32.222C194.122 32.3527 194.206 32.46 194.308 32.544C194.411 32.6187 194.528 32.6747 194.658 32.712C194.798 32.7493 194.938 32.768 195.078 32.768H195.288C195.41 32.768 195.489 32.8193 195.526 32.922C195.573 33.0153 195.596 33.1647 195.596 33.37C195.596 33.5847 195.573 33.7433 195.526 33.846C195.489 33.9487 195.41 34 195.288 34H195.036C194.7 34 194.383 33.9393 194.084 33.818C193.795 33.6967 193.552 33.4587 193.356 33.104C193.142 33.4587 192.894 33.6967 192.614 33.818C192.334 33.9393 192.045 34 191.746 34H191.396C191.275 34 191.196 33.9533 191.158 33.86C191.112 33.7573 191.088 33.608 191.088 33.412C191.088 33.188 191.112 33.0247 191.158 32.922C191.196 32.8193 191.275 32.768 191.396 32.768H191.746ZM196.567 32.768C196.903 32.768 197.164 32.6793 197.351 32.502C197.547 32.3247 197.645 32.0727 197.645 31.746V29.954H198.793V31.802C198.793 32.5113 198.602 33.0573 198.219 33.44C197.846 33.8133 197.323 34 196.651 34H195.293C195.172 34 195.092 33.9533 195.055 33.86C195.008 33.7573 194.985 33.608 194.985 33.412C194.985 33.188 195.008 33.0247 195.055 32.922C195.092 32.8193 195.172 32.768 195.293 32.768H196.567ZM198.499 36.772H197.267V35.596H198.499V36.772ZM196.595 36.772H195.349V35.596H196.595V36.772ZM202.401 34C202.149 34 201.906 33.9673 201.673 33.902C201.439 33.8273 201.234 33.706 201.057 33.538C200.889 33.37 200.753 33.1507 200.651 32.88C200.548 32.6 200.497 32.2547 200.497 31.844V25.32H201.645V31.592C201.645 31.9467 201.719 32.2313 201.869 32.446C202.027 32.6607 202.275 32.768 202.611 32.768H202.891C203.096 32.768 203.199 32.9687 203.199 33.37C203.199 33.79 203.096 34 202.891 34H202.401ZM204.169 32.768C204.505 32.768 204.766 32.6793 204.953 32.502C205.149 32.3247 205.247 32.0727 205.247 31.746V29.954H206.395V31.802C206.395 32.5113 206.203 33.0573 205.821 33.44C205.447 33.8133 204.925 34 204.253 34H202.895C202.773 34 202.694 33.9533 202.657 33.86C202.61 33.7573 202.587 33.608 202.587 33.412C202.587 33.188 202.61 33.0247 202.657 32.922C202.694 32.8193 202.773 32.768 202.895 32.768H204.169ZM204.813 36.8H203.441V35.596H204.813V36.8ZM209.19 36.17C209.573 36.17 209.909 36.1093 210.198 35.988C210.487 35.876 210.725 35.722 210.912 35.526C211.108 35.33 211.257 35.1013 211.36 34.84C211.463 34.5787 211.523 34.2987 211.542 34H210.352C209.876 34 209.484 33.9487 209.176 33.846C208.868 33.7433 208.625 33.594 208.448 33.398C208.271 33.202 208.145 32.964 208.07 32.684C208.005 32.3947 207.972 32.0727 207.972 31.718C207.972 31.3633 208.023 31.0273 208.126 30.71C208.229 30.3833 208.378 30.0987 208.574 29.856C208.77 29.6133 209.013 29.422 209.302 29.282C209.601 29.1327 209.946 29.058 210.338 29.058C210.646 29.058 210.94 29.1093 211.22 29.212C211.509 29.3147 211.761 29.478 211.976 29.702C212.191 29.9167 212.359 30.2013 212.48 30.556C212.611 30.9107 212.676 31.34 212.676 31.844V32.768H213.922C214.034 32.768 214.109 32.8193 214.146 32.922C214.193 33.0153 214.216 33.1647 214.216 33.37C214.216 33.5847 214.193 33.7433 214.146 33.846C214.109 33.9487 214.034 34 213.922 34H212.648C212.629 34.4573 212.536 34.8913 212.368 35.302C212.209 35.7127 211.985 36.072 211.696 36.38C211.407 36.688 211.057 36.9307 210.646 37.108C210.235 37.2947 209.778 37.388 209.274 37.388H207.818L207.734 36.17H209.19ZM209.064 31.648C209.064 32.0493 209.157 32.3387 209.344 32.516C209.54 32.684 209.913 32.768 210.464 32.768H211.57V31.9C211.57 31.312 211.453 30.892 211.22 30.64C210.996 30.3787 210.679 30.248 210.268 30.248C209.885 30.248 209.587 30.374 209.372 30.626C209.167 30.8687 209.064 31.2093 209.064 31.648ZM214.11 32.768C214.819 32.768 215.174 32.4693 215.174 31.872V31.438C215.174 30.6447 215.379 30.0193 215.79 29.562C216.21 29.0953 216.788 28.862 217.526 28.862C217.908 28.862 218.244 28.9273 218.534 29.058C218.823 29.1793 219.066 29.352 219.262 29.576C219.458 29.8 219.602 30.0707 219.696 30.388C219.798 30.696 219.85 31.0367 219.85 31.41C219.85 32.2313 219.64 32.8707 219.22 33.328C218.8 33.776 218.221 34 217.484 34C217.11 34 216.751 33.93 216.406 33.79C216.07 33.6407 215.808 33.3933 215.622 33.048C215.538 33.244 215.435 33.4073 215.314 33.538C215.192 33.6593 215.066 33.7573 214.936 33.832C214.805 33.8973 214.665 33.944 214.516 33.972C214.376 33.9907 214.24 34 214.11 34H213.928C213.806 34 213.727 33.9533 213.69 33.86C213.643 33.7573 213.62 33.608 213.62 33.412C213.62 33.188 213.643 33.0247 213.69 32.922C213.727 32.8193 213.806 32.768 213.928 32.768H214.11ZM218.73 31.494C218.73 31.0833 218.636 30.7473 218.45 30.486C218.272 30.2247 217.955 30.094 217.498 30.094C217.078 30.094 216.765 30.22 216.56 30.472C216.364 30.724 216.266 31.0787 216.266 31.536C216.266 31.9467 216.378 32.2547 216.602 32.46C216.835 32.6653 217.129 32.768 217.484 32.768C217.904 32.768 218.216 32.6607 218.422 32.446C218.627 32.222 218.73 31.9047 218.73 31.494ZM232.072 34C231.867 34 231.661 33.9627 231.456 33.888C231.251 33.8133 231.078 33.678 230.938 33.482V33.734C230.938 34.238 230.859 34.7093 230.7 35.148C230.541 35.596 230.313 35.9833 230.014 36.31C229.725 36.646 229.365 36.9073 228.936 37.094C228.516 37.29 228.04 37.388 227.508 37.388H226.654C225.609 37.388 224.797 37.066 224.218 36.422C223.639 35.778 223.35 34.896 223.35 33.776V31.298H224.484V33.734C224.484 34.462 224.666 35.05 225.03 35.498C225.394 35.946 225.991 36.17 226.822 36.17H227.438C227.858 36.17 228.217 36.1047 228.516 35.974C228.824 35.8433 229.076 35.666 229.272 35.442C229.468 35.218 229.613 34.9567 229.706 34.658C229.799 34.3593 229.846 34.0467 229.846 33.72V29.954H230.98V31.788C230.98 32.096 231.083 32.3387 231.288 32.516C231.493 32.684 231.755 32.768 232.072 32.768H232.226C232.441 32.768 232.548 32.9687 232.548 33.37C232.548 33.79 232.441 34 232.226 34H232.072ZM227.648 29.688H226.276V28.484H227.648V29.688ZM232.781 32.768C233.518 32.768 233.887 32.4273 233.887 31.746V29.954H235.035V31.746C235.035 31.9327 235.067 32.0913 235.133 32.222C235.198 32.3527 235.282 32.46 235.385 32.544C235.487 32.6187 235.604 32.6747 235.735 32.712C235.875 32.7493 236.015 32.768 236.155 32.768C236.957 32.768 237.359 32.4273 237.359 31.746V29.954H238.507V31.746C238.507 32.1287 238.605 32.3947 238.801 32.544C239.006 32.6933 239.244 32.768 239.515 32.768C239.841 32.768 240.093 32.6793 240.271 32.502C240.457 32.3247 240.551 32.0727 240.551 31.746V29.954H241.699V31.746C241.699 31.9327 241.727 32.0913 241.783 32.222C241.848 32.3527 241.932 32.46 242.035 32.544C242.137 32.6187 242.254 32.6747 242.385 32.712C242.515 32.7493 242.646 32.768 242.777 32.768H243.071C243.276 32.768 243.379 32.9687 243.379 33.37C243.379 33.79 243.276 34 243.071 34H242.777C242.431 34 242.109 33.9393 241.811 33.818C241.521 33.6967 241.279 33.4587 241.083 33.104C240.868 33.4587 240.616 33.6967 240.327 33.818C240.047 33.9393 239.776 34 239.515 34C239.188 34 238.885 33.9393 238.605 33.818C238.325 33.6967 238.087 33.4587 237.891 33.104C237.676 33.4587 237.415 33.6967 237.107 33.818C236.799 33.9393 236.481 34 236.155 34C235.8 34 235.469 33.9393 235.161 33.818C234.862 33.6967 234.615 33.4587 234.419 33.104C234.204 33.4587 233.952 33.6967 233.663 33.818C233.373 33.9393 233.065 34 232.739 34H232.221C232.099 34 232.02 33.9533 231.983 33.86C231.936 33.7573 231.913 33.608 231.913 33.412C231.913 33.188 231.936 33.0247 231.983 32.922C232.02 32.8193 232.099 32.768 232.221 32.768H232.781ZM238.577 26.426H237.289V25.264H238.577V26.426ZM239.501 28.232H238.227V27.056H239.501V28.232ZM237.625 28.232H236.351V27.056H237.625V28.232ZM244.098 32.768C244.826 32.768 245.19 32.4273 245.19 31.746V29.954H246.338V31.746C246.338 31.9327 246.366 32.0913 246.422 32.222C246.488 32.3527 246.572 32.46 246.674 32.544C246.777 32.6187 246.894 32.6747 247.024 32.712C247.164 32.7493 247.304 32.768 247.444 32.768H247.836C248.051 32.768 248.158 32.9687 248.158 33.37C248.158 33.79 248.051 34 247.836 34H247.402C247.066 34 246.749 33.9393 246.45 33.818C246.161 33.6967 245.918 33.4587 245.722 33.104C245.508 33.4587 245.26 33.6967 244.98 33.818C244.71 33.9393 244.416 34 244.098 34H243.076C242.955 34 242.876 33.9533 242.838 33.86C242.792 33.7573 242.768 33.608 242.768 33.412C242.768 33.188 242.792 33.0247 242.838 32.922C242.876 32.8193 242.955 32.768 243.076 32.768H244.098ZM246.996 36.772H245.764V35.596H246.996V36.772ZM245.092 36.772H243.846V35.596H245.092V36.772ZM251.418 32.768C251.763 32.768 252.001 32.698 252.132 32.558C252.263 32.418 252.328 32.2453 252.328 32.04C252.328 31.8907 252.3 31.7367 252.244 31.578C252.197 31.41 252.067 31.2187 251.852 31.004L248.996 28.162V26.888L253.644 25.096L253.91 26.244L250.13 27.686L252.44 30.01C252.888 30.458 253.271 30.8407 253.588 31.158C253.915 31.466 254.195 31.7227 254.428 31.928C254.661 32.1333 254.862 32.292 255.03 32.404C255.207 32.516 255.366 32.6 255.506 32.656C255.646 32.712 255.786 32.7447 255.926 32.754C256.066 32.7633 256.22 32.768 256.388 32.768C256.509 32.768 256.589 32.8193 256.626 32.922C256.673 33.0153 256.696 33.1647 256.696 33.37C256.696 33.5847 256.673 33.7433 256.626 33.846C256.589 33.9487 256.509 34 256.388 34C256.117 34 255.87 33.9813 255.646 33.944C255.431 33.9067 255.217 33.832 255.002 33.72C254.787 33.608 254.554 33.4493 254.302 33.244C254.05 33.0387 253.756 32.768 253.42 32.432C253.42 32.712 253.369 32.95 253.266 33.146C253.163 33.342 253.028 33.5053 252.86 33.636C252.692 33.7573 252.496 33.8507 252.272 33.916C252.048 33.972 251.805 34 251.544 34H247.834C247.713 34 247.633 33.9533 247.596 33.86C247.549 33.7573 247.526 33.608 247.526 33.412C247.526 33.188 247.549 33.0247 247.596 32.922C247.633 32.8193 247.713 32.768 247.834 32.768H251.418ZM257.415 32.768C258.143 32.768 258.507 32.4273 258.507 31.746V29.954H259.655V31.746C259.655 31.9327 259.683 32.0913 259.739 32.222C259.804 32.3527 259.888 32.46 259.991 32.544C260.093 32.6187 260.21 32.6747 260.341 32.712C260.481 32.7493 260.621 32.768 260.761 32.768H261.153C261.367 32.768 261.475 32.9687 261.475 33.37C261.475 33.79 261.367 34 261.153 34H260.719C260.383 34 260.065 33.9393 259.767 33.818C259.477 33.6967 259.235 33.4587 259.039 33.104C258.824 33.4587 258.577 33.6967 258.297 33.818C258.026 33.9393 257.732 34 257.415 34H256.393C256.271 34 256.192 33.9533 256.155 33.86C256.108 33.7573 256.085 33.608 256.085 33.412C256.085 33.188 256.108 33.0247 256.155 32.922C256.192 32.8193 256.271 32.768 256.393 32.768H257.415ZM260.313 36.772H259.081V35.596H260.313V36.772ZM258.409 36.772H257.163V35.596H258.409V36.772ZM261.5 32.768C262.219 32.768 262.578 32.4273 262.578 31.746V25.32H263.726V31.746C263.726 31.9327 263.754 32.0913 263.81 32.222C263.876 32.3527 263.96 32.46 264.062 32.544C264.165 32.6187 264.282 32.6747 264.412 32.712C264.552 32.7493 264.692 32.768 264.832 32.768H265.042C265.164 32.768 265.243 32.8193 265.28 32.922C265.327 33.0153 265.35 33.1647 265.35 33.37C265.35 33.5847 265.327 33.7433 265.28 33.846C265.243 33.9487 265.164 34 265.042 34H264.79C264.454 34 264.137 33.9393 263.838 33.818C263.549 33.6967 263.306 33.4587 263.11 33.104C262.896 33.4587 262.648 33.6967 262.368 33.818C262.088 33.9393 261.799 34 261.5 34H261.15C261.029 34 260.95 33.9533 260.912 33.86C260.866 33.7573 260.842 33.608 260.842 33.412C260.842 33.188 260.866 33.0247 260.912 32.922C260.95 32.8193 261.029 32.768 261.15 32.768H261.5ZM266.321 32.768C266.657 32.768 266.918 32.6793 267.105 32.502C267.301 32.3247 267.399 32.0727 267.399 31.746V29.954H268.547V31.802C268.547 32.5113 268.356 33.0573 267.973 33.44C267.6 33.8133 267.077 34 266.405 34H265.047C264.926 34 264.846 33.9533 264.809 33.86C264.762 33.7573 264.739 33.608 264.739 33.412C264.739 33.188 264.762 33.0247 264.809 32.922C264.846 32.8193 264.926 32.768 265.047 32.768H266.321ZM267.371 38.578H266.083V37.402H267.371V38.578ZM268.295 36.772H267.021V35.596H268.295V36.772ZM266.419 36.772H265.145V35.596H266.419V36.772ZM270.251 25.32H271.399V34H270.251V25.32ZM277.24 34C276.988 34 276.746 33.9673 276.512 33.902C276.279 33.8273 276.074 33.706 275.896 33.538C275.728 33.37 275.593 33.1507 275.49 32.88C275.388 32.6 275.336 32.2547 275.336 31.844V25.32H276.484V31.592C276.484 31.9467 276.559 32.2313 276.708 32.446C276.867 32.6607 277.114 32.768 277.45 32.768H277.73C277.936 32.768 278.038 32.9687 278.038 33.37C278.038 33.79 277.936 34 277.73 34H277.24ZM279.008 32.768C279.344 32.768 279.606 32.6793 279.792 32.502C279.988 32.3247 280.086 32.0727 280.086 31.746V29.954H281.234V31.802C281.234 32.5113 281.043 33.0573 280.66 33.44C280.287 33.8133 279.764 34 279.092 34H277.734C277.613 34 277.534 33.9533 277.496 33.86C277.45 33.7573 277.426 33.608 277.426 33.412C277.426 33.188 277.45 33.0247 277.496 32.922C277.534 32.8193 277.613 32.768 277.734 32.768H279.008ZM279.652 36.8H278.28V35.596H279.652V36.8ZM113.84 54.768C114.559 54.768 114.918 54.4273 114.918 53.746V51.954H116.066V53.746C116.066 53.9327 116.099 54.0913 116.164 54.222C116.23 54.3527 116.314 54.46 116.416 54.544C116.519 54.6187 116.636 54.6747 116.766 54.712C116.906 54.7493 117.046 54.768 117.186 54.768H117.438C117.56 54.768 117.639 54.8193 117.676 54.922C117.723 55.0153 117.746 55.1647 117.746 55.37C117.746 55.5847 117.723 55.7433 117.676 55.846C117.639 55.9487 117.56 56 117.438 56H117.158C116.813 56 116.491 55.9393 116.192 55.818C115.903 55.6967 115.66 55.4587 115.464 55.104C115.25 55.4587 115.002 55.6967 114.722 55.818C114.442 55.9393 114.148 56 113.84 56H108.982C108.6 56 108.268 55.944 107.988 55.832C107.718 55.7107 107.494 55.552 107.316 55.356C107.148 55.16 107.022 54.9313 106.938 54.67C106.864 54.4087 106.826 54.1333 106.826 53.844V51.912H107.974V53.564C107.974 53.928 108.063 54.222 108.24 54.446C108.418 54.6607 108.754 54.768 109.248 54.768H113.84ZM113.014 50.764H111.74V49.588H113.014V50.764ZM111.138 50.764H109.864V49.588H111.138V50.764ZM117.992 54.768C118.729 54.768 119.098 54.4273 119.098 53.746V51.954H120.246V53.746C120.246 53.9327 120.278 54.0913 120.344 54.222C120.409 54.3527 120.493 54.46 120.596 54.544C120.698 54.6187 120.815 54.6747 120.946 54.712C121.086 54.7493 121.226 54.768 121.366 54.768C122.168 54.768 122.57 54.4273 122.57 53.746V51.954H123.718V53.746C123.718 54.1287 123.816 54.3947 124.012 54.544C124.217 54.6933 124.455 54.768 124.726 54.768C125.052 54.768 125.304 54.6793 125.482 54.502C125.668 54.3247 125.762 54.0727 125.762 53.746V51.954H126.91V53.746C126.91 53.9327 126.938 54.0913 126.994 54.222C127.059 54.3527 127.143 54.46 127.246 54.544C127.348 54.6187 127.465 54.6747 127.596 54.712C127.726 54.7493 127.857 54.768 127.988 54.768H128.282C128.487 54.768 128.59 54.9687 128.59 55.37C128.59 55.79 128.487 56 128.282 56H127.988C127.642 56 127.32 55.9393 127.022 55.818C126.732 55.6967 126.49 55.4587 126.294 55.104C126.079 55.4587 125.827 55.6967 125.538 55.818C125.258 55.9393 124.987 56 124.726 56C124.399 56 124.096 55.9393 123.816 55.818C123.536 55.6967 123.298 55.4587 123.102 55.104C122.887 55.4587 122.626 55.6967 122.318 55.818C122.01 55.9393 121.692 56 121.366 56C121.011 56 120.68 55.9393 120.372 55.818C120.073 55.6967 119.826 55.4587 119.63 55.104C119.415 55.4587 119.163 55.6967 118.874 55.818C118.584 55.9393 118.276 56 117.95 56H117.432C117.31 56 117.231 55.9533 117.194 55.86C117.147 55.7573 117.124 55.608 117.124 55.412C117.124 55.188 117.147 55.0247 117.194 54.922C117.231 54.8193 117.31 54.768 117.432 54.768H117.992ZM131.829 51.646C131.437 51.646 131.12 51.7767 130.877 52.038C130.644 52.29 130.527 52.6027 130.527 52.976C130.527 53.172 130.564 53.354 130.639 53.522C130.723 53.69 130.83 53.844 130.961 53.984C131.101 54.1147 131.25 54.236 131.409 54.348C131.577 54.4507 131.745 54.544 131.913 54.628C132.053 54.544 132.193 54.4507 132.333 54.348C132.482 54.236 132.613 54.1147 132.725 53.984C132.846 53.8533 132.944 53.7087 133.019 53.55C133.094 53.382 133.131 53.2 133.131 53.004C133.131 52.6027 133.01 52.276 132.767 52.024C132.534 51.772 132.221 51.646 131.829 51.646ZM128.287 56C128.166 56 128.086 55.9533 128.049 55.86C128.002 55.7573 127.979 55.608 127.979 55.412C127.979 55.188 128.002 55.0247 128.049 54.922C128.086 54.8193 128.166 54.768 128.287 54.768H130.653C130.289 54.516 130 54.2313 129.785 53.914C129.57 53.5873 129.463 53.2187 129.463 52.808C129.463 52.5 129.519 52.206 129.631 51.926C129.743 51.6367 129.902 51.3847 130.107 51.17C130.322 50.9553 130.583 50.7827 130.891 50.652C131.199 50.5213 131.544 50.456 131.927 50.456C132.31 50.456 132.641 50.5213 132.921 50.652C133.21 50.7827 133.448 50.9553 133.635 51.17C133.822 51.3847 133.962 51.6273 134.055 51.898C134.148 52.1687 134.195 52.444 134.195 52.724C134.195 53.144 134.102 53.522 133.915 53.858C133.738 54.1847 133.467 54.488 133.103 54.768H135.343C135.642 54.768 135.87 54.7027 136.029 54.572C136.188 54.432 136.267 54.2547 136.267 54.04C136.267 53.816 136.155 53.564 135.931 53.284L133.481 50.386L134.335 49.588L136.813 52.542C137.074 52.8593 137.256 53.1533 137.359 53.424C137.462 53.6947 137.513 53.9607 137.513 54.222C137.513 54.474 137.466 54.7073 137.373 54.922C137.28 55.1367 137.144 55.3233 136.967 55.482C136.799 55.6407 136.584 55.7667 136.323 55.86C136.062 55.9533 135.763 56 135.427 56H133.887C133.458 56 133.075 55.986 132.739 55.958C132.412 55.93 132.151 55.8647 131.955 55.762C131.824 55.818 131.661 55.8647 131.465 55.902C131.278 55.93 131.082 55.9533 130.877 55.972C130.681 55.9813 130.485 55.9907 130.289 56C130.102 56 129.944 56 129.813 56H128.287ZM152.052 53.746C152.052 54.1287 152.154 54.3947 152.36 54.544C152.565 54.6933 152.798 54.768 153.06 54.768C153.386 54.768 153.638 54.6793 153.816 54.502C154.002 54.3247 154.096 54.0727 154.096 53.746V51.954H155.244V53.802C155.244 54.5113 155.052 55.0573 154.67 55.44C154.296 55.8133 153.774 56 153.102 56C152.775 56 152.467 55.9393 152.178 55.818C151.888 55.6967 151.646 55.4587 151.45 55.104C151.235 55.4587 150.974 55.6967 150.666 55.818C150.367 55.9393 150.064 56 149.756 56C149.466 56 149.224 55.958 149.028 55.874C148.832 55.7807 148.668 55.6593 148.538 55.51V55.776C148.538 56.252 148.458 56.7093 148.3 57.148C148.141 57.5867 147.912 57.9693 147.614 58.296C147.324 58.632 146.965 58.898 146.536 59.094C146.116 59.29 145.64 59.388 145.108 59.388H144.254C143.208 59.388 142.396 59.066 141.818 58.422C141.239 57.778 140.95 56.896 140.95 55.776V53.298H142.084V55.734C142.084 56.462 142.266 57.05 142.63 57.498C142.994 57.946 143.591 58.17 144.422 58.17H145.038C145.458 58.17 145.817 58.1047 146.116 57.974C146.424 57.8433 146.676 57.666 146.872 57.442C147.068 57.218 147.212 56.9567 147.306 56.658C147.399 56.3593 147.446 56.0467 147.446 55.72V51.954H148.58V53.788C148.58 54.096 148.682 54.3387 148.888 54.516C149.102 54.684 149.378 54.768 149.714 54.768C150.516 54.768 150.918 54.4273 150.918 53.746V51.954H152.052V53.746ZM158.45 55.776C158.45 56.2987 158.366 56.7793 158.198 57.218C158.03 57.666 157.797 58.0487 157.498 58.366C157.209 58.6927 156.859 58.9447 156.448 59.122C156.047 59.2993 155.608 59.388 155.132 59.388H154.278L154.208 58.17H154.852C155.3 58.17 155.683 58.1 156 57.96C156.308 57.8293 156.56 57.652 156.756 57.428C156.961 57.204 157.111 56.9473 157.204 56.658C157.297 56.378 157.344 56.084 157.344 55.776V51.954H158.492V53.788C158.492 54.096 158.59 54.3387 158.786 54.516C158.991 54.684 159.257 54.768 159.584 54.768H159.738C159.943 54.768 160.046 54.9687 160.046 55.37C160.046 55.79 159.943 56 159.738 56H159.584C159.379 56 159.173 55.9627 158.968 55.888C158.763 55.8133 158.59 55.678 158.45 55.482V55.776ZM160.754 54.768C161.482 54.768 161.846 54.4273 161.846 53.746V51.954H162.994V53.746C162.994 53.9327 163.022 54.0913 163.078 54.222C163.144 54.3527 163.228 54.46 163.33 54.544C163.433 54.6187 163.55 54.6747 163.68 54.712C163.82 54.7493 163.96 54.768 164.1 54.768H164.492C164.707 54.768 164.814 54.9687 164.814 55.37C164.814 55.79 164.707 56 164.492 56H164.058C163.722 56 163.405 55.9393 163.106 55.818C162.817 55.6967 162.574 55.4587 162.378 55.104C162.164 55.4587 161.916 55.6967 161.636 55.818C161.366 55.9393 161.072 56 160.754 56H159.732C159.611 56 159.532 55.9533 159.494 55.86C159.448 55.7573 159.424 55.608 159.424 55.412C159.424 55.188 159.448 55.0247 159.494 54.922C159.532 54.8193 159.611 54.768 159.732 54.768H160.754ZM163.82 50.232H162.546V49.056H163.82V50.232ZM161.944 50.232H160.67V49.056H161.944V50.232ZM165.05 54.768C165.788 54.768 166.156 54.4273 166.156 53.746V51.954H167.304V53.746C167.304 53.9327 167.337 54.0913 167.402 54.222C167.468 54.3527 167.552 54.46 167.654 54.544C167.757 54.6187 167.874 54.6747 168.004 54.712C168.144 54.7493 168.284 54.768 168.424 54.768C169.227 54.768 169.628 54.4273 169.628 53.746V51.954H170.776V53.746C170.776 54.1287 170.874 54.3947 171.07 54.544C171.276 54.6933 171.514 54.768 171.784 54.768C172.102 54.768 172.354 54.6793 172.54 54.502C172.727 54.3247 172.82 54.0727 172.82 53.746V51.954H173.968V53.802C173.968 54.5113 173.777 55.0573 173.394 55.44C173.012 55.8133 172.489 56 171.826 56C171.5 56 171.187 55.9393 170.888 55.818C170.599 55.6967 170.356 55.4587 170.16 55.104C169.946 55.4587 169.684 55.6967 169.376 55.818C169.068 55.9393 168.751 56 168.424 56C168.07 56 167.738 55.9393 167.43 55.818C167.132 55.6967 166.884 55.4587 166.688 55.104C166.474 55.4587 166.222 55.6967 165.932 55.818C165.643 55.9393 165.335 56 165.008 56H164.49C164.369 56 164.29 55.9533 164.252 55.86C164.206 55.7573 164.182 55.608 164.182 55.412C164.182 55.188 164.206 55.0247 164.252 54.922C164.29 54.8193 164.369 54.768 164.49 54.768H165.05ZM180.554 52.584C180.797 52.864 180.974 53.144 181.086 53.424C181.198 53.6947 181.254 53.9607 181.254 54.222C181.254 54.474 181.208 54.7073 181.114 54.922C181.021 55.1367 180.886 55.3233 180.708 55.482C180.54 55.6407 180.326 55.7667 180.064 55.86C179.803 55.9533 179.504 56 179.168 56H175.332L175.262 54.768H179C179.299 54.768 179.528 54.7027 179.686 54.572C179.845 54.432 179.924 54.2547 179.924 54.04C179.924 53.7973 179.817 53.5593 179.602 53.326L177.11 50.484L178.006 49.644L180.554 52.584ZM187.613 55.776C187.613 56.2987 187.524 56.7793 187.347 57.218C187.179 57.666 186.946 58.0487 186.647 58.366C186.348 58.6927 185.994 58.9447 185.583 59.122C185.172 59.2993 184.729 59.388 184.253 59.388H183.399L183.329 58.17H183.973C184.421 58.17 184.804 58.1 185.121 57.96C185.429 57.8293 185.681 57.652 185.877 57.428C186.082 57.204 186.232 56.9473 186.325 56.658C186.418 56.378 186.465 56.084 186.465 55.776V51.954H187.613V55.776ZM194.213 52.584C194.455 52.864 194.633 53.144 194.745 53.424C194.857 53.6947 194.913 53.9607 194.913 54.222C194.913 54.474 194.866 54.7073 194.773 54.922C194.679 55.1367 194.544 55.3233 194.367 55.482C194.199 55.6407 193.984 55.7667 193.723 55.86C193.461 55.9533 193.163 56 192.827 56H188.991L188.921 54.768H192.659C192.957 54.768 193.186 54.7027 193.345 54.572C193.503 54.432 193.583 54.2547 193.583 54.04C193.583 53.7973 193.475 53.5593 193.261 53.326L190.769 50.484L191.665 49.644L194.213 52.584ZM201.229 55.776C201.229 56.2987 201.145 56.7793 200.977 57.218C200.809 57.666 200.576 58.0487 200.277 58.366C199.988 58.6927 199.638 58.9447 199.227 59.122C198.826 59.2993 198.387 59.388 197.911 59.388H197.057L196.987 58.17H197.631C198.079 58.17 198.462 58.1 198.779 57.96C199.087 57.8293 199.339 57.652 199.535 57.428C199.741 57.204 199.89 56.9473 199.983 56.658C200.077 56.378 200.123 56.084 200.123 55.776V51.954H201.271V53.788C201.271 54.096 201.369 54.3387 201.565 54.516C201.771 54.684 202.037 54.768 202.363 54.768H202.517C202.723 54.768 202.825 54.9687 202.825 55.37C202.825 55.79 202.723 56 202.517 56H202.363C202.158 56 201.953 55.9627 201.747 55.888C201.542 55.8133 201.369 55.678 201.229 55.482V55.776ZM203.786 54.768C204.122 54.768 204.383 54.6793 204.57 54.502C204.766 54.3247 204.864 54.0727 204.864 53.746V51.954H206.012V53.802C206.012 54.5113 205.82 55.0573 205.438 55.44C205.064 55.8133 204.542 56 203.87 56H202.512C202.39 56 202.311 55.9533 202.274 55.86C202.227 55.7573 202.204 55.608 202.204 55.412C202.204 55.188 202.227 55.0247 202.274 54.922C202.311 54.8193 202.39 54.768 202.512 54.768H203.786ZM206.11 50.232H204.836V49.056H206.11V50.232ZM204.234 50.232H202.96V49.056H204.234V50.232ZM212.566 55.23C212.192 55.4913 211.884 55.7387 211.642 55.972C211.399 56.2053 211.203 56.4387 211.054 56.672C210.914 56.9053 210.811 57.134 210.746 57.358C210.69 57.5913 210.662 57.834 210.662 58.086C210.662 58.7207 210.848 59.2247 211.222 59.598C211.604 59.9807 212.239 60.172 213.126 60.172H215.59L215.506 61.39H213.098C212.444 61.39 211.889 61.306 211.432 61.138C210.984 60.97 210.615 60.7367 210.326 60.438C210.046 60.1487 209.84 59.808 209.71 59.416C209.588 59.0333 209.528 58.618 209.528 58.17C209.528 57.8433 209.56 57.526 209.626 57.218C209.7 56.9193 209.822 56.6207 209.99 56.322C210.158 56.0327 210.377 55.7433 210.648 55.454C210.918 55.1553 211.25 54.8567 211.642 54.558L209.57 51.898L210.172 50.75H213.798C214.302 50.75 214.698 50.8713 214.988 51.114C215.286 51.3567 215.436 51.6833 215.436 52.094C215.436 52.2247 215.417 52.36 215.38 52.5C215.352 52.64 215.282 52.8033 215.17 52.99C215.058 53.1767 214.89 53.3913 214.666 53.634C214.442 53.8767 214.134 54.166 213.742 54.502C214.003 54.6327 214.269 54.712 214.54 54.74C214.82 54.7587 215.156 54.768 215.548 54.768H216.528C216.649 54.768 216.728 54.8193 216.766 54.922C216.812 55.0153 216.836 55.1647 216.836 55.37C216.836 55.5847 216.812 55.7433 216.766 55.846C216.728 55.9487 216.649 56 216.528 56H215.338C215.039 56 214.764 55.9953 214.512 55.986C214.26 55.9673 214.022 55.9347 213.798 55.888C213.574 55.8413 213.359 55.7667 213.154 55.664C212.958 55.5613 212.762 55.4167 212.566 55.23ZM214.204 52.402C214.204 52.0753 213.956 51.912 213.462 51.912H210.928L212.678 54.152C212.976 53.9093 213.224 53.6993 213.42 53.522C213.616 53.3353 213.77 53.1767 213.882 53.046C214.003 52.906 214.087 52.7847 214.134 52.682C214.18 52.5793 214.204 52.486 214.204 52.402ZM216.525 56C216.404 56 216.325 55.9533 216.287 55.86C216.241 55.7573 216.217 55.608 216.217 55.412C216.217 55.188 216.241 55.0247 216.287 54.922C216.325 54.8193 216.404 54.768 216.525 54.768H219.731C220.067 54.768 220.329 54.6793 220.515 54.502C220.711 54.3247 220.809 54.0727 220.809 53.746V51.954H221.957V53.802C221.957 54.5113 221.766 55.0573 221.383 55.44C221.001 55.8133 220.478 56 219.815 56H216.525ZM220.193 58.772H218.961V57.596H220.193V58.772ZM218.289 58.772H217.043V57.596H218.289V58.772ZM225.183 53.788C225.183 54.096 225.281 54.3387 225.477 54.516C225.683 54.684 225.944 54.768 226.261 54.768H226.415C226.621 54.768 226.723 54.9687 226.723 55.37C226.723 55.79 226.621 56 226.415 56H226.261C226.056 56 225.851 55.9627 225.645 55.888C225.44 55.8133 225.267 55.678 225.127 55.482V55.776C225.127 56.2987 225.043 56.7793 224.875 57.218C224.707 57.666 224.474 58.0487 224.175 58.366C223.886 58.6927 223.541 58.9447 223.139 59.122C222.738 59.2993 222.299 59.388 221.823 59.388H221.459L221.361 58.17H221.613C222.043 58.17 222.407 58.1 222.705 57.96C223.013 57.8293 223.265 57.652 223.461 57.428C223.657 57.204 223.802 56.9473 223.895 56.658C223.989 56.378 224.035 56.084 224.035 55.776V51.954H225.183V53.788ZM226.97 54.768C227.707 54.768 228.076 54.4273 228.076 53.746V51.954H229.224V53.746C229.224 53.9327 229.257 54.0913 229.322 54.222C229.387 54.3527 229.471 54.46 229.574 54.544C229.677 54.6187 229.793 54.6747 229.924 54.712C230.064 54.7493 230.204 54.768 230.344 54.768C231.147 54.768 231.548 54.4273 231.548 53.746V51.954H232.696V53.746C232.696 54.1287 232.794 54.3947 232.99 54.544C233.195 54.6933 233.433 54.768 233.704 54.768C234.021 54.768 234.273 54.6793 234.46 54.502C234.647 54.3247 234.74 54.0727 234.74 53.746V51.954H235.888V53.802C235.888 54.5113 235.697 55.0573 235.314 55.44C234.931 55.8133 234.409 56 233.746 56C233.419 56 233.107 55.9393 232.808 55.818C232.519 55.6967 232.276 55.4587 232.08 55.104C231.865 55.4587 231.604 55.6967 231.296 55.818C230.988 55.9393 230.671 56 230.344 56C229.989 56 229.658 55.9393 229.35 55.818C229.051 55.6967 228.804 55.4587 228.608 55.104C228.393 55.4587 228.141 55.6967 227.852 55.818C227.563 55.9393 227.255 56 226.928 56H226.41C226.289 56 226.209 55.9533 226.172 55.86C226.125 55.7573 226.102 55.608 226.102 55.412C226.102 55.188 226.125 55.0247 226.172 54.922C226.209 54.8193 226.289 54.768 226.41 54.768H226.97ZM243.993 58.17C244.432 58.17 244.8 58.1327 245.099 58.058C245.407 57.9833 245.654 57.8807 245.841 57.75C246.028 57.6193 246.158 57.4653 246.233 57.288C246.317 57.12 246.359 56.9427 246.359 56.756C246.359 56.5507 246.303 56.3733 246.191 56.224C246.088 56.0747 245.902 56 245.631 56H243.447L243.517 54.768H248.445C248.65 54.768 248.753 54.9687 248.753 55.37C248.753 55.79 248.65 56 248.445 56H247.143C247.264 56.1027 247.344 56.2287 247.381 56.378C247.428 56.5273 247.451 56.7 247.451 56.896C247.451 57.148 247.395 57.4187 247.283 57.708C247.171 57.9973 246.984 58.2633 246.723 58.506C246.471 58.758 246.135 58.968 245.715 59.136C245.295 59.304 244.772 59.388 244.147 59.388H242.705C241.66 59.388 240.848 59.066 240.269 58.422C239.69 57.778 239.401 56.896 239.401 55.776V53.298H240.535V55.734C240.535 56.462 240.717 57.05 241.081 57.498C241.445 57.946 242.042 58.17 242.873 58.17H243.993ZM252.481 55.188C252.239 55.3373 252.001 55.4633 251.767 55.566C251.534 55.6687 251.282 55.7527 251.011 55.818C250.75 55.8833 250.461 55.93 250.143 55.958C249.826 55.986 249.462 56 249.051 56H248.449C248.328 56 248.249 55.9533 248.211 55.86C248.165 55.7573 248.141 55.608 248.141 55.412C248.141 55.188 248.165 55.0247 248.211 54.922C248.249 54.8193 248.328 54.768 248.449 54.768H249.093C249.448 54.768 249.761 54.7587 250.031 54.74C250.311 54.7213 250.568 54.6887 250.801 54.642C251.035 54.5953 251.254 54.5347 251.459 54.46C251.665 54.376 251.875 54.2733 252.089 54.152L254.175 52.948C254.101 52.78 254.026 52.6353 253.951 52.514C253.886 52.3833 253.797 52.2713 253.685 52.178C253.573 52.0847 253.438 52.0147 253.279 51.968C253.121 51.9213 252.92 51.898 252.677 51.898H249.625L249.709 50.666H252.845C253.097 50.666 253.349 50.6987 253.601 50.764C253.863 50.8293 254.105 50.96 254.329 51.156C254.563 51.352 254.777 51.632 254.973 51.996C255.169 52.36 255.333 52.8407 255.463 53.438L252.481 55.188ZM252.971 60.578H251.683V59.402H252.971V60.578ZM253.895 58.772H252.621V57.596H253.895V58.772ZM252.019 58.772H250.745V57.596H252.019V58.772ZM261.208 54.278C261.637 54.278 261.973 54.1893 262.216 54.012C262.459 53.8347 262.58 53.6107 262.58 53.34V51.59H261.32C260.872 51.59 260.541 51.73 260.326 52.01C260.111 52.29 260.004 52.6587 260.004 53.116C260.004 53.5453 260.102 53.8487 260.298 54.026C260.494 54.194 260.797 54.278 261.208 54.278ZM263.686 53.592C263.686 53.9467 263.756 54.2313 263.896 54.446C264.045 54.6607 264.297 54.768 264.652 54.768H264.932C265.044 54.768 265.119 54.8193 265.156 54.922C265.203 55.0153 265.226 55.1647 265.226 55.37C265.226 55.5847 265.203 55.7433 265.156 55.846C265.119 55.9487 265.044 56 264.932 56H264.652C264.204 56 263.826 55.916 263.518 55.748C263.219 55.5707 263 55.258 262.86 54.81C262.748 54.95 262.613 55.062 262.454 55.146C262.305 55.23 262.146 55.2953 261.978 55.342C261.81 55.3887 261.637 55.4213 261.46 55.44C261.283 55.4587 261.119 55.468 260.97 55.468C260.298 55.468 259.785 55.2813 259.43 54.908C259.075 54.5347 258.898 53.97 258.898 53.214C258.898 52.8687 258.945 52.5327 259.038 52.206C259.141 51.87 259.29 51.5713 259.486 51.31C259.682 51.0487 259.925 50.8387 260.214 50.68C260.513 50.5213 260.858 50.442 261.25 50.442H262.58V49.49H263.686V53.592ZM265.12 54.768C265.829 54.768 266.184 54.4693 266.184 53.872V53.438C266.184 52.6447 266.389 52.0193 266.8 51.562C267.22 51.0953 267.798 50.862 268.535 50.862C268.918 50.862 269.254 50.9273 269.544 51.058C269.833 51.1793 270.076 51.352 270.272 51.576C270.468 51.7907 270.612 52.052 270.706 52.36C270.808 52.668 270.86 53.004 270.86 53.368V53.732C270.86 54.124 270.958 54.3947 271.154 54.544C271.359 54.6933 271.597 54.768 271.868 54.768H272.092C272.213 54.768 272.292 54.8193 272.329 54.922C272.376 55.0153 272.4 55.1647 272.4 55.37C272.4 55.5847 272.376 55.7433 272.329 55.846C272.292 55.9487 272.213 56 272.092 56H271.868C271.728 56 271.583 55.986 271.434 55.958C271.294 55.93 271.158 55.8833 271.028 55.818C270.897 55.7433 270.771 55.6453 270.65 55.524C270.528 55.3933 270.421 55.2253 270.328 55.02C270.076 55.4213 269.786 55.6873 269.46 55.818C269.133 55.9393 268.797 56 268.452 56C268.078 56 267.728 55.93 267.402 55.79C267.075 55.6407 266.818 55.3933 266.632 55.048C266.548 55.244 266.445 55.4073 266.324 55.538C266.202 55.6593 266.076 55.7573 265.946 55.832C265.815 55.8973 265.675 55.944 265.526 55.972C265.386 55.9907 265.25 56 265.12 56H264.938C264.816 56 264.737 55.9533 264.699 55.86C264.653 55.7573 264.629 55.608 264.629 55.412C264.629 55.188 264.653 55.0247 264.699 54.922C264.737 54.8193 264.816 54.768 264.938 54.768H265.12ZM269.74 53.494C269.74 53.0833 269.646 52.7473 269.46 52.486C269.282 52.2247 268.965 52.094 268.508 52.094C268.088 52.094 267.775 52.22 267.57 52.472C267.374 52.724 267.276 53.0787 267.276 53.536C267.276 53.9467 267.388 54.2547 267.612 54.46C267.845 54.6653 268.139 54.768 268.494 54.768C268.914 54.768 269.226 54.6607 269.432 54.446C269.637 54.222 269.74 53.9047 269.74 53.494ZM275.63 51.646C275.238 51.646 274.921 51.7767 274.678 52.038C274.445 52.29 274.328 52.6027 274.328 52.976C274.328 53.172 274.365 53.354 274.44 53.522C274.524 53.69 274.631 53.844 274.762 53.984C274.902 54.1147 275.051 54.236 275.21 54.348C275.378 54.4507 275.546 54.544 275.714 54.628C275.854 54.544 275.994 54.4507 276.134 54.348C276.283 54.236 276.414 54.1147 276.526 53.984C276.647 53.8533 276.745 53.7087 276.82 53.55C276.895 53.382 276.932 53.2 276.932 53.004C276.932 52.6027 276.811 52.276 276.568 52.024C276.335 51.772 276.022 51.646 275.63 51.646ZM272.088 56C271.967 56 271.887 55.9533 271.85 55.86C271.803 55.7573 271.78 55.608 271.78 55.412C271.78 55.188 271.803 55.0247 271.85 54.922C271.887 54.8193 271.967 54.768 272.088 54.768H274.454C274.09 54.516 273.801 54.2313 273.586 53.914C273.371 53.5873 273.264 53.2187 273.264 52.808C273.264 52.5 273.32 52.206 273.432 51.926C273.544 51.6367 273.703 51.3847 273.908 51.17C274.123 50.9553 274.384 50.7827 274.692 50.652C275 50.5213 275.345 50.456 275.728 50.456C276.111 50.456 276.442 50.5213 276.722 50.652C277.011 50.7827 277.249 50.9553 277.436 51.17C277.623 51.3847 277.763 51.6273 277.856 51.898C277.949 52.1687 277.996 52.444 277.996 52.724C277.996 53.144 277.903 53.522 277.716 53.858C277.539 54.1847 277.268 54.488 276.904 54.768H279.144C279.443 54.768 279.671 54.7027 279.83 54.572C279.989 54.432 280.068 54.2547 280.068 54.04C280.068 53.816 279.956 53.564 279.732 53.284L277.282 50.386L278.136 49.588L280.614 52.542C280.875 52.8593 281.057 53.1533 281.16 53.424C281.263 53.6947 281.314 53.9607 281.314 54.222C281.314 54.474 281.267 54.7073 281.174 54.922C281.081 55.1367 280.945 55.3233 280.768 55.482C280.6 55.6407 280.385 55.7667 280.124 55.86C279.863 55.9533 279.564 56 279.228 56H277.688C277.259 56 276.876 55.986 276.54 55.958C276.213 55.93 275.952 55.8647 275.756 55.762C275.625 55.818 275.462 55.8647 275.266 55.902C275.079 55.93 274.883 55.9533 274.678 55.972C274.482 55.9813 274.286 55.9907 274.09 56C273.903 56 273.745 56 273.614 56H272.088Z" fill="#323232"/>
</svg>
