<svg width="327" height="135" viewBox="0 0 327 135" fill="none" xmlns="http://www.w3.org/2000/svg">
<path d="M316.333 0.849113H104.052C98.9733 0.849113 94.8564 4.96598 94.8564 10.0444V121.543C94.8564 126.621 98.9733 130.738 104.052 130.738H316.333C321.411 130.738 325.528 126.621 325.528 121.543V10.0444C325.528 4.96598 321.411 0.849113 316.333 0.849113Z" fill="#F5F5F5"/>
<path d="M316.332 131.587H104.068C101.406 131.589 98.8524 130.536 96.9662 128.657C95.0801 126.779 94.0158 124.23 94.0068 121.568V10.0444C94.0091 7.38116 95.068 4.82765 96.9512 2.94446C98.8344 1.06127 101.388 0.00230578 104.051 5.7373e-05H316.315C317.638 -0.00440933 318.949 0.251978 320.172 0.754545C321.396 1.25711 322.508 1.99599 323.446 2.92892C324.383 3.86184 325.128 4.9705 325.637 6.19146C326.145 7.41241 326.408 8.72169 326.411 10.0444V121.568C326.399 124.232 325.332 126.783 323.443 128.661C321.553 130.539 318.996 131.591 316.332 131.587ZM104.068 1.68119C101.855 1.68344 99.7337 2.56349 98.169 4.12823C96.6042 5.69296 95.7242 7.81455 95.7219 10.0274V121.568C95.7242 123.781 96.6042 125.902 98.169 127.467C99.7337 129.032 101.855 129.912 104.068 129.914H316.332C317.431 129.918 318.519 129.704 319.535 129.286C320.551 128.869 321.475 128.254 322.253 127.479C323.032 126.704 323.65 125.783 324.072 124.768C324.494 123.754 324.711 122.667 324.712 121.568V10.0444C324.71 7.83153 323.83 5.70994 322.265 4.14521C320.701 2.58047 318.579 1.70042 316.366 1.69817L104.068 1.68119Z" fill="#E0E0E0"/>
<path d="M94.2871 80.5416H130.797V99.4925H164.063V121.721H276.987V86.485H300.294V40.585H324.967V117.849C324.967 121.213 323.631 124.44 321.252 126.819C318.873 129.198 315.647 130.534 312.282 130.534H108.101C106.287 130.535 104.49 130.179 102.814 129.485C101.137 128.791 99.6137 127.773 98.3307 126.49C97.0477 125.207 96.0302 123.684 95.3364 122.008C94.6426 120.331 94.286 118.534 94.2871 116.72V80.5416Z" fill="#E0E0E0"/>
<path d="M0 16.8199V116.847H74.4368V16.8029C74.4368 16.8029 0 17.6265 0 16.8199Z" fill="#E0E0E0"/>
<path d="M0 17.0321V32.5868L74.4623 33.0453V16.8199L0 17.0321Z" fill="#EBEBEB"/>
<path d="M26.9316 23.9774V27.0255H50.7732V24.385C50.7732 24.385 27.543 23.9774 26.9316 23.9774Z" fill="white"/>
<path d="M27.458 39.7529H4.15137V64.7491H27.458V39.7529Z" fill="#FAFAFA"/>
<path d="M24.2061 90.9255H25.2334H28.1881H39.0221L38.9542 90.9935C38.9542 83.5557 38.9542 73.7236 38.9542 62.9746V56.6236H39.0391H60.4693L60.4013 56.6916C60.4777 52.0557 60.5372 48.2774 60.5796 45.6538C60.5796 44.3718 60.5796 43.3614 60.6391 42.6312C60.6985 41.901 60.6391 41.5699 60.6391 41.5699C60.6391 41.5699 60.6391 41.935 60.6391 42.6312C60.6391 43.3274 60.6391 44.3293 60.6391 45.6538C60.6391 48.3114 60.5711 52.0897 60.5202 56.6916V56.7595H60.4523H39.0221L39.1155 56.6661V62.9321C39.1155 73.6982 39.1155 83.5303 39.1155 90.951V91.0019H39.0476H28.2136H25.2589L24.2061 90.9255Z" fill="#FAFAFA"/>
<path d="M68.0859 98.3293H66.3198H61.3274H43.4972H43.4208V98.2529C43.4208 91.0699 43.4208 82.5963 43.4208 73.5538V62.0152H58.2028L58.1349 62.0916C58.1349 55.1802 58.1349 49.4321 58.1349 45.3821C58.1349 43.3953 58.1349 41.8246 58.1349 40.7123C58.1349 39.6001 58.1349 39.0652 58.1349 39.0652C58.1349 39.0652 58.1349 39.6425 58.1349 40.7123C58.1349 41.7821 58.1349 43.3953 58.1349 45.3821C58.1349 49.4321 58.1349 55.1802 58.1349 62.0916V62.168H43.3613L43.4462 62.0831C43.4462 65.768 43.4462 69.6397 43.4462 73.6133C43.4462 82.6557 43.4462 91.1293 43.4462 98.3123L43.3698 98.2359H61.2H66.1925L68.0859 98.3293Z" fill="#EBEBEB"/>
<path d="M4.30469 70.2085V72.552H23.1622V69.7416L4.30469 70.2085Z" fill="#FAFAFA"/>
<path d="M4.15137 74.2925V76.6444H23.0089V73.8255L4.15137 74.2925Z" fill="#FAFAFA"/>
<path d="M225.077 24.351L196.336 14.0349L167.884 24.2236C164.25 25.9217 161.092 26.9661 161.092 30.3453V47.1906C161.029 59.0203 164.263 70.6336 170.431 80.7283C176.595 90.9292 185.732 98.9998 196.616 103.857C208.248 100.078 216.934 90 222.241 81.3906C228.424 71.3003 231.673 59.6867 231.623 47.8529V32.6972C231.623 27.8661 229.059 25.5142 225.077 24.351Z" fill="#FF725E"/>
<g opacity="0.3">
<path opacity="0.3" d="M196.617 94.0755C187.994 90.1815 180.766 83.7475 175.9 75.634C171.014 67.6459 168.448 58.456 168.487 49.0925V37.2736C168.487 34.5991 170.1 32.0859 173.31 30.5915L196.345 21.9821V14.0349L167.893 24.2236C164.904 25.5227 161.1 26.9661 161.1 30.3453V47.1906C161.038 59.0203 164.272 70.6336 170.44 80.7283C176.604 90.9292 185.741 98.9998 196.625 103.857L196.617 94.0755Z" fill="black"/>
</g>
<g opacity="0.4">
<path opacity="0.4" d="M196.616 103.857C198.566 103.218 200.455 102.408 202.262 101.437C206.695 98.9234 210.723 95.7546 214.209 92.0378C217.377 88.629 220.164 84.8852 222.521 80.8727C228.786 70.7124 231.949 58.9444 231.623 47.0123V33.0963C231.623 26.168 228.048 25.6585 225.06 24.351L196.336 14.0349V21.9821L219.651 30.7189C222.86 32.2217 224.474 34.7264 224.474 37.4095V49.2283C224.513 58.5904 221.944 67.7782 217.053 75.7614C212.298 83.8303 205.158 90.226 196.616 94.067V103.857Z" fill="black"/>
</g>
<path opacity="0.5" d="M203.961 48.3368V46.0614C203.895 44.1267 203.081 42.293 201.689 40.9475C200.297 39.602 198.437 38.8498 196.502 38.8498C194.566 38.8498 192.706 39.602 191.314 40.9475C189.922 42.293 189.108 44.1267 189.043 46.0614V48.3793C188.052 48.5258 187.148 49.0229 186.493 49.7802C185.839 50.5376 185.478 51.5047 185.477 52.5057V65.9208C185.479 67.0272 185.92 68.0876 186.703 68.8691C187.486 69.6507 188.547 70.0897 189.654 70.0896H203.578C204.127 70.0908 204.67 69.9838 205.176 69.7748C205.683 69.5657 206.144 69.2589 206.532 68.8716C206.92 68.4844 207.228 68.0245 207.438 67.5181C207.648 67.0118 207.756 66.469 207.756 65.9208V52.5057C207.758 51.4624 207.37 50.456 206.667 49.6845C205.965 48.913 204.999 48.4322 203.961 48.3368ZM198.527 62.567H194.884L195.453 59.9434C195.051 59.684 194.744 59.3015 194.577 58.853C194.41 58.4044 194.393 57.914 194.529 57.4551C194.664 56.9961 194.944 56.5933 195.327 56.3067C195.71 56.0201 196.176 55.8653 196.654 55.8653C197.133 55.8653 197.598 56.0201 197.982 56.3067C198.365 56.5933 198.645 56.9961 198.78 57.4551C198.915 57.914 198.898 58.4044 198.732 58.853C198.565 59.3015 198.258 59.684 197.856 59.9434L198.527 62.567ZM202.356 48.3198H190.647V46.0614C190.705 44.5473 191.347 43.1145 192.439 42.0637C193.53 41.0129 194.986 40.4259 196.502 40.4259C198.017 40.4259 199.473 41.0129 200.565 42.0637C201.656 43.1145 202.298 44.5473 202.356 46.0614V48.3198Z" fill="white"/>
<path d="M173.139 48.1755C172.897 47.419 172.754 46.6341 172.715 45.8406C172.495 43.9415 172.416 42.0288 172.477 40.118C172.477 38.9972 172.588 37.9359 172.689 36.968C172.728 36.0847 172.945 35.2183 173.326 34.4208C173.603 33.8781 174.042 33.4356 174.583 33.1557C174.973 32.9689 175.22 32.9774 175.22 33.0114C174.527 33.3325 173.97 33.8891 173.649 34.5821C173.336 35.3516 173.167 36.1716 173.148 37.0019C173.072 37.9614 173.012 39.0142 172.978 40.1265C172.919 42.3425 172.978 44.3717 173.063 45.7982C173.156 46.587 173.182 47.3823 173.139 48.1755Z" fill="white"/>
<path d="M173.581 55.5114C173.445 55.5114 173.318 54.8236 173.301 53.9661C173.284 53.1085 173.386 52.4123 173.521 52.4038C173.657 52.3953 173.785 53.1 173.802 53.9576C173.819 54.8151 173.7 55.5114 173.581 55.5114Z" fill="white"/>
<path d="M234.832 15.8264C235.609 16.0122 236.37 16.2592 237.108 16.5651C238.01 16.9251 238.865 17.3927 239.655 17.9576C240.771 18.72 241.696 19.7315 242.355 20.9123C243.149 22.4123 243.574 24.0802 243.594 25.7774C243.594 27.6283 243.594 29.6321 243.594 31.7972C243.594 36.1189 243.637 41.0604 243.594 46.5708C243.515 52.6264 242.734 58.6524 241.268 64.5283C239.546 71.3711 236.886 77.9429 233.363 84.0566C229.421 90.9012 224.537 97.1576 218.853 102.642C212.909 108.323 205.574 113.349 197.007 116.015H196.93H196.854C193.853 114.733 190.925 113.288 188.083 111.685C185.177 110.001 182.378 108.138 179.703 106.107C174.182 101.883 169.268 96.9205 165.099 91.3585C156.08 79.4711 150.713 65.2164 149.655 50.3321C149.383 46.8085 149.459 43.3274 149.451 39.9057V29.7764C149.451 28.0783 149.451 26.4821 149.451 24.8604C149.425 24.0415 149.453 23.2218 149.536 22.4066C149.66 21.5777 149.999 20.7959 150.521 20.1397C151.59 18.9328 152.916 17.9811 154.401 17.3548C155.819 16.684 157.245 16.0981 158.646 15.4783L196.506 2.74249H196.548H196.599L224.686 12.3453L232.183 14.8925L234.11 15.5632L234.764 15.8095C234.764 15.8095 234.535 15.75 234.102 15.6057L232.158 14.9689L224.635 12.4217L196.574 2.98871H196.667L158.842 15.8349C157.449 16.4548 156.014 17.0406 154.596 17.7114C153.164 18.3154 151.884 19.2321 150.852 20.3944C150.372 20.9986 150.062 21.7194 149.952 22.4831C149.875 23.2758 149.849 24.0728 149.875 24.8689V29.7849C149.875 33.0878 149.875 36.4585 149.875 39.8717C149.875 43.2849 149.816 46.7661 150.088 50.2642C151.145 65.0659 156.485 79.2407 165.456 91.0614C169.604 96.5912 174.492 101.525 179.983 105.725C182.641 107.745 185.422 109.597 188.312 111.269C191.15 112.881 194.076 114.336 197.075 115.625H196.93C205.421 112.992 212.68 107.983 218.624 102.362C224.289 96.9104 229.161 90.6914 233.1 83.8868C236.606 77.8157 239.265 71.2941 241.005 64.5029C242.48 58.6536 243.275 52.6535 243.374 46.6217C243.374 41.1198 243.374 36.1698 243.425 31.8481C243.425 29.6831 243.425 27.6708 243.425 25.8368C243.422 24.1635 243.017 22.5153 242.244 21.0312C241.604 19.8659 240.707 18.8613 239.621 18.0934C238.828 17.5289 237.973 17.0561 237.074 16.684C236.518 16.4512 235.952 16.2471 235.375 16.0727L234.832 15.8264Z" fill="#FF725E"/>
<path d="M93.5868 106.101L94.6356 125.899L120.987 126.501L119.037 111.118L121.05 95.3979C119.728 88.035 109.404 87.5253 109.404 87.5253L101.304 87.3947C98.53 87.1943 95.7583 87.8092 93.3298 89.1639C93.3298 89.1639 85.1076 93.6414 85.1792 105.019" fill="#455A64"/>
<path d="M109.483 87.2978C109.302 87.8549 109.064 88.3914 108.771 88.8985C108.377 89.4765 107.847 89.9489 107.228 90.2743C106.609 90.5996 105.919 90.768 105.22 90.7645C104.52 90.7781 103.827 90.6169 103.205 90.2955C102.583 89.9741 102.051 89.5026 101.657 88.9238C101.431 88.5607 101.26 88.166 101.151 87.7528C101.121 87.5967 101.074 87.4442 101.012 87.2978C101 87.4591 101.014 87.6213 101.054 87.778C101.133 88.2128 101.287 88.6305 101.509 89.0122C101.844 89.5864 102.325 90.0616 102.903 90.3896C103.605 90.8044 104.405 91.0213 105.22 91.0172C106.034 91.0198 106.833 90.7967 107.528 90.3728C108.097 90.0329 108.576 89.5603 108.923 88.9954C109.149 88.6162 109.316 88.2041 109.415 87.7738C109.467 87.6207 109.49 87.4593 109.483 87.2978Z" fill="#263238"/>
<path d="M115.676 93.9237C114.42 94.9251 113.394 96.1846 112.668 97.617C111.941 99.0493 111.53 100.621 111.464 102.226C111.262 107.255 110.95 114.239 110.765 114.589C110.188 115.667 94.9435 114.749 93.3387 114.635L91.401 114.037C91.401 114.037 87.8375 110.954 87.1888 111.88C86.5401 112.807 89.0591 113.401 89.5477 115.221C90.0363 117.04 84.9732 115.617 84.6447 115.393L83.3389 115.023C83.3389 115.023 84.1139 117.508 84.7752 118.296C86.8813 120.823 91.7212 122.087 91.7212 122.087C91.7212 122.087 111.464 128.502 119.438 123.207C122.045 121.476 122.487 104.505 121.502 97.9337C121.312 96.68 120.676 95.5372 119.709 94.7165C118.743 93.8957 117.512 93.4525 116.245 93.4687L115.676 93.9237Z" fill="#FFBE9D"/>
<path d="M86.3882 117.824C86.0039 117.586 85.6027 117.376 85.1877 117.196C84.7975 116.969 84.3922 116.769 83.9746 116.598C84.3158 116.901 84.7024 117.148 85.1203 117.331C85.5153 117.559 85.9429 117.725 86.3882 117.824Z" fill="#EB996E"/>
<path d="M118.944 91.5522C121.374 93.8773 123.729 98.5445 122.857 107.883L109.904 107.348L110.237 94.5681C110.256 93.9279 110.417 93.2998 110.708 92.7294C111 92.159 111.414 91.6605 111.922 91.27C112.934 90.473 114.198 90.0635 115.485 90.1153C116.772 90.167 117.999 90.6765 118.944 91.5522Z" fill="#455A64"/>
<path d="M105.098 91.0004C104.533 90.9976 103.974 90.8832 103.453 90.6635C102.932 90.4439 102.46 90.1235 102.064 89.7206C101.667 89.3178 101.354 88.8406 101.143 88.3163C100.931 87.7921 100.825 87.2312 100.832 86.666C100.832 85.1791 100.874 83.8902 100.874 83.8902C100.874 83.8902 97.4323 83.57 97.1795 80.1624C96.9268 76.7547 97.0363 68.8905 97.0363 68.8905C98.9229 67.9386 101.029 67.5075 103.138 67.6415C105.247 67.7755 107.282 68.4699 109.033 69.6529L109.563 70.0109L109.399 86.7587C109.389 87.8908 108.931 88.9728 108.125 89.7678C107.319 90.5628 106.231 91.006 105.098 91.0004Z" fill="#FFBE9D"/>
<path d="M100.773 78.0647C100.518 78.1324 100.252 78.1537 99.9895 78.1279C99.9198 78.1398 99.8486 78.1398 99.7789 78.1279C99.7304 78.1166 99.6851 78.0944 99.6464 78.063C99.6078 78.0316 99.5767 77.9919 99.5557 77.9467C99.509 77.7762 99.5224 77.5947 99.5936 77.4328L99.8842 76.4472C100.305 75.0572 100.727 73.9493 100.786 73.9704C100.845 73.9915 100.567 75.1372 100.137 76.5272C100.027 76.8642 99.9263 77.1843 99.8252 77.5045C99.7701 77.6153 99.7468 77.7392 99.7579 77.8625C99.7579 77.9299 99.8716 77.9509 99.9937 77.9552C100.258 77.9473 100.521 77.9843 100.773 78.0647Z" fill="#263238"/>
<path d="M100.831 83.8438C102.407 83.776 103.928 83.2408 105.199 82.3064C105.199 82.3064 104.298 84.8337 100.877 84.7242L100.831 83.8438Z" fill="#EB996E"/>
<path d="M108.666 73.7809C108.729 73.7556 110.823 73.4818 110.625 75.9544C110.427 78.4269 107.992 77.4118 107.992 77.3402C107.992 77.2686 108.666 73.7809 108.666 73.7809Z" fill="#FFBE9D"/>
<path d="M108.834 76.5314C108.834 76.5314 108.872 76.5651 108.944 76.603C109.042 76.6562 109.157 76.6683 109.264 76.6367C109.431 76.5486 109.572 76.4174 109.672 76.2568C109.772 76.0961 109.827 75.9118 109.832 75.7227C109.857 75.5107 109.833 75.2959 109.761 75.0951C109.745 75.0156 109.71 74.9413 109.658 74.8788C109.607 74.8163 109.541 74.7676 109.466 74.737C109.417 74.7193 109.364 74.7192 109.315 74.737C109.267 74.7547 109.226 74.789 109.2 74.8339C109.163 74.9013 109.175 74.9518 109.163 74.9561C109.15 74.9603 109.112 74.9097 109.137 74.8086C109.159 74.7486 109.198 74.697 109.251 74.6612C109.323 74.6169 109.409 74.6018 109.491 74.6191C109.591 74.6479 109.682 74.7016 109.756 74.7753C109.83 74.849 109.884 74.9402 109.912 75.0403C110 75.2638 110.031 75.5052 110.005 75.7437C110.001 75.9645 109.93 76.1789 109.804 76.3597C109.677 76.5405 109.499 76.6795 109.293 76.7589C109.225 76.774 109.154 76.7731 109.086 76.7563C109.018 76.7395 108.955 76.7072 108.901 76.662C108.834 76.5904 108.834 76.5356 108.834 76.5314Z" fill="#EB996E"/>
<path d="M97.2847 69.0969C96.8679 68.973 96.5041 68.7143 96.2502 68.3614C95.9963 68.0084 95.8669 67.5811 95.8821 67.1466C95.9126 66.7124 96.0603 66.2947 96.3096 65.9379C96.5588 65.5811 96.9002 65.2986 97.2974 65.1205C97.6981 64.9502 98.1301 64.8659 98.5655 64.8731C99.0009 64.8804 99.4299 64.979 99.8247 65.1627C99.9453 64.5264 100.289 63.954 100.793 63.5478C101.297 63.1416 101.93 62.9283 102.577 62.946C103.224 62.9638 103.844 63.2114 104.325 63.6446C104.807 64.0778 105.118 64.6682 105.204 65.3101C105.288 64.653 106.046 64.2865 106.695 64.2444C107.025 64.2108 107.359 64.2529 107.67 64.3675C107.982 64.4821 108.264 64.6661 108.493 64.9057C108.715 65.1518 108.838 65.4715 108.838 65.8029C108.838 66.1344 108.715 66.454 108.493 66.7001C109.234 66.604 109.983 66.784 110.6 67.2056C110.904 67.421 111.15 67.7092 111.315 68.0439C111.48 68.3787 111.558 68.7493 111.543 69.1221C111.515 69.4933 111.371 69.8463 111.131 70.1312C110.892 70.4161 110.569 70.6186 110.208 70.7101C109.959 70.7649 109.896 70.5964 109.761 70.8112C109.691 71.0431 109.658 71.285 109.664 71.5273C109.713 72.3079 109.666 73.0915 109.525 73.8609C109.297 73.7811 109.047 73.7916 108.826 73.8902C108.605 73.9889 108.43 74.1683 108.338 74.3916C108.168 74.8475 108.122 75.34 108.203 75.8196C108.138 75.8865 108.06 75.9383 107.972 75.9711C107.885 76.0039 107.792 76.017 107.699 76.0093C107.607 76.0017 107.517 75.9735 107.436 75.9268C107.356 75.8802 107.287 75.8162 107.234 75.7395C107.039 75.4109 106.952 75.0293 106.985 74.6486L106.935 70.7059C106.741 70.8134 106.522 70.8696 106.3 70.8694C106.078 70.8691 105.859 70.8124 105.665 70.7046C105.471 70.5968 105.308 70.4414 105.19 70.253C105.072 70.0646 105.005 69.8494 104.993 69.6276C104.714 69.8953 104.38 70.0977 104.013 70.22C103.647 70.3423 103.258 70.3815 102.874 70.3347C102.491 70.2879 102.122 70.1563 101.796 69.9495C101.47 69.7427 101.193 69.4658 100.987 69.139C100.592 69.471 100.158 69.7539 99.6941 69.9814C99.2226 70.2125 98.6818 70.259 98.1777 70.112C97.9279 70.0346 97.7083 69.8817 97.5491 69.6742C97.3899 69.4667 97.299 69.215 97.2889 68.9537L97.4616 68.8062" fill="#263238"/>
<path d="M109.484 125.536H75.8115L70.2598 104.033H98.3552L102.803 124.134L109.484 124.294V125.536Z" fill="#FF725E"/>
<path d="M99.3737 74.0673C99.4074 74.1136 99.0957 74.3579 98.6324 74.3664C98.169 74.3748 97.8447 74.1515 97.8784 74.1052C97.9121 74.0589 98.2238 74.16 98.6282 74.1473C99.0325 74.1347 99.3442 74.0125 99.3737 74.0673Z" fill="#263238"/>
<path d="M98.1602 74.2947C98.1602 74.4104 98.2061 74.5212 98.2878 74.603C98.3696 74.6848 98.4805 74.7307 98.5961 74.7307C98.7117 74.7307 98.8226 74.6848 98.9044 74.603C98.9861 74.5212 99.0321 74.4104 99.0321 74.2947" fill="#263238"/>
<path d="M104.113 74.0968C104.151 74.1431 103.839 74.3874 103.372 74.3958C102.904 74.4043 102.584 74.181 102.618 74.1347C102.651 74.0883 102.967 74.1894 103.367 74.1768C103.768 74.1642 104.084 74.042 104.113 74.0968Z" fill="#263238"/>
<path d="M102.904 74.3369C102.904 74.4519 102.95 74.5623 103.031 74.6437C103.113 74.725 103.223 74.7707 103.338 74.7707C103.453 74.7707 103.564 74.725 103.645 74.6437C103.726 74.5623 103.772 74.4519 103.772 74.3369" fill="#263238"/>
<path d="M104.42 72.989C104.387 73.1701 103.898 73.2375 103.321 73.2459C102.744 73.2543 102.251 73.1953 102.217 73.0142C102.184 72.8331 102.668 72.593 103.313 72.593C103.957 72.593 104.45 72.812 104.42 72.989Z" fill="#263238"/>
<path d="M99.5302 73.2627C99.5008 73.4439 99.0121 73.5155 98.4351 73.5239C97.858 73.5323 97.3652 73.4691 97.3272 73.288C97.2893 73.1069 97.7822 72.8668 98.4266 72.8668C99.0711 72.8668 99.5681 73.0732 99.5302 73.2627Z" fill="#263238"/>
<path d="M111.838 75.0571C111.838 75.6727 111.593 76.263 111.158 76.6983C110.723 77.1335 110.133 77.3781 109.517 77.3781C108.253 77.3781 107.79 76.3419 107.79 75.0571C107.79 73.7724 108.237 72.7404 109.517 72.7404C110.132 72.7404 110.722 72.9844 111.157 73.4187C111.592 73.8531 111.837 74.4423 111.838 75.0571Z" fill="#455A64"/>
<path d="M109.319 73.288C109.319 73.288 111.113 64.6783 105.216 65.0152L104.934 64.4761C104.934 64.4761 108.506 63.6336 109.811 66.4137C110.831 68.5788 110.169 73.1954 110.169 73.1954L109.319 73.288Z" fill="#455A64"/>
<path d="M109.812 77.3781C109.527 77.3891 109.249 77.2877 109.037 77.0959C108.491 76.6762 108.131 76.0592 108.035 75.3773C107.955 74.6985 108.103 74.0125 108.456 73.427C108.755 72.9763 109.13 72.9173 109.126 72.9468C108.905 73.0899 108.721 73.2816 108.586 73.5071C108.303 74.0765 108.19 74.7158 108.262 75.3478C108.355 75.9766 108.667 76.5525 109.142 76.9737C109.35 77.1334 109.574 77.269 109.812 77.3781Z" fill="#263238"/>
<path d="M100.92 78.9703C100.954 79.0208 100.891 79.1261 100.756 79.1641C100.621 79.202 100.508 79.1641 100.516 79.084C100.524 79.004 100.605 78.9787 100.697 78.9534C100.79 78.9282 100.887 78.9029 100.92 78.9703Z" fill="#263238"/>
<path d="M91.8049 80.394C92.3563 80.394 92.8032 79.9471 92.8032 79.3957C92.8032 78.8444 92.3563 78.3974 91.8049 78.3974C91.2536 78.3974 90.8066 78.8444 90.8066 79.3957C90.8066 79.9471 91.2536 80.394 91.8049 80.394Z" fill="#263238"/>
<path d="M92.6605 79.063C92.1294 78.4936 91.6915 77.8439 91.3631 77.138C90.9744 76.4694 90.6338 75.7741 90.3438 75.0572C90.8261 75.6661 91.236 76.3291 91.5653 77.0327C92.1508 78.1616 92.7068 79.0251 92.6605 79.063Z" fill="#263238"/>
<path d="M92.18 73.9578C92.2347 73.9788 92.0199 74.4969 91.4597 74.855C91.3052 74.9787 91.1261 75.0682 90.9344 75.1176C90.7427 75.1669 90.5427 75.1751 90.3477 75.1414C90.3477 75.0782 90.8405 75.0024 91.3417 74.6738C91.843 74.3453 92.1252 73.9156 92.18 73.9578Z" fill="#263238"/>
<path d="M92.614 74.8971C92.6688 74.8971 92.4793 75.4362 91.9106 75.7395C91.7532 75.8503 91.5712 75.9208 91.3803 75.9451C91.1894 75.9693 90.9955 75.9465 90.8154 75.8785C91.1528 75.7975 91.4826 75.6876 91.8011 75.55C92.3066 75.2846 92.5551 74.8676 92.614 74.8971Z" fill="#263238"/>
<path d="M86.6278 78.8145C86.5515 78.9136 86.4476 78.9879 86.3291 79.0279C86.2106 79.0679 86.0829 79.0718 85.9622 79.0392C85.8414 79.0066 85.7331 78.9389 85.6508 78.8446C85.5686 78.7504 85.5162 78.6339 85.5003 78.5098C85.4843 78.3858 85.5056 78.2598 85.5613 78.1478C85.617 78.0358 85.7047 77.9429 85.8132 77.8808C85.9218 77.8187 86.0463 77.7902 86.1711 77.799C86.2958 77.8077 86.4152 77.8533 86.514 77.9299C86.6462 78.0323 86.7323 78.1829 86.7536 78.3487C86.7749 78.5145 86.7297 78.682 86.6278 78.8145Z" fill="#263238"/>
<path d="M86.6827 78.5912C86.5998 78.1012 86.6184 77.5994 86.7375 77.1169C86.7919 76.6281 86.9036 76.1475 87.0702 75.6848C87.1167 76.1763 87.0782 76.6721 86.9565 77.1506C86.9066 77.6378 86.815 78.1197 86.6827 78.5912Z" fill="#263238"/>
<path d="M88.9869 76.4051C88.6818 76.518 88.3511 76.5432 88.0324 76.4777C87.7138 76.4121 87.4198 76.2586 87.1841 76.0344C87.0409 75.8785 87.0156 75.7353 87.0408 75.7269C87.0661 75.7185 87.1377 75.8153 87.2894 75.9206C87.4856 76.0609 87.7052 76.1651 87.9381 76.2281C88.4941 76.384 88.9785 76.3377 88.9869 76.4051Z" fill="#263238"/>
<path d="M88.5443 79.5389C88.4681 79.6378 88.3644 79.7118 88.2461 79.7517C88.1279 79.7917 88.0005 79.7957 87.88 79.7633C87.7595 79.7309 87.6513 79.6636 87.569 79.5698C87.4867 79.476 87.434 79.3599 87.4176 79.2362C87.4012 79.1125 87.4218 78.9868 87.4767 78.8747C87.5317 78.7627 87.6186 78.6695 87.7265 78.6068C87.8344 78.5441 87.9585 78.5148 88.083 78.5225C88.2076 78.5302 88.327 78.5746 88.4264 78.6502C88.4927 78.7006 88.5484 78.7637 88.5903 78.8357C88.6321 78.9078 88.6593 78.9874 88.6703 79.07C88.6812 79.1526 88.6758 79.2366 88.6541 79.3171C88.6325 79.3975 88.5952 79.473 88.5443 79.5389Z" fill="#263238"/>
<path d="M88.6161 79.3157C88.5307 78.8259 88.5494 78.3236 88.6709 77.8414C88.7233 77.3509 88.835 76.8686 89.0037 76.4051C89.0499 76.8982 89.01 77.3957 88.8857 77.8751C88.8384 78.3623 88.7482 78.8444 88.6161 79.3157Z" fill="#263238"/>
<path d="M88.9327 76.8347C88.777 76.9222 88.6046 76.9757 88.4267 76.9917C88.2488 77.0076 88.0696 76.9857 87.9008 76.9274C87.3153 76.7884 86.9741 76.4177 87.0162 76.3798C87.0583 76.3419 87.4374 76.5904 87.9513 76.7125C88.4652 76.8347 88.9201 76.7715 88.9327 76.8347Z" fill="#263238"/>
<path d="M122.841 107.883C122.765 107.889 122.689 107.889 122.613 107.883H121.969L119.589 107.794C117.58 107.71 114.808 107.58 111.746 107.42L110.175 107.34H110.069V107.238C110.069 104.559 110.095 102.184 110.103 100.448C110.103 99.6059 110.128 98.9362 110.137 98.4349C110.137 98.2159 110.137 98.039 110.137 97.8916C110.138 97.8279 110.145 97.7644 110.158 97.702C110.176 97.7634 110.183 97.8276 110.179 97.8916C110.179 98.039 110.179 98.2159 110.2 98.4349C110.2 98.9362 110.2 99.6144 110.229 100.448C110.229 102.188 110.255 104.559 110.267 107.238L110.166 107.129L111.733 107.209C114.795 107.369 117.571 107.525 119.576 107.63L121.952 107.79L122.596 107.845C122.679 107.844 122.762 107.857 122.841 107.883Z" fill="#263238"/>
<path d="M116.838 89.5008C116.336 89.4384 115.83 89.4229 115.326 89.4545C114.115 89.5867 112.986 90.1275 112.124 90.9877C111.282 91.8698 110.71 92.975 110.477 94.1722C110.292 95.0904 110.33 95.6844 110.288 95.6802C110.251 95.5428 110.236 95.4009 110.241 95.2589C110.217 93.6118 110.837 92.0203 111.968 90.8235C112.861 89.924 114.049 89.3779 115.313 89.286C115.691 89.2609 116.071 89.2864 116.442 89.3618C116.581 89.385 116.715 89.432 116.838 89.5008Z" fill="#263238"/>
<path d="M93.5778 96.0382C93.641 96.4435 93.6663 96.8539 93.6536 97.2639C93.6536 98.0221 93.6789 99.0878 93.6536 100.255C93.6283 101.358 93.6073 102.361 93.5862 103.178C93.5862 103.645 93.5862 103.982 93.5862 104.315C93.5862 103.936 93.5862 103.557 93.5862 103.026C93.5862 102.184 93.5441 101.207 93.523 100.078C93.502 98.9488 93.523 97.9716 93.523 97.2176C93.5053 96.8236 93.5236 96.4288 93.5778 96.0382Z" fill="#263238"/>
<path d="M87.0868 114.774C87.0876 115.152 86.9764 115.521 86.7672 115.835C86.5581 116.15 86.2604 116.395 85.9118 116.54C85.5632 116.685 85.1794 116.723 84.809 116.65C84.4386 116.577 84.0982 116.396 83.8309 116.129C83.5636 115.862 83.3814 115.522 83.3075 115.152C83.2335 114.782 83.2711 114.398 83.4154 114.049C83.5597 113.7 83.8042 113.402 84.1181 113.192C84.432 112.982 84.8011 112.87 85.1786 112.87C85.684 112.87 86.1687 113.071 86.5264 113.428C86.8841 113.785 87.0857 114.269 87.0868 114.774Z" fill="#F5F5F5"/>
<path d="M37.8744 131.95L52.0396 127.403C52.0774 127.391 52.1171 127.386 52.1566 127.389L63.0514 128.196C64.9661 123.555 67.3649 117.755 68.4564 115.106C68.6383 114.671 68.9313 114.293 69.306 114.008C69.6808 113.723 70.1239 113.541 70.591 113.482L82.3896 111.94C82.5299 111.923 82.6722 111.943 82.8023 111.999C82.9324 112.054 83.0457 112.142 83.1309 112.255C83.216 112.368 83.2701 112.501 83.2877 112.641C83.3053 112.781 83.2857 112.924 83.231 113.054L76.5872 128.547C76.4992 128.752 76.3695 128.937 76.2063 129.09C76.043 129.243 75.8498 129.36 75.6389 129.434L62.1435 134.819C61.8351 134.942 61.5009 134.987 61.1711 134.948L60.3075 134.853C57.3175 134.541 42.5531 133.038 37.9349 132.553C37.8617 132.55 37.7923 132.52 37.7393 132.469C37.6862 132.419 37.653 132.351 37.6457 132.278C37.6384 132.205 37.6574 132.132 37.6994 132.072C37.7413 132.012 37.8034 131.969 37.8744 131.95Z" fill="#E0E0E0"/>
<path d="M37.8741 131.95C37.8269 131.965 37.7839 131.992 37.7489 132.027C37.7138 132.062 37.6875 132.105 37.6723 132.152C37.654 132.212 37.6536 132.275 37.6712 132.335C37.6888 132.395 37.7235 132.449 37.7712 132.489C37.8348 132.538 37.9127 132.565 37.9931 132.566L38.2594 132.594L41.5743 132.945L53.7684 134.214L57.8035 134.634L59.9521 134.855L61.0557 134.975C61.4379 135.034 61.8291 134.989 62.1876 134.843L71.2141 131.248L73.6251 130.286L74.8538 129.798L75.4732 129.551C75.5761 129.507 75.6749 129.471 75.7859 129.424C75.8915 129.378 75.9916 129.319 76.0845 129.251C76.2713 129.112 76.4279 128.937 76.5445 128.736C76.6575 128.535 76.7301 128.323 76.8229 128.115L77.3616 126.862C77.7234 126.023 78.0872 125.175 78.4531 124.318C79.9199 120.888 81.4411 117.353 82.9966 113.726L83.2105 113.227C83.3009 113.062 83.3474 112.876 83.3457 112.687C83.334 112.494 83.2584 112.311 83.1308 112.167C83.0032 112.023 82.831 111.925 82.6415 111.89C82.5951 111.88 82.5467 111.89 82.4983 111.876L82.3591 111.886L82.0928 111.922L81.5621 111.991L80.5049 112.128L76.3326 112.675L72.2572 113.207L71.2484 113.338C70.9155 113.389 70.5826 113.411 70.2396 113.49C69.5769 113.66 69.0015 114.072 68.6256 114.644C68.4575 114.929 68.3163 115.228 68.2039 115.54C68.0802 115.841 67.9564 116.141 67.8327 116.439L67.1003 118.217L65.6719 121.679C64.7398 123.943 63.842 126.118 62.9886 128.188L63.0329 128.159L52.4166 127.374L52.122 127.352C52.0689 127.352 52.0162 127.361 51.9667 127.381L51.8275 127.427L51.2948 127.604L50.2215 127.949L48.1979 128.613L44.6268 129.765L39.6334 131.379L38.322 131.809C38.0254 131.906 37.8741 131.958 37.8741 131.958C37.8741 131.958 38.0274 131.914 38.326 131.821L39.6415 131.405L44.6369 129.804L48.21 128.662L50.2477 128.008L51.3211 127.665L51.8719 127.489C51.9584 127.454 52.0494 127.43 52.1422 127.419L52.4368 127.441L63.0511 128.248H63.0814L63.0955 128.218C63.9509 126.15 64.8487 123.981 65.7849 121.713L67.2153 118.251C67.4574 117.665 67.7022 117.072 67.9497 116.474C68.0728 116.175 68.1979 115.868 68.321 115.574C68.4317 115.269 68.5701 114.975 68.7345 114.696C69.0949 114.147 69.6464 113.752 70.282 113.587C70.5967 113.51 70.9357 113.486 71.2666 113.437L72.2754 113.306L76.3528 112.776L80.5251 112.231L81.5843 112.094L82.1149 112.023C82.2848 111.989 82.4586 111.978 82.6314 111.991C82.7975 112.022 82.9483 112.108 83.0601 112.235C83.1719 112.362 83.2383 112.522 83.2488 112.691C83.2501 112.864 83.2063 113.034 83.1217 113.185L82.9018 113.683L78.3603 124.278C77.9931 125.133 77.6299 125.981 77.2708 126.822C77.0892 127.241 76.9117 127.659 76.7321 128.075C76.6413 128.276 76.5626 128.498 76.4577 128.68C76.349 128.869 76.2019 129.033 76.026 129.162C75.9387 129.226 75.8447 129.281 75.7455 129.325C75.6487 129.368 75.5438 129.406 75.4389 129.448L74.8195 129.697L73.5928 130.187L71.1718 131.149L62.1493 134.755C61.8046 134.896 61.4277 134.94 61.0598 134.882L59.9542 134.763L57.8055 134.545L53.7704 134.141L41.5723 132.905L38.2554 132.572L37.9891 132.547C37.9121 132.547 37.8372 132.523 37.7752 132.477C37.7293 132.439 37.6956 132.388 37.678 132.331C37.6604 132.274 37.6599 132.213 37.6764 132.156C37.6956 132.085 37.742 132.024 37.8055 131.987C37.8499 131.96 37.8741 131.952 37.8741 131.95Z" fill="#263238"/>
<path d="M56.1045 129.146L50.7923 131.369L44.1727 130.679L49.7391 128.381L56.1045 129.146Z" fill="#F5F5F5"/>
<path d="M60.1096 133.348L49.7394 132.412L59.6415 128.486L62.8252 128.726L61.1426 132.786L60.1096 133.348Z" fill="#F5F5F5"/>
<path d="M38.9009 131.944L38.9716 131.956L39.1834 131.982L39.9904 132.065L42.9885 132.358L52.8745 133.28L60.6461 133.982H60.6784L60.6905 133.952L62.4115 129.753L62.8836 128.579C62.936 128.444 62.9764 128.341 63.0046 128.27C63.0194 128.235 63.0322 128.198 63.043 128.161C63.043 128.161 63.0248 128.196 62.9925 128.264L62.8594 128.569L62.3651 129.733C61.9414 130.742 61.3361 132.184 60.6098 133.919L60.6542 133.891L52.8846 133.171L42.9885 132.279L39.9965 132.025L39.1895 131.96L38.9776 131.946L38.9009 131.944Z" fill="black"/>
<path d="M82.8867 112.501H82.7979L82.5357 112.531L81.5269 112.663L77.8267 113.167C76.2651 113.385 74.3969 113.647 72.341 113.952L70.7592 114.196L70.3557 114.264C70.2891 114.275 70.2185 114.291 70.154 114.307C70.1197 114.307 70.0833 114.321 70.049 114.331C69.8789 114.399 69.7244 114.502 69.5951 114.632C69.5427 114.687 69.501 114.752 69.472 114.823L69.3933 115.025C68.9717 116.078 68.5359 117.17 68.088 118.285C66.3045 122.754 64.6924 126.801 63.5223 129.735C62.9432 131.198 62.4752 132.384 62.1483 133.207C61.9909 133.611 61.8679 133.933 61.7811 134.155C61.7408 134.26 61.7105 134.341 61.6883 134.402C61.6769 134.429 61.6674 134.457 61.6601 134.486C61.6743 134.46 61.6871 134.433 61.6984 134.406L61.8013 134.161L62.1866 133.223C62.5195 132.4 62.9937 131.22 63.5989 129.761L68.1747 118.324C68.6226 117.208 69.0584 116.117 69.4801 115.063L69.5588 114.862C69.5831 114.802 69.6179 114.747 69.6617 114.7C69.7519 114.602 69.861 114.523 69.9825 114.468C70.0127 114.454 70.0436 114.441 70.0753 114.43L70.1721 114.406C70.2367 114.392 70.3012 114.377 70.3739 114.367L70.7774 114.297L72.3591 114.049L77.8388 113.242L81.535 112.703L82.5437 112.554L82.804 112.511L82.8867 112.501Z" fill="black"/>
<path d="M72.4581 121.776C71.9538 122.452 71.8529 123.228 72.2302 123.511C72.6074 123.793 73.3257 123.477 73.8301 122.801C74.3345 122.125 74.4353 121.35 74.0581 121.066C73.6808 120.781 72.9625 121.102 72.4581 121.776Z" fill="white"/>
<path d="M8.62842 110.254C9.3043 106.42 13.5432 104.11 14.9434 102.835L12.8391 105.65C11.762 110.091 11.354 114.669 11.6285 119.232C11.6568 119.73 11.6023 120.402 11.2472 120.472C11.1189 120.483 10.9915 120.443 10.8921 120.361C9.6493 119.565 8.84228 117.739 8.66272 115.858C8.48316 113.978 8.32175 112.027 8.62842 110.254Z" fill="#FF725E"/>
<path d="M11.7313 105.96C11.933 105.575 11.8503 104.346 12.9418 105.629L13.0124 105.149L19.7571 99.9641L34.7899 100.745C36.2324 100.836 38.3993 103.333 38.94 104.376C39.3838 108.256 39.4726 111.7 39.4726 111.7C39.4726 111.7 39.9891 116.014 39.4726 118.053C38.9561 120.093 38.3448 120.83 37.5458 122.415C36.9612 123.499 36.2323 124.498 35.379 125.385L34.6769 130.833L18.9723 132.245L11.7837 131.841C11.7837 131.841 12.4273 121.098 12.4273 120.908C12.4273 120.819 11.5295 118.745 10.5651 116.544C8.92687 112.778 9.85091 109.596 11.7313 105.96Z" fill="#455A64"/>
<path d="M51.1699 125.5C51.0912 125.5 50.3064 120.196 49.7919 118.992C49.3077 117.856 38.9395 104.374 38.9395 104.374L36.4983 112.243L37.5454 116.451L43.1945 123.249L44.7904 128.175L51.1699 125.5Z" fill="#455A64"/>
<path d="M9.64052 109.991C10.385 105.272 14.061 105.478 14.061 105.478L17.7148 111.835V124.982L35.3421 126.507L35.6689 130.933C35.6689 130.933 18.1062 134.948 14.0489 133.603C11.3635 132.713 9.09577 130.467 8.84761 126.797C8.59946 123.128 8.89402 114.712 9.64052 109.991Z" fill="#455A64"/>
<path d="M43.1761 123.24C43.2273 122.94 43.2947 122.642 43.3778 122.349C43.5989 121.644 43.9981 121.008 44.5366 120.502C45.0752 119.996 45.7351 119.638 46.4526 119.462C46.7509 119.395 47.0527 119.343 47.3564 119.308C47.2733 119.298 47.1894 119.298 47.1063 119.308C46.8801 119.318 46.6552 119.347 46.4344 119.397C45.6982 119.56 45.0198 119.919 44.4711 120.436C43.9223 120.953 43.5236 121.609 43.3173 122.335C43.2538 122.552 43.2105 122.775 43.1882 123C43.1742 123.08 43.1702 123.16 43.1761 123.24Z" fill="black"/>
<path d="M34.7393 126.325C34.7141 126.319 34.6885 126.314 34.6626 126.311L34.4386 126.279L33.5751 126.164L30.3935 125.76L19.9022 124.485L17.5699 124.207L17.6163 124.257C17.4811 120.682 17.4145 117.531 17.4388 115.273C17.4388 114.145 17.463 113.24 17.4771 112.616C17.4771 112.309 17.4912 112.069 17.4952 111.902V111.716C17.4952 111.674 17.4952 111.654 17.4952 111.652C17.4931 111.673 17.4931 111.695 17.4952 111.716C17.4952 111.763 17.4952 111.823 17.4831 111.9C17.4831 112.069 17.463 112.303 17.4488 112.616C17.4226 113.238 17.3944 114.143 17.3782 115.273C17.3419 117.531 17.3903 120.686 17.5215 124.259V124.304H17.5659L19.8982 124.584L30.3995 125.829L33.5832 126.194L34.4507 126.287L34.6767 126.309L34.7393 126.325Z" fill="black"/>
<path d="M8.60689 126.325C8.60419 126.352 8.60419 126.379 8.60689 126.406C8.60689 126.463 8.60689 126.541 8.61899 126.64C8.63727 126.941 8.67161 127.241 8.72188 127.538C8.80116 128.009 8.9165 128.474 9.06689 128.928C9.27291 129.527 9.54922 130.1 9.89005 130.635C10.3047 131.286 10.8282 131.86 11.4375 132.334C12.1377 132.877 12.947 133.263 13.8101 133.465C14.2748 133.577 14.7467 133.656 15.2224 133.701C15.7175 133.746 16.2144 133.765 16.7114 133.758C17.7534 133.737 18.7925 133.64 19.8204 133.467L25.7742 132.489L28.3708 132.057L30.6325 131.64C32.0105 131.381 33.1282 131.186 33.9029 131.069L34.7967 130.937L35.0287 130.905C35.0555 130.903 35.0819 130.897 35.1074 130.889H35.0287L34.7947 130.913C34.5929 130.935 34.2863 130.97 33.8969 131.024C33.1201 131.129 32.0004 131.315 30.6184 131.563L28.3607 131.966L25.7621 132.388L19.8083 133.36C18.784 133.535 17.7482 133.634 16.7094 133.657C16.205 133.657 15.7127 133.643 15.2305 133.605C14.7602 133.561 14.2937 133.484 13.8344 133.375C12.9822 133.177 12.1826 132.799 11.49 132.265C10.8864 131.8 10.3664 131.236 9.95259 130.596C9.61131 130.069 9.33301 129.502 9.12338 128.91C8.96929 128.461 8.84858 128.001 8.76224 127.534C8.69566 127.148 8.65531 126.846 8.64118 126.64L8.61697 126.406C8.61546 126.379 8.61209 126.352 8.60689 126.325Z" fill="black"/>
<path d="M35.2152 126.65C35.2234 126.623 35.2288 126.596 35.2313 126.567C35.2414 126.505 35.2555 126.422 35.2697 126.321C35.3019 126.095 35.3483 125.781 35.4048 125.381V125.395L36.7405 123.916C37.0008 123.545 37.236 123.157 37.4446 122.754C37.6777 122.296 37.8838 121.824 38.062 121.342C38.4556 120.252 38.7263 119.121 38.869 117.971C39.0098 116.726 39.0389 115.47 38.9557 114.22C38.8932 113.07 38.7741 112.037 38.6612 111.174C38.5482 110.31 38.4413 109.614 38.3646 109.132L38.2738 108.579C38.2637 108.521 38.2556 108.474 38.2476 108.436C38.246 108.419 38.2419 108.403 38.2355 108.387C38.2337 108.403 38.2337 108.42 38.2355 108.436C38.2355 108.476 38.2355 108.523 38.2516 108.581C38.2698 108.718 38.292 108.904 38.3222 109.138C38.3868 109.62 38.4816 110.318 38.5865 111.184C38.6914 112.049 38.7863 113.078 38.8488 114.228C38.9259 115.472 38.8948 116.72 38.756 117.959C38.6154 119.102 38.3502 120.226 37.9651 121.312C37.7909 121.789 37.5888 122.256 37.3598 122.71C37.1557 123.11 36.9258 123.497 36.6719 123.868L35.3544 125.365L35.2455 126.307C35.2354 126.41 35.2273 126.493 35.2192 126.555C35.2123 126.586 35.2109 126.619 35.2152 126.65Z" fill="black"/>
<path d="M15.0289 127.14C15.1619 126.993 15.2839 126.836 15.394 126.67C15.614 126.374 15.9226 125.97 16.2838 125.541C16.6449 125.111 16.9859 124.733 17.2381 124.467C17.383 124.329 17.5178 124.181 17.6416 124.023C17.4774 124.137 17.3259 124.269 17.1897 124.415C16.8429 124.749 16.5149 125.103 16.2071 125.474C15.8972 125.842 15.6069 126.227 15.3376 126.626C15.2176 126.787 15.1141 126.959 15.0289 127.14Z" fill="black"/>
<path d="M46.8562 126.148C47.0055 125.286 47.7903 124.614 47.7903 124.614C47.7903 124.614 48.1655 123.565 48.7264 123.289C49.2873 123.013 49.7352 123.565 50.2234 123.416C50.7117 123.267 51.7588 123.228 52.0957 123.416C52.4327 123.604 52.8442 124.651 52.8442 124.651C53.1839 124.664 53.5162 124.754 53.8167 124.913C54.0714 125.045 54.2918 125.234 54.4603 125.466C54.6065 125.409 54.7666 125.398 54.9194 125.434C55.0722 125.47 55.2104 125.551 55.3157 125.668C55.5204 125.907 55.6736 126.186 55.7657 126.487L56.032 127.201C56.0833 127.31 56.1068 127.43 56.1006 127.55C56.08 127.649 56.0265 127.738 55.9488 127.802C55.8711 127.867 55.7738 127.903 55.6729 127.905C55.5703 127.906 55.4688 127.884 55.3749 127.843C55.2811 127.802 55.197 127.741 55.1281 127.665C54.9908 127.529 54.8696 127.378 54.767 127.215L54.7004 127.683C54.7004 127.683 54.5894 128.424 53.9902 128.468C53.5766 128.5 53.1287 128.02 53.1287 128.02L52.0816 127.907L51.9323 128.954C51.8634 129.156 51.7315 129.33 51.5561 129.452C51.3807 129.573 51.171 129.635 50.9578 129.628C50.5826 129.628 50.0984 128.993 50.0984 128.993L49.1239 129.366C49.1239 129.366 48.0021 130.153 47.4776 129.89C47.3309 129.816 47.2138 129.694 47.1456 129.545C47.0774 129.395 47.0621 129.227 47.1023 129.067C46.8783 128.813 46.7014 128.522 46.5798 128.206C46.4385 127.758 46.6988 127.009 46.8562 126.148Z" fill="#FFBE9D"/>
<path d="M54.7254 127.504C54.7681 127.133 54.7552 126.758 54.6871 126.392C54.6521 126.021 54.561 125.658 54.4167 125.315C54.3885 125.315 54.4994 125.805 54.5842 126.408C54.6689 127.011 54.6871 127.504 54.7254 127.504Z" fill="#EB996E"/>
<path d="M53.0886 126.519C53.025 126.774 52.9951 127.035 52.9998 127.298C52.9784 127.487 52.9976 127.679 53.0563 127.861C53.1148 128.002 53.1975 128.062 53.2036 128.046C53.2096 128.03 53.1612 127.968 53.1269 127.845C53.0923 127.669 53.0848 127.488 53.1047 127.31C53.1355 127.047 53.13 126.781 53.0886 126.519Z" fill="#EB996E"/>
<path d="M52.3906 126.073C52.3704 126.093 52.5076 126.275 52.6993 126.46C52.891 126.646 53.0604 126.795 53.0826 126.775C53.1048 126.755 52.9656 126.573 52.774 126.388C52.5823 126.202 52.4108 126.053 52.3906 126.073Z" fill="#EB996E"/>
<path d="M52.2513 124.06C52.2287 124.248 52.2206 124.439 52.2271 124.629C52.2271 124.982 52.213 125.466 52.1848 126C52.1565 126.535 52.1141 127.019 52.0839 127.37C52.0552 127.559 52.0431 127.749 52.0476 127.939C52.1033 127.757 52.1398 127.569 52.1565 127.378C52.2069 127.029 52.2594 126.545 52.2897 126.007C52.3199 125.468 52.3159 124.982 52.3018 124.629C52.3047 124.438 52.2878 124.247 52.2513 124.06Z" fill="#EB996E"/>
<path d="M48.3244 124.461C48.3244 124.461 48.3687 124.562 48.4394 124.744C48.5378 125.001 48.616 125.265 48.6734 125.534C48.7097 125.708 48.748 125.896 48.7904 126.095C48.8305 126.314 48.8899 126.529 48.968 126.737C49.0551 126.972 49.2018 127.181 49.3937 127.342C49.4985 127.433 49.6233 127.498 49.758 127.531C49.8927 127.564 50.0333 127.565 50.1684 127.534C50.3088 127.502 50.4358 127.427 50.5316 127.32C50.62 127.213 50.6766 127.084 50.695 126.947C50.7236 126.702 50.7284 126.454 50.7091 126.208C50.6862 125.796 50.6227 125.386 50.5195 124.986C50.4502 124.716 50.3611 124.452 50.2531 124.195C50.2148 124.104 50.1845 124.035 50.1603 123.993C50.15 123.968 50.1365 123.945 50.12 123.924C50.1451 124.023 50.1768 124.119 50.2148 124.213C50.3075 124.473 50.3849 124.737 50.4468 125.006C50.5386 125.404 50.594 125.809 50.6123 126.216C50.6283 126.455 50.6222 126.694 50.5941 126.931C50.5777 127.049 50.5288 127.161 50.4529 127.253C50.3706 127.344 50.263 127.407 50.1442 127.435C50.0244 127.463 49.8998 127.461 49.7806 127.432C49.6614 127.402 49.5509 127.344 49.4582 127.263C49.2782 127.112 49.1394 126.918 49.0547 126.699C48.9279 126.31 48.8235 125.915 48.742 125.514C48.6787 125.243 48.5895 124.979 48.4757 124.725C48.4443 124.656 48.4085 124.589 48.3687 124.524C48.3445 124.481 48.3284 124.459 48.3244 124.461Z" fill="#EB996E"/>
<path d="M47.9295 124.915C47.9579 125.139 48.0566 125.348 48.2114 125.512C48.3663 125.676 48.5693 125.786 48.791 125.827C48.6143 125.71 48.4464 125.581 48.2886 125.44C48.1561 125.274 48.036 125.099 47.9295 124.915Z" fill="#EB996E"/>
<path d="M50.0972 127.524C50.031 127.804 50.0139 128.093 50.0467 128.379C50.0575 128.634 50.0933 128.886 50.1537 129.134V129.148C50.1612 129.152 50.1696 129.154 50.1781 129.154C50.1866 129.154 50.195 129.153 50.2028 129.149C50.2106 129.146 50.2174 129.141 50.2229 129.134C50.2284 129.127 50.2323 129.12 50.2344 129.112C50.2344 129.091 50.2344 129.083 50.2344 129.083C50.2344 129.083 50.2344 129.093 50.2203 129.101C50.2061 129.11 50.192 129.118 50.186 129.101L50.1981 129.118C50.1981 128.98 50.1678 128.694 50.1496 128.363C50.1519 128.082 50.1343 127.802 50.0972 127.524Z" fill="#EB996E"/>
<path d="M47.7219 126.688C47.7997 126.817 47.8918 126.936 47.9963 127.044C48.2275 127.313 48.4304 127.605 48.6016 127.915C48.7719 128.225 48.8685 128.57 48.8841 128.924C48.8841 129.196 48.8377 129.362 48.8558 129.366C48.9265 129.229 48.9619 129.077 48.9587 128.924C48.9647 128.554 48.8736 128.189 48.6944 127.865C48.5166 127.546 48.2968 127.253 48.0407 126.993C47.9478 126.878 47.8407 126.776 47.7219 126.688Z" fill="#EB996E"/>
<path d="M48.1348 128.549C48.1979 128.322 48.1874 128.081 48.1047 127.86C48.022 127.64 47.8715 127.451 47.6748 127.322C46.9707 126.822 44.8623 125.506 44.8179 125.506C44.7736 125.506 42.3424 124.699 41.3195 124.594C40.2966 124.489 35.8197 126.713 35.8197 126.713C35.8197 126.713 34.7806 128.21 34.9481 129.646C35.1155 131.083 36.0517 131.165 36.0517 131.165L37.351 130.849L38.6906 130.592C38.6906 130.592 41.6544 131.418 42.1205 131.266C42.5865 131.115 42.7479 130.609 42.2436 130.334C41.7392 130.06 40.2885 129.63 40.2885 129.63L39.1728 129.158L42.8044 129.676C42.8044 129.676 45.8751 130.282 46.2343 130.197C46.5934 130.112 46.6479 129.844 46.6781 129.592C46.6781 129.592 47.9149 130.197 48.2821 129.866C48.6493 129.535 48.8107 128.815 48.1348 128.549Z" fill="#FFBE9D"/>
<path d="M40.2973 127.665C40.3873 127.68 40.4787 127.684 40.5697 127.679C40.7432 127.679 40.9954 127.679 41.3061 127.699C41.6685 127.716 42.0286 127.766 42.3815 127.851C42.5895 127.904 42.7921 127.976 42.9867 128.066C43.1885 128.159 43.3902 128.268 43.592 128.389C43.7978 128.507 44.0123 128.609 44.2336 128.694C44.4405 128.77 44.6572 128.817 44.8772 128.833C45.2397 128.833 45.601 128.874 45.9545 128.954C46.1853 129.028 46.3889 129.168 46.5396 129.358C46.5907 129.431 46.6359 129.509 46.6748 129.59C46.6748 129.59 46.6748 129.563 46.6627 129.519C46.6418 129.454 46.6119 129.392 46.5739 129.336C46.4286 129.126 46.22 128.968 45.9787 128.886C45.6216 128.792 45.2544 128.743 44.8852 128.738C44.446 128.687 44.024 128.537 43.6505 128.301C43.4487 128.186 43.247 128.068 43.0331 127.974C42.834 127.883 42.6266 127.811 42.4137 127.76C42.0545 127.676 41.6871 127.632 41.3182 127.629C41.0035 127.629 40.7513 127.629 40.5757 127.641C40.4824 127.64 40.3892 127.648 40.2973 127.665Z" fill="#EB996E"/>
<path d="M41.3949 126.134C41.4158 126.147 41.4381 126.159 41.4615 126.168C41.5039 126.188 41.5704 126.214 41.6632 126.245C41.9108 126.321 42.1637 126.379 42.4198 126.418C42.7406 126.475 43.128 126.517 43.5396 126.62C43.9831 126.754 44.4091 126.94 44.8086 127.175C45.5531 127.589 46.3305 127.941 47.1328 128.228C47.4395 128.337 47.6917 128.418 47.8672 128.47C47.9562 128.502 48.0481 128.526 48.1416 128.541C48.058 128.496 47.9701 128.459 47.8793 128.432L47.1591 128.157C46.3684 127.853 45.5999 127.493 44.859 127.082C44.452 126.843 44.0169 126.656 43.5638 126.525C43.1897 126.441 42.8111 126.377 42.4299 126.335C42.176 126.303 41.9241 126.257 41.6754 126.196C41.5831 126.17 41.4895 126.149 41.3949 126.134Z" fill="#EB996E"/>
<path d="M38.4473 126.999C38.474 126.92 38.4936 126.839 38.5058 126.757C38.554 126.568 38.6471 126.394 38.777 126.249C38.907 126.104 39.07 125.992 39.2523 125.924C39.3325 125.902 39.4108 125.874 39.4863 125.839C39.4863 125.827 39.3855 125.815 39.2281 125.853C39.0237 125.908 38.8395 126.021 38.6975 126.178C38.5566 126.336 38.4647 126.532 38.4332 126.741C38.412 126.827 38.4169 126.916 38.4473 126.999Z" fill="#EB996E"/>
<path d="M36.7688 129.265C36.7725 129.151 36.7826 129.038 36.7991 128.926C36.8679 128.664 37.0227 128.432 37.2389 128.268C37.4614 128.107 37.7069 127.979 37.9672 127.891C38.0805 127.861 38.1892 127.815 38.29 127.756C38.1722 127.757 38.0555 127.779 37.945 127.82C37.6666 127.892 37.4043 128.016 37.1723 128.186C36.9369 128.363 36.7776 128.623 36.7264 128.914C36.6972 129.032 36.7122 129.157 36.7688 129.265Z" fill="#EB996E"/>
<path d="M46.668 129.588C46.7193 129.633 46.7789 129.669 46.8435 129.693C47.0121 129.772 47.186 129.839 47.364 129.894C47.4866 129.937 47.612 129.972 47.7393 129.997C47.8928 130.017 48.049 130.002 48.1953 129.951C48.2779 129.921 48.3533 129.873 48.4165 129.812C48.4797 129.751 48.5295 129.677 48.5625 129.596C48.6459 129.43 48.6796 129.244 48.6593 129.059C48.6383 128.92 48.5664 128.793 48.4575 128.704C48.3648 128.622 48.2608 128.554 48.1489 128.502L48.1751 128.563C48.2572 128.313 48.2384 128.041 48.1226 127.804C48.0266 127.627 47.8971 127.47 47.7413 127.342C47.6414 127.259 47.5348 127.184 47.4225 127.118C47.384 127.09 47.341 127.069 47.2954 127.056C47.2854 127.07 47.4589 127.171 47.6989 127.389C47.8407 127.518 47.9582 127.672 48.046 127.843C48.1454 128.06 48.157 128.308 48.0782 128.535L48.0661 128.573L48.1045 128.593C48.2941 128.692 48.5221 128.837 48.5443 129.075C48.5612 129.239 48.5318 129.405 48.4596 129.553C48.4328 129.623 48.3917 129.687 48.3389 129.739C48.286 129.792 48.2227 129.833 48.1529 129.86C48.024 129.907 47.8861 129.925 47.7494 129.913C47.6255 129.89 47.5029 129.861 47.3822 129.826C47.1582 129.763 46.9787 129.701 46.8576 129.656C46.797 129.627 46.7334 129.604 46.668 129.588Z" fill="#EB996E"/>
<path d="M31.0354 88.7748C31.4732 84.4048 32.3993 80.055 32.2076 75.6608L35.8009 77.9043C35.6213 79.6434 37.1849 80.9911 38.0908 82.4841C38.6329 83.3962 38.9509 84.4239 39.0186 85.4827C39.0863 86.5416 38.9017 87.6014 38.4802 88.5751C38.1574 89.3014 37.6994 89.9874 37.5804 90.7742C37.3786 92.1018 38.1997 93.4515 37.8971 94.7609C37.5501 96.268 35.7061 97.0952 34.2191 96.6715C32.7322 96.2478 31.6669 94.8557 31.2291 93.3809C30.7913 91.9061 30.8821 90.3142 31.0354 88.7748Z" fill="#263238"/>
<path d="M35.6057 77.1659C35.4069 76.0996 34.9281 75.1054 34.2185 74.285C33.5089 73.4647 32.594 72.8478 31.5674 72.4975C30.5409 72.1473 29.4397 72.0763 28.3766 72.2918C27.3136 72.5073 26.327 73.0016 25.5179 73.724C24.8622 74.3111 24.3255 75.0434 23.5669 75.4893C22.7095 75.9917 22.5985 75.8222 21.6543 76.1269C20.7101 76.4315 18.86 78.8969 18.8297 79.8896L18.0953 84.2071C18.0711 85.226 19.3422 85.8817 20.3268 85.6194C21.3113 85.3571 22.0054 84.4875 22.5703 83.6361C23.1352 82.7847 23.6718 81.8627 24.5414 81.3281C25.984 80.4424 27.8361 80.8943 29.4703 81.3281C31.1045 81.7618 33.003 82.1351 34.3629 81.1263C35.525 80.2487 35.872 78.5943 35.6057 77.1659Z" fill="#263238"/>
<path d="M36.1273 83.4203C36.1273 80.5796 34.4548 76.9944 31.6181 77.1235L22.6804 78.8183C22.2643 78.8367 21.8704 79.0107 21.5766 79.3059C21.2829 79.6012 21.1109 79.996 21.0946 80.4121L20.7576 101.697H20.6971C20.6971 101.697 23.8021 109.505 29.7337 108.04C30.9099 107.75 30.0404 104.822 30.3511 103.539L30.4096 103.551C30.4217 103.396 30.4318 103.253 30.4439 103.105C30.6175 102.145 30.6898 101.169 30.6598 100.194C30.7828 98.4812 30.8252 97.7731 30.8252 97.7953C30.8252 97.8175 34.477 97.4119 35.51 92.7413C36.0224 90.4292 36.1374 86.5777 36.1273 83.4203Z" fill="#FFBE9D"/>
<path d="M34.5488 87.1366C34.541 87.2943 34.4718 87.4427 34.3561 87.5501C34.2404 87.6575 34.0873 87.7155 33.9294 87.7116C33.852 87.7132 33.7751 87.6993 33.7032 87.6707C33.6313 87.642 33.5658 87.5993 33.5107 87.5449C33.4556 87.4906 33.4119 87.4257 33.3823 87.3542C33.3527 87.2827 33.3377 87.2059 33.3383 87.1285C33.3461 86.9708 33.4153 86.8224 33.531 86.715C33.6467 86.6076 33.7998 86.5496 33.9577 86.5535C34.0351 86.5519 34.112 86.5658 34.1839 86.5944C34.2558 86.6231 34.3213 86.6658 34.3764 86.7202C34.4315 86.7745 34.4752 86.8394 34.5048 86.9109C34.5344 86.9824 34.5494 87.0592 34.5488 87.1366Z" fill="#263238"/>
<path d="M35.1726 85.3712C35.0939 85.4459 34.6561 85.0787 34.0044 85.0424C33.3527 85.0061 32.8564 85.3006 32.7939 85.2179C32.7596 85.1796 32.8463 85.0424 33.0622 84.9032C33.3559 84.7244 33.6978 84.6412 34.0407 84.6651C34.376 84.6891 34.6951 84.8183 34.9527 85.0343C35.1544 85.1917 35.2129 85.339 35.1726 85.3712Z" fill="#263238"/>
<path d="M28.6777 86.8077C28.6699 86.9654 28.6007 87.1138 28.485 87.2212C28.3693 87.3286 28.2162 87.3866 28.0583 87.3827C27.9809 87.3843 27.904 87.3704 27.8321 87.3418C27.7602 87.3132 27.6947 87.2704 27.6396 87.216C27.5845 87.1617 27.5408 87.0968 27.5112 87.0253C27.4816 86.9538 27.4666 86.8771 27.4672 86.7996C27.475 86.6409 27.545 86.4916 27.6621 86.384C27.7791 86.2764 27.9338 86.2192 28.0926 86.2246C28.1695 86.2238 28.2458 86.2384 28.317 86.2673C28.3882 86.2963 28.453 86.3392 28.5074 86.3935C28.5619 86.4478 28.605 86.5124 28.6342 86.5835C28.6635 86.6546 28.6783 86.7308 28.6777 86.8077Z" fill="#263238"/>
<path d="M28.7674 85.109C28.6887 85.1816 28.2509 84.8164 27.5992 84.7781C26.9476 84.7397 26.4512 85.0383 26.3887 84.9536C26.3564 84.9153 26.4391 84.7781 26.657 84.6389C26.9511 84.461 27.2927 84.3779 27.6356 84.4008C27.9738 84.4212 28.2971 84.5475 28.5596 84.7619C28.7472 84.9274 28.8077 85.0747 28.7674 85.109Z" fill="#263238"/>
<path d="M30.8384 90.0782C30.8384 90.0398 31.2419 89.9954 31.9077 89.9511C32.0752 89.9511 32.2346 89.9188 32.2688 89.8078C32.2932 89.6367 32.2651 89.4622 32.1881 89.3075C32.055 88.904 31.9178 88.4661 31.7725 88.0142C31.1975 86.1702 30.794 84.659 30.8687 84.6368C30.9433 84.6147 31.4739 86.0895 32.0429 87.9315L32.4363 89.2348C32.5295 89.4409 32.5459 89.6734 32.4827 89.8905C32.4553 89.9481 32.4151 89.9986 32.365 90.0382C32.315 90.0777 32.2566 90.1052 32.1942 90.1185C32.1007 90.138 32.0051 90.1455 31.9097 90.1407C31.248 90.1367 30.8384 90.1145 30.8384 90.0782Z" fill="#263238"/>
<path d="M30.8252 97.8074C28.6026 97.7066 26.4516 96.9915 24.6111 95.7414C24.6111 95.7414 26.0073 99.1208 30.7526 98.9695L30.8252 97.8074Z" fill="#EB996E"/>
<path d="M30.4689 91.6296C30.3547 91.4661 30.2006 91.3345 30.0212 91.2473C29.8419 91.1601 29.6432 91.1201 29.444 91.1313C29.2997 91.1349 29.1576 91.1678 29.0265 91.2282C28.8954 91.2886 28.7779 91.3751 28.6814 91.4824C28.5877 91.5855 28.528 91.7149 28.5103 91.8532C28.4926 91.9914 28.5178 92.1317 28.5825 92.2551C28.6798 92.3782 28.8117 92.4696 28.9612 92.5174C29.1107 92.5652 29.2711 92.5673 29.4218 92.5234C29.736 92.4332 30.029 92.2809 30.2833 92.0755C30.3616 92.0285 30.4301 91.9669 30.4851 91.8939C30.5111 91.8595 30.5264 91.8181 30.5289 91.775C30.5314 91.7319 30.5211 91.689 30.4992 91.6518" fill="#EB996E"/>
<path d="M28.8999 90.4131C29.0069 90.4131 28.9665 91.1192 29.5395 91.6559C30.1125 92.1925 30.8711 92.1623 30.8711 92.2611C30.8711 92.3055 30.6956 92.3882 30.3768 92.3782C29.9625 92.3594 29.5681 92.1951 29.2631 91.9141C28.9706 91.644 28.7947 91.2706 28.7728 90.8731C28.7587 90.5765 28.8495 90.405 28.8999 90.4131Z" fill="#263238"/>
<path d="M29.0795 82.6415C29.0048 82.815 28.3592 82.6919 27.5905 82.7383C26.8218 82.7847 26.1904 82.9542 26.0996 82.7888C26.0592 82.7101 26.1762 82.5507 26.4345 82.3853C26.7797 82.1951 27.1637 82.0861 27.5573 82.0666C27.9509 82.047 28.3439 82.1173 28.7062 82.2723C28.9786 82.4115 29.1017 82.5588 29.0795 82.6415Z" fill="#263238"/>
<path d="M35.0489 83.4727C34.9258 83.614 34.486 83.4344 33.9473 83.394C33.4086 83.3537 32.9385 83.4344 32.8497 83.273C32.8074 83.1943 32.8881 83.0511 33.0979 82.924C33.3757 82.7715 33.6927 82.7054 34.0083 82.7342C34.3238 82.7629 34.6236 82.8852 34.8693 83.0854C35.0509 83.2488 35.1034 83.4041 35.0489 83.4727Z" fill="#263238"/>
<path d="M31.5373 75.909L31.1701 75.3723C28.4266 75.5145 25.715 76.0289 23.11 76.9016C22.069 77.2506 21.0118 77.6804 20.2653 78.4854C19.2363 79.591 18.9841 81.1889 18.7824 82.6859C18.0117 88.3814 17.3015 94.2545 18.7622 99.8148C19.2383 99.145 20.1059 98.8847 20.921 98.7778C21.7361 98.6709 22.5855 98.6749 23.342 98.346C23.7529 98.1579 24.1199 97.8859 24.4194 97.5474C24.719 97.209 24.9444 96.8117 25.0812 96.381C25.3507 95.5117 25.3057 94.5754 24.9541 93.736C24.5728 92.8018 23.8485 91.8778 24.1006 90.9114C24.3649 89.8885 25.5896 89.37 25.9326 88.3713C26.5237 86.6443 24.1571 84.9132 24.7644 83.1923C24.9904 82.5568 25.5835 82.121 26.205 81.8587C26.8264 81.5964 27.4962 81.4693 28.1236 81.2252C29.1669 80.793 30.0531 80.0521 30.6633 79.1018C31.2735 78.1516 31.5785 77.0375 31.5373 75.909Z" fill="#263238"/>
<path d="M17.5803 78.7234C20.5138 74.6117 22.5011 74.1133 25.2611 73.96L21.4278 82.5547C20.8528 83.9388 20.0619 85.6174 19.9388 87.1083C19.7936 88.8777 20.4069 90.3586 21.228 91.9303C22.2126 93.8187 23.294 95.6183 24.9867 96.9096C26.6795 98.2008 30.4482 99.8249 32.4053 98.9876L29.6755 100.515L23.1548 100.539L15.5587 100.569C15.5587 100.569 14.671 99.7906 13.8902 97.7811C11.9312 92.7474 14.3078 83.3093 17.5803 78.7234Z" fill="#FF725E"/>
<path d="M12.1706 105.504C12.1706 105.504 13.8048 102.151 15.9374 100.307C18.0699 98.4631 19.3793 98.4812 22.4218 98.7395C25.4643 98.9977 29.7213 99.4779 30.7301 99.2217L30.8249 97.8094C31.3253 97.7589 33.3771 96.7603 33.7766 96.157C34.5392 96.9378 34.8721 97.771 34.6986 98.6567L35.1969 98.8444C35.9321 99.1133 36.5425 99.6435 36.9116 100.334C37.2808 101.024 37.3828 101.826 37.1983 102.587C37.0087 103.313 36.5507 103.759 35.6307 103.918C31.9789 104.55 22.216 101.911 19.2764 101.901C16.3369 101.891 12.1706 105.504 12.1706 105.504Z" fill="#FF725E"/>
<path d="M35.9609 103.88C35.8753 103.878 35.7896 103.882 35.7047 103.894C35.5393 103.91 35.3012 103.937 34.9804 103.959C34.0904 104.028 33.197 104.043 32.3051 104.003C30.9839 103.935 29.6706 103.757 28.379 103.471C27.6486 103.311 26.888 103.118 26.1072 102.892L23.6983 102.147C22.0459 101.645 20.3895 101.302 18.8743 101.451C17.5394 101.573 16.2474 101.986 15.0894 102.662C14.3119 103.117 13.609 103.689 13.0052 104.358C12.8412 104.539 12.6876 104.729 12.5452 104.927C12.4925 104.991 12.4446 105.058 12.402 105.129C12.4656 105.073 12.5225 105.009 12.5715 104.939C12.6744 104.808 12.8378 104.625 13.0537 104.395C14.5933 102.782 16.6674 101.785 18.8884 101.59C20.3733 101.453 22.0035 101.792 23.6498 102.292C24.475 102.541 25.276 102.805 26.0608 103.033C26.8456 103.261 27.6103 103.45 28.3467 103.606C29.6476 103.888 30.9709 104.056 32.3011 104.106C33.1974 104.136 34.0948 104.103 34.9865 104.007C35.3012 103.975 35.5453 103.939 35.7087 103.912C35.7936 103.909 35.878 103.898 35.9609 103.88Z" fill="#263238"/>
<path d="M11.9945 104.403C15.6786 99.6131 22.742 97.7831 28.2903 100.18L34.1412 101.421C35.6846 101.687 38.1602 102.189 38.2772 103.62C38.3841 105.135 38.0543 106.649 37.3269 107.982C35.9671 110.35 36.7055 113.524 35.3457 115.893C34.7041 117.012 34.0484 118.148 33.1123 119.038C32.1761 119.928 30.9051 120.551 29.6219 120.412C28.1935 120.259 27.0233 119.215 26.1154 118.102C24.1604 115.703 22.9398 112.79 21.1098 110.296C19.2799 107.802 17.1211 105.966 13.2757 105.73C12.5776 105.686 10.5863 106.616 10.5863 106.616C10.5298 106.333 11.819 104.627 11.9945 104.403Z" fill="#FF725E"/>
<g opacity="0.3">
<path opacity="0.3" d="M19.8694 101.554C22.4136 101.554 24.9133 102.777 27.3788 103.321C37.2971 105.504 37.2971 101.764 37.2971 101.764C37.6078 103.521 35.9574 104.328 34.2203 104.732C30.9034 105.498 27.3606 105.91 24.9678 105.145C23.039 104.54 21.0255 104.09 19.0786 103.531C17.1316 102.972 14.3272 103.186 12.8524 104.57C14.1719 102.401 17.3253 101.548 19.8694 101.554Z" fill="black"/>
</g>
<g opacity="0.3">
<path opacity="0.3" d="M32.7589 101.286C32.6404 101.545 32.4673 101.777 32.2515 101.964C32.0356 102.151 31.7821 102.289 31.508 102.369C30.9587 102.527 30.3836 102.577 29.8153 102.514C27.7413 102.373 25.7479 101.681 23.7848 100.995C25.3545 100.941 26.8737 101.487 28.4131 101.802C29.9525 102.117 31.6876 102.137 32.9385 101.197" fill="black"/>
</g>
<path d="M11.4955 105.938C11.4955 105.938 11.5137 105.924 11.5419 105.894L11.665 105.752C11.7719 105.625 11.9353 105.448 12.1512 105.222C12.759 104.583 13.4936 104.078 14.308 103.739C14.8763 103.525 15.4732 103.395 16.0794 103.356C16.7744 103.299 17.4735 103.322 18.1635 103.422C19.6283 103.624 21.1757 104.138 22.818 104.606C24.4603 105.075 26.0279 105.563 27.5189 105.641C28.8334 105.698 30.15 105.604 31.443 105.361C32.5446 105.159 33.4223 104.925 34.0295 104.774L34.7276 104.596L34.9072 104.548L34.9697 104.528C34.9483 104.525 34.9266 104.525 34.9052 104.528L34.7216 104.566L34.0195 104.726C33.4142 104.865 32.5305 105.085 31.4289 105.278C30.1414 105.511 28.8319 105.597 27.525 105.537C26.0501 105.454 24.4805 104.988 22.8463 104.498C21.212 104.007 19.6545 103.513 18.1776 103.317C17.4799 103.219 16.7733 103.2 16.0713 103.261C15.3185 103.304 14.5818 103.496 13.904 103.827C13.2262 104.157 12.6208 104.619 12.123 105.186C11.9091 105.418 11.7497 105.599 11.6488 105.73L11.5338 105.878L11.4955 105.938Z" fill="black"/>
<path d="M15.2008 101.003C15.216 100.993 15.2302 100.982 15.2431 100.969L15.3602 100.862C15.459 100.765 15.6144 100.63 15.8161 100.458C16.3972 99.9888 17.0342 99.5931 17.7126 99.2802C18.7195 98.8189 19.79 98.5115 20.8882 98.3682C22.2344 98.2011 23.5962 98.2045 24.9415 98.3783C26.288 98.5563 27.6242 98.8055 28.9443 99.1248C29.5276 99.2618 30.1283 99.3095 30.7258 99.2661C31.2513 99.2268 31.7559 99.0439 32.1845 98.7375C32.5285 98.4762 32.8224 98.155 33.0521 97.7892C33.2254 97.5163 33.3758 97.2295 33.502 96.9318C33.6049 96.6876 33.6735 96.4919 33.7179 96.3588L33.7643 96.2075C33.7709 96.1907 33.775 96.173 33.7764 96.155C33.7764 96.155 33.7663 96.1711 33.7542 96.2034C33.7421 96.2357 33.7199 96.2922 33.6977 96.3527C33.6472 96.4818 33.5726 96.6735 33.4636 96.9156C33.3319 97.2077 33.1774 97.489 33.0016 97.7569C32.7717 98.1126 32.4799 98.4242 32.1401 98.6769C31.7197 98.9706 31.2273 99.1442 30.7157 99.1793C30.1278 99.2175 29.5375 99.1671 28.9645 99.03C27.6426 98.704 26.3036 98.4521 24.9536 98.2754C23.5994 98.1007 22.2283 98.1007 20.8741 98.2754C19.7679 98.4255 18.6909 98.7432 17.6803 99.2176C16.9999 99.5366 16.3643 99.9436 15.7899 100.428C15.6342 100.56 15.4854 100.7 15.344 100.848L15.2351 100.961C15.2109 100.989 15.1988 101.001 15.2008 101.003Z" fill="black"/>
<path d="M16.3908 100.904H16.4412L16.5905 100.88L17.1655 100.785C17.8702 100.677 18.58 100.605 19.292 100.569C20.3489 100.517 21.4082 100.551 22.4596 100.67C23.7459 100.843 25.0206 101.093 26.2768 101.419C27.6164 101.742 28.9198 102.024 30.1283 102.006C30.6987 102.009 31.2674 101.942 31.821 101.804C32.3038 101.668 32.7503 101.426 33.1284 101.096C33.6709 100.622 34.1116 100.043 34.4237 99.3932C34.5424 99.1581 34.6364 98.9113 34.7041 98.6568C34.6945 98.6711 34.687 98.6867 34.6819 98.7032L34.6274 98.8444C34.577 98.9695 34.5003 99.149 34.3874 99.373C34.0648 100.009 33.6206 100.575 33.08 101.039C32.7076 101.357 32.2703 101.589 31.7988 101.719C31.2521 101.852 30.6909 101.917 30.1283 101.911C28.9339 101.911 27.6407 101.643 26.2949 101.318C25.034 100.989 23.7537 100.74 22.4616 100.571C21.405 100.458 20.3408 100.431 19.2799 100.493C18.5656 100.534 17.8542 100.617 17.1494 100.741C16.8992 100.787 16.7076 100.826 16.5764 100.856L16.4291 100.89C16.4049 100.896 16.3908 100.902 16.3908 100.904Z" fill="black"/>
<path d="M16.2058 91.8496C16.2239 91.9641 16.2495 92.0773 16.2825 92.1885C16.314 92.3211 16.3531 92.4518 16.3995 92.5799C16.452 92.7312 16.5024 92.9047 16.5831 93.0883C16.6638 93.2719 16.7425 93.4777 16.8494 93.6936C16.9564 93.9095 17.0754 94.1253 17.2066 94.3574C17.7957 95.349 18.5623 96.2238 19.4682 96.9378C19.6801 97.0992 19.8717 97.2546 20.0735 97.3796C20.2753 97.5047 20.4568 97.6238 20.6324 97.7226C20.8079 97.8215 20.9693 97.9022 21.1105 97.9728C21.2314 98.0361 21.3561 98.092 21.4838 98.1403C21.5889 98.1886 21.6975 98.2291 21.8086 98.2613C21.7101 98.2006 21.6069 98.1479 21.4999 98.1039C21.399 98.0575 21.276 97.999 21.1367 97.9203C20.9975 97.8417 20.8361 97.767 20.6687 97.6581C20.5012 97.5491 20.3116 97.4442 20.1219 97.307C19.9323 97.1698 19.7325 97.0225 19.5167 96.8632C18.628 96.1461 17.8703 95.2806 17.2772 94.3049C17.146 94.0769 17.0169 93.8631 16.916 93.6532C16.8152 93.4434 16.7143 93.2497 16.6396 93.0641C16.565 92.8785 16.5004 92.7131 16.4379 92.5658C16.3753 92.4185 16.339 92.2874 16.3067 92.1824C16.2826 92.0688 16.2489 91.9574 16.2058 91.8496Z" fill="black"/>
<path d="M16.5101 103.876C16.5649 103.876 16.6196 103.871 16.6736 103.862L16.8753 103.836C16.952 103.826 17.0428 103.836 17.1416 103.822C17.7122 103.808 18.2806 103.896 18.8202 104.082C19.1923 104.21 19.5545 104.365 19.9037 104.546C20.3036 104.757 20.6922 104.988 21.0678 105.24C21.8627 105.771 22.6939 106.42 23.5857 107.076L28.1373 110.455L29.5274 111.464L29.9087 111.726C29.9511 111.761 29.9971 111.791 30.0459 111.815C30.0074 111.777 29.9663 111.742 29.9228 111.71L29.5536 111.424L28.1837 110.385L23.6442 106.991C22.7525 106.338 21.9212 105.688 21.1162 105.159C20.7368 104.908 20.3442 104.677 19.94 104.467C19.5846 104.288 19.2164 104.136 18.8384 104.011C18.29 103.83 17.7125 103.752 17.1356 103.781C17.0347 103.781 16.9439 103.791 16.8673 103.803L16.6655 103.84C16.6127 103.847 16.5608 103.859 16.5101 103.876Z" fill="black"/>
<path d="M9.99902 110.062C10.0381 109.97 10.0679 109.875 10.0878 109.777C10.1362 109.594 10.2048 109.326 10.3017 108.999C10.4106 108.615 10.5488 108.241 10.7152 107.879C10.9175 107.438 11.1939 107.036 11.5324 106.689C11.8691 106.34 12.2903 106.085 12.755 105.948C13.1374 105.846 13.5348 105.811 13.9292 105.845C14.2943 105.886 14.6567 105.948 15.0146 106.031C14.993 106.016 14.9691 106.006 14.944 105.999C14.8956 105.98 14.825 105.956 14.7423 105.93C14.4789 105.852 14.2087 105.799 13.9353 105.773C13.5301 105.725 13.1197 105.753 12.7247 105.855C12.2417 105.992 11.8033 106.254 11.4537 106.614C11.1063 106.97 10.8248 107.384 10.6224 107.839C10.4571 108.207 10.3221 108.588 10.2189 108.978C10.1322 109.309 10.0737 109.584 10.0374 109.769C10.0161 109.866 10.0033 109.963 9.99902 110.062Z" fill="black"/>
</svg>
