<svg width="146" height="60" viewBox="0 0 146 60" fill="none" xmlns="http://www.w3.org/2000/svg">
<rect width="146" height="60" rx="18" fill="#9964EF" fill-opacity="0.2"/>
<path d="M51.1206 32.55C51.1206 33.234 51.0126 33.864 50.7966 34.44C50.5926 35.028 50.2926 35.538 49.8966 35.97C49.5126 36.402 49.0386 36.738 48.4746 36.978C47.9226 37.23 47.3046 37.356 46.6206 37.356H45.4866C44.1426 37.356 43.0986 36.942 42.3546 36.114C41.6106 35.286 41.2386 34.152 41.2386 32.712V29.49H43.0566V32.64C43.0566 33.06 43.1046 33.438 43.2006 33.774C43.2966 34.11 43.4466 34.398 43.6506 34.638C43.8666 34.878 44.1426 35.064 44.4786 35.196C44.8266 35.328 45.2466 35.394 45.7386 35.394H46.5306C47.0346 35.394 47.4606 35.316 47.8086 35.16C48.1686 35.016 48.4566 34.812 48.6726 34.548C48.9006 34.296 49.0626 33.996 49.1586 33.648C49.2546 33.312 49.3026 32.952 49.3026 32.568V27.726H51.1206V32.55ZM46.8906 27.456H44.8566V25.62H46.8906V27.456ZM59.408 28.5C59.732 28.872 59.966 29.244 60.11 29.616C60.266 29.976 60.344 30.33 60.344 30.678C60.344 31.002 60.284 31.308 60.164 31.596C60.056 31.872 59.888 32.118 59.66 32.334C59.432 32.538 59.144 32.7 58.796 32.82C58.46 32.94 58.07 33 57.626 33H52.82L52.73 31.02H57.32C57.908 31.02 58.202 30.798 58.202 30.354C58.202 30.138 58.1 29.916 57.896 29.688L54.836 26.196L56.258 24.864L59.408 28.5ZM63.7795 35.394C64.2355 35.394 64.6255 35.328 64.9495 35.196C65.2855 35.076 65.5615 34.908 65.7775 34.692C65.9935 34.476 66.1615 34.218 66.2815 33.918C66.4015 33.63 66.4735 33.324 66.4975 33H65.2735C64.6495 33 64.1395 32.934 63.7435 32.802C63.3475 32.67 63.0355 32.478 62.8075 32.226C62.5795 31.962 62.4175 31.644 62.3215 31.272C62.2375 30.9 62.1955 30.48 62.1955 30.012C62.1955 29.544 62.2615 29.106 62.3935 28.698C62.5255 28.278 62.7175 27.912 62.9695 27.6C63.2335 27.288 63.5575 27.042 63.9415 26.862C64.3255 26.67 64.7695 26.574 65.2735 26.574C65.6815 26.574 66.0655 26.64 66.4255 26.772C66.7975 26.904 67.1215 27.114 67.3975 27.402C67.6735 27.69 67.8895 28.062 68.0455 28.518C68.2135 28.974 68.2975 29.532 68.2975 30.192V32.712C68.2975 33.324 68.1955 33.912 67.9915 34.476C67.7875 35.04 67.4935 35.532 67.1095 35.952C66.7375 36.384 66.2755 36.726 65.7235 36.978C65.1715 37.23 64.5535 37.356 63.8695 37.356H62.0515L61.9435 35.394H63.7795ZM63.9595 29.886C63.9595 30.306 64.0495 30.6 64.2295 30.768C64.4215 30.936 64.7935 31.02 65.3455 31.02H66.5335V30.174C66.5335 29.55 66.4135 29.112 66.1735 28.86C65.9455 28.608 65.6215 28.482 65.2015 28.482C64.8055 28.482 64.4995 28.602 64.2835 28.842C64.0675 29.082 63.9595 29.43 63.9595 29.886ZM73.5368 29.868C73.5368 30.252 73.6568 30.54 73.8968 30.732C74.1368 30.924 74.4368 31.02 74.7968 31.02H74.9948C75.2588 31.02 75.3908 31.338 75.3908 31.974C75.3908 32.658 75.2588 33 74.9948 33H74.7968C74.5568 33 74.3108 32.964 74.0588 32.892C73.8188 32.808 73.6148 32.646 73.4468 32.406V32.712C73.4468 33.36 73.3388 33.966 73.1228 34.53C72.9068 35.094 72.6068 35.586 72.2228 36.006C71.8508 36.426 71.4008 36.756 70.8728 36.996C70.3568 37.236 69.7928 37.356 69.1808 37.356H68.7308L68.5868 35.394H68.8748C69.3788 35.394 69.8108 35.316 70.1708 35.16C70.5308 35.016 70.8188 34.818 71.0348 34.566C71.2628 34.314 71.4308 34.026 71.5388 33.702C71.6468 33.378 71.7008 33.048 71.7008 32.712V27.726H73.5368V29.868ZM73.3388 25.62H71.3048V23.784H73.3388V25.62ZM76.6063 31.02C76.7983 31.02 76.9663 31.026 77.1103 31.038C77.2543 31.038 77.3863 31.044 77.5063 31.056C77.6383 31.068 77.7643 31.086 77.8843 31.11C78.0043 31.134 78.1363 31.164 78.2803 31.2C77.8603 31.02 77.5243 30.834 77.2723 30.642C77.0323 30.438 76.8463 30.222 76.7143 29.994C76.5823 29.766 76.4923 29.52 76.4443 29.256C76.4083 28.98 76.3903 28.68 76.3903 28.356C76.3903 28.032 76.4503 27.696 76.5703 27.348C76.7023 27 76.8943 26.688 77.1463 26.412C77.3983 26.136 77.7103 25.908 78.0823 25.728C78.4663 25.548 78.9043 25.458 79.3963 25.458C79.8643 25.458 80.2843 25.518 80.6563 25.638C81.0403 25.758 81.3703 25.956 81.6463 26.232C81.9223 26.508 82.1323 26.874 82.2763 27.33C82.4323 27.774 82.5103 28.326 82.5103 28.986V29.904C82.5103 30.876 82.2283 31.638 81.6643 32.19C81.1123 32.73 80.2363 33 79.0363 33H74.9863C74.8303 33 74.7283 32.922 74.6803 32.766C74.6203 32.598 74.5903 32.358 74.5903 32.046C74.5903 31.698 74.6203 31.44 74.6803 31.272C74.7283 31.104 74.8303 31.02 74.9863 31.02H76.6063ZM79.3243 27.438C78.9043 27.438 78.5923 27.576 78.3883 27.852C78.1843 28.116 78.0823 28.398 78.0823 28.698C78.0823 28.866 78.1003 29.028 78.1363 29.184C78.1843 29.328 78.2863 29.478 78.4423 29.634C78.5983 29.79 78.8323 29.958 79.1443 30.138C79.4563 30.318 79.8883 30.522 80.4403 30.75C80.5363 30.63 80.6083 30.468 80.6563 30.264C80.7163 30.048 80.7463 29.838 80.7463 29.634V29.166C80.7463 28.662 80.6443 28.248 80.4403 27.924C80.2363 27.6 79.8643 27.438 79.3243 27.438ZM80.4043 23.964H78.3703V22.128H80.4043V23.964ZM84.611 21.84H86.447V33H84.611V21.84Z" fill="#9964EF"/>
<path d="M116.95 25.0503C119.683 27.7839 119.683 32.2161 116.95 34.9497C114.216 37.6834 109.784 37.6834 107.05 34.9497C104.317 32.2161 104.317 27.7839 107.05 25.0503C109.784 22.3166 114.216 22.3166 116.95 25.0503Z" stroke="#9964EF" stroke-width="1.5" stroke-linecap="round" stroke-linejoin="round"/>
<path d="M112 27.67V32.33" stroke="#9964EF" stroke-width="1.5" stroke-linecap="round" stroke-linejoin="round"/>
<path d="M114.33 30H109.67" stroke="#9964EF" stroke-width="1.5" stroke-linecap="round" stroke-linejoin="round"/>
<path d="M103.017 24C101.757 25.672 101 27.745 101 30C101 32.255 101.757 34.328 103.017 36" stroke="#9964EF" stroke-width="1.5" stroke-linecap="round" stroke-linejoin="round"/>
</svg>
