<svg width="143" height="50" viewBox="0 0 143 50" fill="none" xmlns="http://www.w3.org/2000/svg">
<rect width="143" height="50" rx="10" fill="black"/>
<path fill-rule="evenodd" clip-rule="evenodd" d="M68.0938 12H68.9824V18.2607H68.0938V12ZM46.8262 12.294C47.2158 12.266 47.6068 12.3249 47.9709 12.4663C48.335 12.6078 48.6632 12.8282 48.9318 13.1119C49.2003 13.3955 49.4026 13.7352 49.524 14.1065C49.6454 14.4777 49.6829 14.8713 49.6338 15.2588C49.6338 17.1651 48.6035 18.2608 46.8262 18.2608H44.6709V12.294H46.8262ZM45.5977 17.417H46.7227C47.0011 17.4336 47.2797 17.388 47.5382 17.2834C47.7968 17.1788 48.0287 17.0178 48.2172 16.8123C48.4057 16.6067 48.546 16.3617 48.6279 16.0951C48.7097 15.8284 48.7311 15.5469 48.6904 15.271C48.7281 14.9962 48.7046 14.7164 48.6215 14.4517C48.5384 14.1871 48.3977 13.9441 48.2097 13.7401C48.0216 13.5362 47.7908 13.3764 47.5337 13.2722C47.2766 13.1679 46.9997 13.1218 46.7227 13.1372H45.5977V17.417ZM83.6792 32.6391C82.0445 32.6391 80.8482 31.8306 80.7105 30.5991L78.8081 30.599C78.9282 32.8451 80.7876 34.266 83.5415 34.266C86.4849 34.266 88.3354 32.811 88.3354 30.4877C88.3354 28.6713 87.2768 27.6479 84.729 27.0453L83.3608 26.7094C81.7603 26.3139 81.106 25.7973 81.106 24.9194C81.106 23.8178 82.1304 23.061 83.6274 23.061C85.1245 23.061 86.1489 23.809 86.2612 25.0483H88.1372C88.0767 22.9057 86.2778 21.434 83.6538 21.434C81.0025 21.434 79.1353 22.9057 79.1353 25.0483C79.1353 26.7788 80.1939 27.8452 82.4742 28.396L84.0835 28.7837C85.6929 29.1792 86.3726 29.7563 86.3726 30.7202C86.3726 31.8305 85.2456 32.6391 83.6792 32.6391ZM46.5689 30.7027H51.3023L52.438 34.0591H54.4771L49.9937 21.6411H47.9107L43.4273 34.0591H45.4322L46.5689 30.7027ZM50.8111 29.1538H47.0591L48.9097 23.7066H48.9615L50.8111 29.1538ZM60.3814 34.1538C62.6538 34.1538 64.1597 32.3462 64.1597 29.5327C64.1597 26.7271 62.645 24.9107 60.3472 24.9107C59.7669 24.8919 59.1923 25.0309 58.6847 25.3127C58.1771 25.5946 57.7553 26.0088 57.4644 26.5112H57.4302V25.0054H55.6313V37.0542H57.4897V32.5698H57.5327C57.8109 33.0747 58.2256 33.4911 58.7294 33.7712C59.2332 34.0513 59.8057 34.1839 60.3814 34.1538ZM59.8569 26.4946C61.3023 26.4946 62.2495 27.6997 62.2495 29.5327C62.2495 31.3823 61.3023 32.5786 59.8569 32.5786C58.437 32.5786 57.4819 31.357 57.4819 29.5327C57.4819 27.7251 58.437 26.4946 59.8569 26.4946ZM74.1245 29.5327C74.1245 32.3462 72.6187 34.1538 70.3462 34.1538C69.7706 34.1839 69.1981 34.0513 68.6943 33.7712C68.1905 33.4911 67.7757 33.0747 67.4976 32.5698H67.4546V37.0542H65.5962V25.0054H67.395V26.5112H67.4292C67.7201 26.0088 68.1419 25.5946 68.6495 25.3127C69.1571 25.0309 69.7317 24.8919 70.312 24.9107C72.6099 24.9107 74.1245 26.7271 74.1245 29.5327ZM72.2144 29.5327C72.2144 27.6997 71.2671 26.4946 69.8218 26.4946C68.4019 26.4946 67.4468 27.7251 67.4468 29.5327C67.4468 31.357 68.4019 32.5786 69.8218 32.5786C71.2671 32.5786 72.2144 31.3823 72.2144 29.5327ZM92.3462 22.8628V25.0054H94.0679V26.4771H92.3462V31.4683C92.3462 32.2437 92.6909 32.605 93.4478 32.605C93.6522 32.6014 93.8562 32.5871 94.0591 32.562V34.0249C93.7188 34.0885 93.373 34.1173 93.0269 34.1108C91.1939 34.1108 90.479 33.4223 90.479 31.6665V26.4771H89.1626V25.0054H90.479V22.8628H92.3462ZM99.3589 24.8941C96.7427 24.8941 95.065 26.6841 95.065 29.5327C95.065 32.3892 96.7261 34.1714 99.3589 34.1714C101.993 34.1714 103.654 32.3892 103.654 29.5327C103.654 26.6841 101.984 24.8941 99.3589 24.8941ZM99.3589 26.4253C100.865 26.4253 101.76 27.5786 101.76 29.5327C101.76 31.4946 100.865 32.6392 99.3589 32.6392C97.8531 32.6392 96.9585 31.4946 96.9585 29.5327C96.9585 27.5874 97.8531 26.4253 99.3589 26.4253ZM105.186 25.0054H106.959V26.5464H107.002C107.121 26.0651 107.403 25.6398 107.8 25.3419C108.197 25.044 108.684 24.8917 109.179 24.9106C109.393 24.9099 109.607 24.9332 109.816 24.98V26.7183C109.546 26.6357 109.264 26.5977 108.981 26.606C108.711 26.595 108.442 26.6426 108.192 26.7455C107.942 26.8484 107.718 27.0041 107.534 27.202C107.35 27.3999 107.211 27.6353 107.126 27.8919C107.042 28.1486 107.014 28.4205 107.044 28.689V34.0591H105.186L105.186 25.0054ZM114.486 34.1714C116.534 34.1714 118.134 33.0435 118.384 31.3999L116.62 31.3999C116.455 31.809 116.162 32.1539 115.785 32.3833C115.409 32.6128 114.968 32.7145 114.529 32.6733C114.195 32.6857 113.861 32.6267 113.552 32.5004C113.242 32.3741 112.963 32.1833 112.732 31.9408C112.502 31.6982 112.326 31.4094 112.216 31.0936C112.105 30.7778 112.064 30.4421 112.093 30.1089V29.9966H118.488V29.3599C118.488 26.6148 116.913 24.8941 114.408 24.8941C111.861 24.8941 110.217 26.7359 110.217 29.5757C110.217 32.4067 111.852 34.1714 114.486 34.1714ZM116.628 28.6978H112.102C112.101 28.3951 112.16 28.0953 112.276 27.8157C112.392 27.536 112.562 27.2821 112.776 27.0684C112.99 26.8548 113.245 26.6857 113.525 26.571C113.805 26.4563 114.105 26.3981 114.408 26.3999C114.708 26.3935 115.006 26.4491 115.283 26.5633C115.561 26.6775 115.812 26.8479 116.02 27.0636C116.229 27.2794 116.39 27.5359 116.495 27.8172C116.6 28.0984 116.645 28.3982 116.628 28.6978ZM50.7801 15.1308C50.6862 15.4129 50.6524 15.7114 50.6807 16.0073C50.6518 16.3036 50.6853 16.6025 50.7789 16.8851C50.8725 17.1676 51.0241 17.4274 51.2241 17.6478C51.4241 17.8682 51.668 18.0444 51.9401 18.1649C52.2123 18.2854 52.5066 18.3477 52.8042 18.3477C53.1018 18.3477 53.3962 18.2854 53.6683 18.1649C53.9404 18.0444 54.1843 17.8682 54.3843 17.6478C54.5843 17.4274 54.736 17.1676 54.8296 16.8851C54.9231 16.6025 54.9566 16.3036 54.9277 16.0073C54.9561 15.7114 54.9222 15.4129 54.8284 15.1308C54.7345 14.8487 54.5828 14.5894 54.3828 14.3694C54.1829 14.1494 53.9392 13.9736 53.6673 13.8534C53.3955 13.7331 53.1015 13.671 52.8042 13.671C52.5069 13.671 52.213 13.7331 51.9411 13.8534C51.6693 13.9736 51.4255 14.1494 51.2256 14.3694C51.0257 14.5894 50.8739 14.8487 50.7801 15.1308ZM52.8057 14.4605C53.5752 14.4605 54.0137 15.0313 54.0137 16.0073C54.0137 16.9873 53.5752 17.5576 52.8057 17.5576C52.0332 17.5576 51.5987 16.9912 51.5987 16.0074C51.5987 15.0313 52.0332 14.4605 52.8057 14.4605ZM60.5733 18.2608H59.6514L58.7207 14.9443H58.6504L57.7237 18.2608H56.8106L55.5694 13.7578H56.4707L57.2774 17.1938H57.3438L58.2696 13.7578H59.1221L60.0479 17.1938H60.1182L60.9209 13.7578H61.8096L60.5733 18.2608ZM63.709 13.7578H62.8535L62.8535 18.2608H63.7422V15.6265C63.7264 15.4784 63.7429 15.3287 63.7904 15.1875C63.8379 15.0464 63.9154 14.9172 64.0176 14.8088C64.1197 14.7004 64.244 14.6154 64.3821 14.5596C64.5201 14.5038 64.6686 14.4784 64.8174 14.4854C65.4746 14.4854 65.7891 14.8452 65.7891 15.5689V18.2607H66.6777V15.3457C66.7099 15.1284 66.6928 14.9066 66.6276 14.6967C66.5624 14.4869 66.4508 14.2945 66.3011 14.1336C66.1514 13.9728 65.9675 13.8477 65.7629 13.7676C65.5583 13.6875 65.3383 13.6544 65.1192 13.6709C64.8395 13.6482 64.5598 13.7133 64.3189 13.8571C64.0781 14.0009 63.8881 14.2162 63.7754 14.4732H63.709V13.7578ZM70.3172 15.1307C70.2234 15.4128 70.1895 15.7114 70.2178 16.0073C70.189 16.3036 70.2225 16.6026 70.3161 16.8851C70.4097 17.1676 70.5614 17.4274 70.7614 17.6478C70.9614 17.8682 71.2053 18.0444 71.4775 18.1649C71.7496 18.2854 72.0439 18.3477 72.3416 18.3477C72.6392 18.3477 72.9335 18.2854 73.2057 18.1649C73.4778 18.0444 73.7217 17.8682 73.9217 17.6478C74.1217 17.4274 74.2734 17.1676 74.3671 16.8851C74.4607 16.6026 74.4942 16.3036 74.4653 16.0073C74.4936 15.7114 74.4598 15.4128 74.3659 15.1307C74.272 14.8487 74.1203 14.5893 73.9203 14.3693C73.7203 14.1493 73.4766 13.9736 73.2047 13.8533C72.9329 13.733 72.6389 13.6709 72.3416 13.6709C72.0443 13.6709 71.7503 13.733 71.4784 13.8533C71.2065 13.9736 70.9628 14.1493 70.7628 14.3693C70.5629 14.5893 70.4111 14.8487 70.3172 15.1307ZM72.3428 14.4605C73.1123 14.4605 73.5508 15.0313 73.5508 16.0073C73.5508 16.9873 73.1123 17.5576 72.3428 17.5576C71.5704 17.5576 71.1358 16.9912 71.1358 16.0074C71.1358 15.0313 71.5703 14.4605 72.3428 14.4605ZM75.4009 16.9873C75.4009 16.1768 76.0044 15.7095 77.0757 15.6431L78.2954 15.5728V15.1841C78.2954 14.7085 77.981 14.44 77.3736 14.44C76.8775 14.44 76.5337 14.6221 76.4351 14.9405H75.5747C75.6656 14.167 76.3931 13.6709 77.4146 13.6709C78.5435 13.6709 79.1802 14.2329 79.1802 15.1841V18.2608H78.3247V17.628H78.2544C78.1117 17.8549 77.9113 18.04 77.6737 18.1642C77.4361 18.2884 77.1697 18.3473 76.9019 18.335C76.7128 18.3546 76.5218 18.3344 76.341 18.2757C76.1603 18.2171 75.9938 18.1211 75.8524 17.9942C75.711 17.8672 75.5977 17.712 75.52 17.5386C75.4422 17.3652 75.4016 17.1774 75.4009 16.9873ZM78.2954 16.6026V16.2261L77.1958 16.2964C76.5757 16.3379 76.2944 16.5488 76.2944 16.9458C76.2944 17.3511 76.646 17.5869 77.1294 17.5869C77.2711 17.6013 77.4142 17.587 77.5502 17.5449C77.6862 17.5028 77.8123 17.4338 77.9211 17.3419C78.0299 17.2501 78.1191 17.1373 78.1834 17.0103C78.2477 16.8833 78.2858 16.7446 78.2954 16.6026ZM82.2173 13.6831C81.0796 13.6831 80.3482 14.5845 80.3482 16.0073C80.3482 17.4336 81.0718 18.335 82.2173 18.3349C82.5023 18.3455 82.7846 18.2778 83.0339 18.1393C83.2831 18.0008 83.4898 17.7968 83.6314 17.5493H83.7017V18.2607H84.5532V12H83.6646V14.4731H83.5982C83.4667 14.224 83.2671 14.0173 83.0225 13.8775C82.778 13.7376 82.4987 13.6702 82.2173 13.6831ZM82.4693 17.5371C81.7164 17.5371 81.2662 16.9624 81.2662 16.0073H81.2661C81.2661 15.0601 81.7212 14.4815 82.4693 14.4815C83.2134 14.4815 83.6812 15.0728 83.6812 16.0112C83.6812 16.9541 83.2183 17.5371 82.4693 17.5371ZM88.23 16.0073C88.2017 15.7114 88.2355 15.4129 88.3294 15.1308C88.4232 14.8487 88.575 14.5894 88.7749 14.3694C88.9749 14.1494 89.2186 13.9736 89.4904 13.8534C89.7623 13.7331 90.0563 13.671 90.3535 13.671C90.6508 13.671 90.9448 13.7331 91.2166 13.8534C91.4885 13.9736 91.7322 14.1494 91.9321 14.3694C92.1321 14.5894 92.2838 14.8487 92.3777 15.1308C92.4715 15.4129 92.5054 15.7114 92.4771 16.0073C92.5059 16.3036 92.4725 16.6025 92.3789 16.8851C92.2853 17.1676 92.1336 17.4274 91.9336 17.6478C91.7336 17.8682 91.4897 18.0444 91.2176 18.1649C90.9455 18.2854 90.6512 18.3477 90.3535 18.3477C90.0559 18.3477 89.7616 18.2854 89.4895 18.1649C89.2173 18.0444 88.9734 17.8682 88.7734 17.6478C88.5734 17.4274 88.4218 17.1676 88.3282 16.8851C88.2346 16.6025 88.2012 16.3036 88.23 16.0073ZM91.563 16.0073C91.563 15.0313 91.1245 14.4605 90.355 14.4605C89.5825 14.4605 89.148 15.0313 89.148 16.0074C89.148 16.9912 89.5826 17.5576 90.355 17.5576C91.1245 17.5576 91.563 16.9873 91.563 16.0073ZM94.5249 13.7578H93.6694V18.2608H94.5581V15.6265C94.5424 15.4784 94.5588 15.3287 94.6063 15.1875C94.6539 15.0464 94.7314 14.9172 94.8335 14.8088C94.9356 14.7004 95.06 14.6154 95.198 14.5596C95.3361 14.5038 95.4846 14.4784 95.6333 14.4854C96.2906 14.4854 96.605 14.8452 96.605 15.5689V18.2607H97.4937V15.3457C97.5258 15.1284 97.5087 14.9066 97.4435 14.6967C97.3783 14.4869 97.2667 14.2945 97.117 14.1336C96.9673 13.9728 96.7834 13.8477 96.5788 13.7676C96.3742 13.6875 96.1542 13.6544 95.9351 13.6709C95.6555 13.6482 95.3757 13.7133 95.1349 13.8571C94.894 14.0009 94.704 14.2162 94.5913 14.4732H94.5249V13.7578ZM102.515 12.6367V13.7783H103.491V14.5269H102.515V16.8423C102.515 17.314 102.71 17.5205 103.152 17.5205C103.265 17.5202 103.378 17.5133 103.491 17.5V18.2402C103.331 18.2688 103.169 18.284 103.007 18.2857C102.019 18.2857 101.626 17.938 101.626 17.0698V14.5268H100.911V13.7783H101.626V12.6367H102.515ZM105.585 12H104.705L104.705 18.2607H105.593V15.6308C105.58 15.4782 105.6 15.3244 105.652 15.1803C105.704 15.0362 105.787 14.9051 105.895 14.7964C106.003 14.6877 106.133 14.6038 106.277 14.5508C106.421 14.4977 106.574 14.4767 106.727 14.4893C107.355 14.4893 107.69 14.8535 107.69 15.5728V18.2607H108.58V15.3535C108.609 15.1372 108.59 14.9171 108.524 14.709C108.458 14.5008 108.347 14.3098 108.199 14.1494C108.051 13.9891 107.869 13.8634 107.667 13.7814C107.465 13.6993 107.247 13.6629 107.029 13.6748C106.745 13.6518 106.461 13.7168 106.215 13.8612C105.969 14.0055 105.774 14.2221 105.656 14.4815H105.585V12ZM113.761 17.0449C113.641 17.4565 113.379 17.8125 113.022 18.0506C112.666 18.2888 112.236 18.3939 111.81 18.3477C111.513 18.3555 111.219 18.2987 110.946 18.1811C110.674 18.0636 110.43 17.8882 110.232 17.6671C110.034 17.4459 109.887 17.1844 109.8 16.9005C109.713 16.6167 109.689 16.3174 109.73 16.0235C109.69 15.7286 109.715 15.4286 109.801 15.144C109.888 14.8593 110.034 14.5965 110.231 14.3734C110.428 14.1504 110.671 13.9722 110.942 13.851C111.214 13.7298 111.509 13.6684 111.806 13.6709C113.059 13.6709 113.815 14.5269 113.815 15.9409V16.251H110.635V16.3008C110.621 16.466 110.642 16.6324 110.696 16.7891C110.75 16.9459 110.837 17.0896 110.95 17.211C111.062 17.3325 111.2 17.429 111.352 17.4944C111.504 17.5598 111.669 17.5926 111.834 17.5908C112.047 17.6163 112.262 17.578 112.453 17.4808C112.644 17.3836 112.801 17.2319 112.906 17.0449L113.761 17.0449ZM110.635 15.5938H112.91C112.921 15.4426 112.9 15.2908 112.849 15.1481C112.798 15.0054 112.718 14.8749 112.614 14.7651C112.509 14.6552 112.383 14.5684 112.243 14.5102C112.103 14.452 111.953 14.4238 111.801 14.4273C111.648 14.4253 111.495 14.4542 111.353 14.5121C111.21 14.5701 111.081 14.6559 110.972 14.7647C110.864 14.8734 110.778 15.0027 110.72 15.1451C110.662 15.2875 110.633 15.4401 110.635 15.5938ZM31.0372 15.7739C31.8488 14.7997 32.2486 13.5475 32.1518 12.2833C30.9119 12.4135 29.7667 13.0061 28.9442 13.9429C28.542 14.4005 28.234 14.933 28.0378 15.5098C27.8415 16.0865 27.7609 16.6963 27.8005 17.3043C28.4206 17.3107 29.0341 17.1762 29.5948 16.9112C30.1554 16.6461 30.6486 16.2572 31.0372 15.7739ZM33.7689 23.8637C33.7796 23.029 34.0013 22.2106 34.4134 21.4847C34.8254 20.7587 35.4143 20.1488 36.1254 19.7116C35.6737 19.0665 35.0777 18.5355 34.3849 18.161C33.6921 17.7864 32.9215 17.5786 32.1343 17.5539C31.1071 17.4461 30.0991 17.8462 29.2753 18.1731C28.7524 18.3807 28.3037 18.5588 27.9714 18.5588C27.5934 18.5588 27.1318 18.3734 26.6145 18.1656C25.9382 17.8939 25.1668 17.5841 24.3629 17.6006C23.4452 17.6303 22.5509 17.8971 21.767 18.3752C20.9831 18.8533 20.3364 19.5262 19.89 20.3285C17.956 23.6769 19.3985 28.598 21.2511 31.3046C22.178 32.6299 23.2613 34.1104 24.6788 34.0579C25.3218 34.0312 25.778 33.8392 26.2493 33.6409C26.7946 33.4114 27.36 33.1734 28.2582 33.1734C29.105 33.1734 29.6462 33.4039 30.1656 33.6252C30.6635 33.8373 31.1413 34.0408 31.8492 34.0245C33.3376 34.0003 34.2753 32.6933 35.1697 31.3554C35.8357 30.411 36.3481 29.3673 36.6881 28.2629C35.8234 27.8971 35.0855 27.2849 34.5664 26.5027C34.0472 25.7204 33.7699 24.8026 33.7689 23.8637Z" fill="white"/>
</svg>
