<svg width="24" height="24" viewBox="0 0 24 24" fill="none" xmlns="http://www.w3.org/2000/svg">
<path fill-rule="evenodd" clip-rule="evenodd" d="M24 12C24 18.6274 18.6274 24 12 24C5.37258 24 0 18.6274 0 12C0 5.37258 5.37258 0 12 0C18.6274 0 24 5.37258 24 12ZM20.3306 12.0343C20.3306 16.4526 16.7489 20.0343 12.3306 20.0343C7.91235 20.0343 4.33062 16.4526 4.33062 12.0343C4.33062 7.61603 7.91235 4.03431 12.3306 4.03431C16.7489 4.03431 20.3306 7.61603 20.3306 12.0343ZM17.716 12.3775C17.3326 12.4936 16.9258 12.556 16.5045 12.556C14.1993 12.556 12.3306 10.6873 12.3306 8.38214C12.3306 7.76879 12.4629 7.18635 12.7005 6.66178C12.5499 6.64934 12.3975 6.643 12.2436 6.643C9.21809 6.643 6.76539 9.0957 6.76539 12.1213C6.76539 13.0303 6.98681 13.8877 7.37866 14.6423C7.72428 14.3191 8.18859 14.1213 8.69912 14.1213C9.76708 14.1213 10.6328 14.987 10.6328 16.055C10.6328 16.4934 10.487 16.8976 10.2411 17.222C10.8614 17.4657 11.5369 17.5995 12.2436 17.5995C15.1833 17.5995 17.5822 15.2841 17.716 12.3775Z" fill="#323232"/>
</svg>
