<svg width="45" height="45" viewBox="0 0 45 45" fill="none" xmlns="http://www.w3.org/2000/svg">
<path fill-rule="evenodd" clip-rule="evenodd" d="M44.8715 22.6623C44.8715 34.9284 34.9279 44.872 22.6618 44.872C10.3958 44.872 0.452148 34.9284 0.452148 22.6623C0.452148 10.3962 10.3958 0.452629 22.6618 0.452629C34.9279 0.452629 44.8715 10.3962 44.8715 22.6623ZM38.0808 22.7258C38.0808 30.9032 31.4518 37.5323 23.2744 37.5323C15.097 37.5323 8.46793 30.9032 8.46793 22.7258C8.46793 14.5484 15.097 7.91936 23.2744 7.91936C31.4518 7.91936 38.0808 14.5484 38.0808 22.7258ZM33.2412 23.3609C32.5314 23.5759 31.7786 23.6915 30.9987 23.6915C26.7322 23.6915 23.2736 20.2328 23.2736 15.9663C23.2736 14.8312 23.5184 13.7532 23.9582 12.7823C23.6795 12.7593 23.3975 12.7475 23.1128 12.7475C17.5131 12.7475 12.9736 17.287 12.9736 22.8867C12.9736 24.5692 13.3835 26.156 14.1087 27.5527C14.7484 26.9545 15.6077 26.5884 16.5526 26.5884C18.5292 26.5884 20.1316 28.1907 20.1316 30.1673C20.1316 30.9786 19.8616 31.7269 19.4066 32.3272C20.5546 32.7782 21.8048 33.0259 23.1128 33.0259C28.5536 33.0259 32.9935 28.7405 33.2412 23.3609Z" fill="#00BEFF"/>
</svg>
