<svg width="74" height="74" viewBox="0 0 74 74" fill="none" xmlns="http://www.w3.org/2000/svg">
<path d="M45.9417 64.75H33.9167V64.75C20.2936 64.75 9.25 53.7064 9.25 40.0833V40.0833V33.9167V33.9167C9.25 20.2936 20.2936 9.25 33.9167 9.25H40.0833H40.0833C53.7064 9.25 64.75 20.2936 64.75 33.9167V33.9167V41.625V41.625C64.75 46.7336 60.6086 50.875 55.5 50.875H55.1917V50.875C50.083 50.875 45.9417 46.7336 45.9417 41.625V41.625V36.3063" stroke="#323232" stroke-width="4" stroke-linecap="round" stroke-linejoin="round"/>
<path d="M28.5982 26.0727L29.5232 25.1477V25.1477C30.8233 23.852 32.5841 23.1246 34.4196 23.125H39.0045V23.125C42.8359 23.125 45.942 26.231 45.942 30.0625V30.0625V43.9375V43.9375C45.942 47.769 42.8359 50.875 39.0045 50.875V50.875H33.7998V50.875C29.7783 50.8733 26.5187 47.6137 26.517 43.5922V43.5927C26.5184 39.5712 29.7777 36.3113 33.7992 36.3093H45.942" stroke="#323232" stroke-width="4" stroke-linecap="round" stroke-linejoin="round"/>
</svg>
