<svg width="24" height="24" viewBox="0 0 24 24" fill="none" xmlns="http://www.w3.org/2000/svg">
<path d="M15.25 11.75H10.875V11.75C9.42525 11.75 8.25 12.9253 8.25 14.375V14.375V14.375C8.25 15.8247 9.42525 17 10.875 17H12.75V17C14.1307 17 15.25 15.8807 15.25 14.5V9.5V9.5C15.25 8.11929 14.1307 7 12.75 7C12.75 7 12.75 7 12.75 7H11.1V7C10.4369 6.99988 9.80094 7.26319 9.332 7.732L9 8.063" stroke="#323232" stroke-width="1.5" stroke-linecap="round" stroke-linejoin="round"/>
<path d="M17 21H9V21C5.68629 21 3 18.3137 3 15V15V9V9C3 5.68629 5.68629 3 9 3H15H15C18.3137 3 21 5.68629 21 9V14C21 15.6568 19.6568 17 18 17V17C16.4812 17 15.25 15.7688 15.25 14.25V11.5" stroke="#323232" stroke-width="1.5" stroke-linecap="round" stroke-linejoin="round"/>
</svg>
