<svg width="146" height="50" viewBox="0 0 146 50" fill="none" xmlns="http://www.w3.org/2000/svg">
<rect width="146" height="50" rx="10" fill="black"/>
<path d="M73.164 26.8881C70.812 26.8881 68.895 28.6761 68.895 31.1411C68.895 33.5901 70.812 35.3941 73.164 35.3941C75.516 35.3941 77.433 33.5901 77.433 31.1411C77.433 28.6761 75.516 26.8881 73.164 26.8881ZM73.164 33.7191C71.875 33.7191 70.763 32.6561 70.763 31.1411C70.763 29.6101 71.875 28.5631 73.164 28.5631C74.453 28.5631 75.564 29.6101 75.564 31.1411C75.564 32.6551 74.453 33.7191 73.164 33.7191ZM63.85 26.8881C61.498 26.8881 59.581 28.6761 59.581 31.1411C59.581 33.5901 61.498 35.3941 63.85 35.3941C66.202 35.3941 68.119 33.5901 68.119 31.1411C68.12 28.6761 66.202 26.8881 63.85 26.8881ZM63.85 33.7191C62.561 33.7191 61.45 32.6561 61.45 31.1411C61.45 29.6101 62.562 28.5631 63.85 28.5631C65.139 28.5631 66.25 29.6101 66.25 31.1411C66.251 32.6551 65.139 33.7191 63.85 33.7191ZM52.772 28.1931V29.9971H57.09C56.961 31.0121 56.623 31.7531 56.107 32.2691C55.479 32.8971 54.496 33.5901 52.772 33.5901C50.114 33.5901 48.036 31.4471 48.036 28.7891C48.036 26.1311 50.114 23.9881 52.772 23.9881C54.206 23.9881 55.253 24.5521 56.026 25.2771L57.299 24.0041C56.22 22.9731 54.786 22.1831 52.772 22.1831C49.131 22.1831 46.07 25.1471 46.07 28.7881C46.07 32.4291 49.131 35.3931 52.772 35.3931C54.737 35.3931 56.22 34.7491 57.38 33.5401C58.572 32.3481 58.943 30.6721 58.943 29.3191C58.943 28.9001 58.911 28.5131 58.846 28.1911H52.772V28.1931ZM98.08 29.5941C97.726 28.6431 96.646 26.8871 94.439 26.8871C92.248 26.8871 90.428 28.6111 90.428 31.1401C90.428 33.5241 92.232 35.3931 94.649 35.3931C96.598 35.3931 97.726 34.2011 98.193 33.5081L96.743 32.5411C96.26 33.2501 95.599 33.7171 94.649 33.7171C93.698 33.7171 93.022 33.2821 92.587 32.4281L98.274 30.0761L98.08 29.5941ZM92.28 31.0121C92.232 29.3691 93.553 28.5311 94.503 28.5311C95.244 28.5311 95.872 28.9011 96.082 29.4331L92.28 31.0121ZM87.656 35.1361H89.525V22.6351H87.656V35.1361ZM84.595 27.8381H84.531C84.112 27.3391 83.307 26.8871 82.292 26.8871C80.165 26.8871 78.216 28.7561 78.216 31.1561C78.216 33.5401 80.165 35.3931 82.292 35.3931C83.307 35.3931 84.112 34.9421 84.531 34.4261H84.595V35.0381C84.595 36.6651 83.725 37.5351 82.323 37.5351C81.179 37.5351 80.47 36.7131 80.18 36.0211L78.553 36.6981C79.02 37.8261 80.261 39.2111 82.323 39.2111C84.514 39.2111 86.367 37.9221 86.367 34.7811V27.1451H84.595V27.8381ZM82.453 33.7191C81.164 33.7191 80.085 32.6401 80.085 31.1571C80.085 29.6591 81.164 28.5631 82.453 28.5631C83.726 28.5631 84.724 29.6581 84.724 31.1571C84.724 32.6391 83.726 33.7191 82.453 33.7191ZM106.834 22.6351H102.363V35.1361H104.228V30.4001H106.833C108.901 30.4001 110.934 28.9031 110.934 26.5181C110.934 24.1331 108.902 22.6351 106.834 22.6351ZM106.882 28.6601H104.228V24.3751H106.882C108.277 24.3751 109.069 25.5301 109.069 26.5181C109.069 27.4861 108.277 28.6601 106.882 28.6601ZM118.414 26.8651C117.063 26.8651 115.664 27.4601 115.085 28.7791L116.742 29.4711C117.096 28.7791 117.755 28.5541 118.447 28.5541C119.412 28.5541 120.393 29.1331 120.409 30.1621V30.2911C120.071 30.0981 119.347 29.8081 118.463 29.8081C116.678 29.8081 114.86 30.7891 114.86 32.6231C114.86 34.2961 116.324 35.3731 117.964 35.3731C119.219 35.3731 119.91 34.8101 120.344 34.1511H120.408V35.1161H122.209V30.3231C122.209 28.1031 120.553 26.8651 118.414 26.8651ZM118.188 33.7161C117.577 33.7161 116.724 33.4101 116.724 32.6551C116.724 31.6901 117.786 31.3201 118.702 31.3201C119.522 31.3201 119.908 31.4971 120.407 31.7381C120.263 32.8961 119.266 33.7161 118.188 33.7161ZM128.771 27.1381L126.632 32.5581H126.568L124.349 27.1381H122.339L125.668 34.7131L123.77 38.9271H125.716L130.847 27.1381H128.771ZM111.964 35.1361H113.83V22.6351H111.964V35.1361Z" fill="white"/>
<path d="M15.463 12.6741C15.172 12.9821 15 13.4601 15 14.0791V36.1951C15 36.8151 15.172 37.2921 15.463 37.6001L15.537 37.6721L27.926 25.2831V25.1371V24.9911L15.537 12.6011L15.463 12.6741Z" fill="url(#paint0_linear)"/>
<path d="M32.056 29.4151L27.927 25.2841V25.1381V24.9921L32.057 20.8621L32.15 20.9151L37.043 23.6951C38.441 24.4891 38.441 25.7881 37.043 26.5831L32.15 29.3631L32.056 29.4151Z" fill="url(#paint1_linear)"/>
<path d="M32.15 29.361L27.927 25.137L15.463 37.6C15.924 38.088 16.684 38.148 17.541 37.661L32.15 29.361Z" fill="url(#paint2_linear)"/>
<path d="M32.15 20.913L17.542 12.613C16.685 12.126 15.925 12.187 15.464 12.674L27.927 25.137L32.15 20.913Z" fill="url(#paint3_linear)"/>
<path opacity="0.2" d="M32.057 29.2681L17.542 37.5151C16.73 37.9761 16.004 37.9461 15.538 37.5261L15.463 37.6011L15.537 37.6731C16.003 38.0931 16.729 38.1241 17.541 37.6621L32.149 29.3621L32.057 29.2681Z" fill="black"/>
<path opacity="0.12" d="M15.463 37.4541C15.172 37.1461 15 36.6681 15 36.0491V36.1951C15 36.8141 15.172 37.2921 15.463 37.6001L15.538 37.5251L15.463 37.4541Z" fill="black"/>
<path opacity="0.12" d="M37.043 26.4349L32.057 29.2679L32.15 29.3609L37.043 26.5809C37.742 26.1839 38.091 25.6609 38.091 25.1379C38.032 25.6109 37.676 26.0749 37.043 26.4349Z" fill="black"/>
<path opacity="0.25" d="M17.541 12.759L37.042 23.839C37.676 24.199 38.031 24.663 38.09 25.137C38.09 24.614 37.741 24.09 37.042 23.693L17.541 12.613C16.143 11.819 15 12.478 15 14.079V14.226C15 12.625 16.144 11.965 17.541 12.759Z" fill="white"/>
<path fill-rule="evenodd" clip-rule="evenodd" d="M78.637 17.36C78.047 17.967 77.314 18.269 76.437 18.269C75.56 18.269 74.827 17.966 74.238 17.36C73.648 16.754 73.354 16.012 73.354 15.135C73.354 14.258 73.648 13.516 74.238 12.91C74.827 12.303 75.56 12 76.437 12C77.309 12 78.041 12.305 78.633 12.914C79.225 13.523 79.521 14.263 79.521 15.135C79.521 16.013 79.226 16.755 78.637 17.36ZM74.807 16.858C75.251 17.308 75.794 17.532 76.437 17.532C77.08 17.532 77.623 17.307 78.067 16.858C78.511 16.408 78.734 15.834 78.734 15.136C78.734 14.438 78.511 13.863 78.067 13.414C77.624 12.964 77.08 12.74 76.437 12.74C75.794 12.74 75.251 12.965 74.807 13.414C74.364 13.864 74.141 14.438 74.141 15.136C74.141 15.834 74.364 16.408 74.807 16.858ZM52.446 15.379C52.446 16.217 52.198 16.884 51.701 17.382C51.137 17.974 50.401 18.27 49.497 18.27C48.631 18.27 47.894 17.97 47.289 17.37C46.683 16.769 46.38 16.025 46.38 15.137C46.38 14.248 46.683 13.504 47.289 12.904C47.894 12.303 48.631 12.003 49.497 12.003C49.927 12.003 50.338 12.087 50.728 12.254C51.119 12.422 51.432 12.645 51.666 12.924L51.139 13.452C50.742 12.977 50.195 12.74 49.496 12.74C48.864 12.74 48.318 12.962 47.857 13.406C47.397 13.85 47.167 14.426 47.167 15.136C47.167 15.846 47.397 16.422 47.858 16.867C48.319 17.311 48.865 17.533 49.497 17.533C50.167 17.533 50.726 17.31 51.173 16.863C51.463 16.572 51.631 16.167 51.676 15.648H49.497V14.926H52.404C52.433 15.083 52.446 15.234 52.446 15.379ZM57.056 12.873H54.324V14.775H56.788V15.496H54.324V17.398H57.056V18.136H53.553V12.136H57.056V12.873ZM59.535 18.136H60.306V12.873H61.982V12.136H57.859V12.873H59.535V18.136ZM64.966 18.136V12.136H65.737V18.136H64.966ZM68.384 18.136H69.155V12.873H70.831V12.136H66.708V12.873H68.384V18.136ZM80.603 12.136V18.136H81.372V14.398L81.339 13.242H81.372L84.423 18.136H85.228V12.136H84.457V15.648L84.49 16.804H84.457L81.541 12.136H80.603Z" fill="white"/>
<path d="M78.637 17.36L78.5654 17.2902L78.5653 17.2903L78.637 17.36ZM74.238 17.36L74.3097 17.2903L74.3097 17.2902L74.238 17.36ZM74.238 12.91L74.3097 12.9798L74.3098 12.9796L74.238 12.91ZM78.633 12.914L78.5613 12.9837L78.633 12.914ZM74.807 16.858L74.7358 16.9282L74.7359 16.9282L74.807 16.858ZM78.067 16.858L78.1381 16.9283L78.1382 16.9282L78.067 16.858ZM78.067 13.414L77.9958 13.4842L77.9959 13.4843L78.067 13.414ZM74.807 13.414L74.7359 13.3437L74.7358 13.3438L74.807 13.414ZM51.701 17.382L51.6302 17.3113L51.6286 17.313L51.701 17.382ZM47.289 17.37L47.2186 17.441L47.2186 17.441L47.289 17.37ZM47.289 12.904L47.3594 12.9751L47.3595 12.9749L47.289 12.904ZM50.728 12.254L50.7675 12.1621L50.7674 12.1621L50.728 12.254ZM51.666 12.924L51.7368 12.9946L51.8015 12.9299L51.7427 12.8597L51.666 12.924ZM51.139 13.452L51.0623 13.5161L51.1325 13.6001L51.2098 13.5226L51.139 13.452ZM47.857 13.406L47.7877 13.334L47.7876 13.334L47.857 13.406ZM47.858 16.867L47.7886 16.9389L47.7887 16.939L47.858 16.867ZM51.173 16.863L51.2437 16.9337L51.2439 16.9336L51.173 16.863ZM51.676 15.648L51.7757 15.6566L51.7851 15.548H51.676V15.648ZM49.497 15.648H49.397V15.748H49.497V15.648ZM49.497 14.926V14.826H49.397V14.926H49.497ZM52.404 14.926L52.5024 14.9078L52.4873 14.826H52.404V14.926ZM54.324 12.873V12.773H54.224V12.873H54.324ZM57.056 12.873V12.973H57.156V12.873H57.056ZM54.324 14.775H54.224V14.875H54.324V14.775ZM56.788 14.775H56.888V14.675H56.788V14.775ZM56.788 15.496V15.596H56.888V15.496H56.788ZM54.324 15.496V15.396H54.224V15.496H54.324ZM54.324 17.398H54.224V17.498H54.324V17.398ZM57.056 17.398H57.156V17.298H57.056V17.398ZM57.056 18.136V18.236H57.156V18.136H57.056ZM53.553 18.136H53.453V18.236H53.553V18.136ZM53.553 12.136V12.036H53.453V12.136H53.553ZM57.056 12.136H57.156V12.036H57.056V12.136ZM60.306 18.136V18.236H60.406V18.136H60.306ZM59.535 18.136H59.435V18.236H59.535V18.136ZM60.306 12.873V12.773H60.206V12.873H60.306ZM61.982 12.873V12.973H62.082V12.873H61.982ZM61.982 12.136H62.082V12.036H61.982V12.136ZM57.859 12.136V12.036H57.759V12.136H57.859ZM57.859 12.873H57.759V12.973H57.859V12.873ZM59.535 12.873H59.635V12.773H59.535V12.873ZM64.966 12.136V12.036H64.866V12.136H64.966ZM64.966 18.136H64.866V18.236H64.966V18.136ZM65.737 12.136H65.837V12.036H65.737V12.136ZM65.737 18.136V18.236H65.837V18.136H65.737ZM69.155 18.136V18.236H69.255V18.136H69.155ZM68.384 18.136H68.284V18.236H68.384V18.136ZM69.155 12.873V12.773H69.055V12.873H69.155ZM70.831 12.873V12.973H70.931V12.873H70.831ZM70.831 12.136H70.931V12.036H70.831V12.136ZM66.708 12.136V12.036H66.608V12.136H66.708ZM66.708 12.873H66.608V12.973H66.708V12.873ZM68.384 12.873H68.484V12.773H68.384V12.873ZM80.603 18.136H80.503V18.236H80.603V18.136ZM80.603 12.136V12.036H80.503V12.136H80.603ZM81.372 18.136V18.236H81.472V18.136H81.372ZM81.372 14.398H81.4721L81.472 14.3951L81.372 14.398ZM81.339 13.242V13.142H81.2361L81.2391 13.2449L81.339 13.242ZM81.372 13.242L81.4569 13.1891L81.4275 13.142H81.372V13.242ZM84.423 18.136L84.3382 18.1889L84.3675 18.236H84.423V18.136ZM85.228 18.136V18.236H85.328V18.136H85.228ZM85.228 12.136H85.328V12.036H85.228V12.136ZM84.457 12.136V12.036H84.357V12.136H84.457ZM84.457 15.648H84.357L84.3571 15.6509L84.457 15.648ZM84.49 16.804V16.904H84.5929L84.59 16.8011L84.49 16.804ZM84.457 16.804L84.3722 16.857L84.4016 16.904H84.457V16.804ZM81.541 12.136L81.6258 12.083L81.5965 12.036H81.541V12.136ZM76.437 18.369C77.3398 18.369 78.0991 18.0569 78.7087 17.4297L78.5653 17.2903C77.995 17.8771 77.2882 18.169 76.437 18.169V18.369ZM74.1663 17.4297C74.7749 18.0559 75.5342 18.369 76.437 18.369V18.169C75.5859 18.169 74.8791 17.8761 74.3097 17.2903L74.1663 17.4297ZM73.254 15.135C73.254 16.0369 73.5574 16.8043 74.1664 17.4298L74.3097 17.2902C73.7387 16.7037 73.454 15.9871 73.454 15.135H73.254ZM74.1664 12.8402C73.5574 13.4657 73.254 14.2331 73.254 15.135H73.454C73.454 14.2829 73.7387 13.5663 74.3097 12.9798L74.1664 12.8402ZM76.437 11.9C75.5342 11.9 74.7749 12.2131 74.1663 12.8404L74.3098 12.9796C74.8792 12.3929 75.5859 12.1 76.437 12.1V11.9ZM78.7047 12.8443C78.0934 12.2154 77.3353 11.9 76.437 11.9V12.1C77.2828 12.1 77.9887 12.3946 78.5613 12.9837L78.7047 12.8443ZM79.621 15.135C79.621 14.2377 79.3154 13.4725 78.7047 12.8443L78.5613 12.9837C79.1347 13.5735 79.421 14.2883 79.421 15.135H79.621ZM78.7087 17.4298C79.3166 16.8053 79.621 16.0379 79.621 15.135H79.421C79.421 15.9881 79.1354 16.7047 78.5654 17.2902L78.7087 17.4298ZM76.437 17.432C75.8202 17.432 75.303 17.2183 74.8782 16.7878L74.7359 16.9282C75.1991 17.3977 75.7679 17.632 76.437 17.632V17.432ZM77.9959 16.7877C77.571 17.2174 77.0538 17.432 76.437 17.432V17.632C77.1063 17.632 77.675 17.3966 78.1381 16.9283L77.9959 16.7877ZM78.634 15.136C78.634 15.8106 78.4195 16.3584 77.9959 16.7878L78.1382 16.9282C78.6026 16.4576 78.834 15.8574 78.834 15.136H78.634ZM77.9959 13.4843C78.4194 13.9126 78.634 14.4613 78.634 15.136H78.834C78.834 14.4147 78.6027 13.8134 78.1381 13.3437L77.9959 13.4843ZM76.437 12.84C77.054 12.84 77.5721 13.0538 77.9958 13.4842L78.1383 13.3438C77.676 12.8742 77.1061 12.64 76.437 12.64V12.84ZM74.8781 13.4843C75.303 13.0546 75.8203 12.84 76.437 12.84V12.64C75.7678 12.64 75.199 12.8754 74.7359 13.3437L74.8781 13.4843ZM74.241 15.136C74.241 14.4614 74.4556 13.9135 74.8783 13.4842L74.7358 13.3438C74.2724 13.8145 74.041 14.4146 74.041 15.136H74.241ZM74.8783 16.7878C74.4556 16.3585 74.241 15.8106 74.241 15.136H74.041C74.041 15.8574 74.2724 16.4575 74.7358 16.9282L74.8783 16.7878ZM51.7718 17.4526C52.291 16.9324 52.546 16.238 52.546 15.379H52.346C52.346 16.196 52.105 16.8356 51.6303 17.3114L51.7718 17.4526ZM49.497 18.37C50.4251 18.37 51.1884 18.065 51.7734 17.451L51.6286 17.313C51.0856 17.883 50.3769 18.17 49.497 18.17V18.37ZM47.2186 17.441C47.8427 18.0599 48.6052 18.37 49.497 18.37V18.17C48.6569 18.17 47.9453 17.88 47.3595 17.299L47.2186 17.441ZM46.28 15.137C46.28 16.0505 46.5929 16.8204 47.2186 17.441L47.3595 17.299C46.7732 16.7176 46.48 15.9995 46.48 15.137H46.28ZM47.2187 12.8329C46.5928 13.4526 46.28 14.2226 46.28 15.137H46.48C46.48 14.2734 46.7732 13.5554 47.3594 12.9751L47.2187 12.8329ZM49.497 11.903C48.6052 11.903 47.8427 12.2131 47.2186 12.8331L47.3595 12.9749C47.9454 12.3929 48.6569 12.103 49.497 12.103V11.903ZM50.7674 12.1621C50.3648 11.9897 49.9404 11.903 49.497 11.903V12.103C49.9136 12.103 50.3112 12.1843 50.6887 12.3459L50.7674 12.1621ZM51.7427 12.8597C51.497 12.5668 51.1703 12.3352 50.7675 12.1621L50.6886 12.3459C51.0677 12.5088 51.3671 12.7232 51.5894 12.9883L51.7427 12.8597ZM51.2098 13.5226L51.7368 12.9946L51.5953 12.8534L51.0683 13.3814L51.2098 13.5226ZM49.496 12.84C50.1697 12.84 50.6869 13.067 51.0623 13.5161L51.2158 13.3879C50.7972 12.887 50.2204 12.64 49.496 12.64V12.84ZM47.9264 13.478C48.3691 13.0517 48.8903 12.84 49.496 12.84V12.64C48.8378 12.64 48.267 12.8723 47.7877 13.334L47.9264 13.478ZM47.267 15.136C47.267 14.4499 47.4882 13.901 47.9265 13.4779L47.7876 13.334C47.3058 13.799 47.067 14.4021 47.067 15.136H47.267ZM47.9275 16.7951C47.4882 16.371 47.267 15.8221 47.267 15.136H47.067C47.067 15.8699 47.3059 16.473 47.7886 16.9389L47.9275 16.7951ZM49.497 17.433C48.8913 17.433 48.3701 17.2213 47.9274 16.795L47.7887 16.939C48.268 17.4007 48.8388 17.633 49.497 17.633V17.433ZM51.1023 16.7923C50.6753 17.2193 50.1424 17.433 49.497 17.433V17.633C50.1917 17.633 50.7767 17.4007 51.2437 16.9337L51.1023 16.7923ZM51.5764 15.6394C51.5329 16.1413 51.3716 16.5221 51.1022 16.7924L51.2439 16.9336C51.5544 16.6219 51.7292 16.1927 51.7757 15.6566L51.5764 15.6394ZM49.497 15.748H51.676V15.548H49.497V15.748ZM49.397 14.926V15.648H49.597V14.926H49.397ZM52.404 14.826H49.497V15.026H52.404V14.826ZM52.546 15.379C52.546 15.228 52.5325 15.0709 52.5024 14.9078L52.3057 14.9442C52.3336 15.0951 52.346 15.24 52.346 15.379H52.546ZM54.324 12.973H57.056V12.773H54.324V12.973ZM54.424 14.775V12.873H54.224V14.775H54.424ZM56.788 14.675H54.324V14.875H56.788V14.675ZM56.888 15.496V14.775H56.688V15.496H56.888ZM54.324 15.596H56.788V15.396H54.324V15.596ZM54.424 17.398V15.496H54.224V17.398H54.424ZM57.056 17.298H54.324V17.498H57.056V17.298ZM57.156 18.136V17.398H56.956V18.136H57.156ZM53.553 18.236H57.056V18.036H53.553V18.236ZM53.453 12.136V18.136H53.653V12.136H53.453ZM57.056 12.036H53.553V12.236H57.056V12.036ZM57.156 12.873V12.136H56.956V12.873H57.156ZM60.306 18.036H59.535V18.236H60.306V18.036ZM60.206 12.873V18.136H60.406V12.873H60.206ZM61.982 12.773H60.306V12.973H61.982V12.773ZM61.882 12.136V12.873H62.082V12.136H61.882ZM57.859 12.236H61.982V12.036H57.859V12.236ZM57.959 12.873V12.136H57.759V12.873H57.959ZM59.535 12.773H57.859V12.973H59.535V12.773ZM59.635 18.136V12.873H59.435V18.136H59.635ZM64.866 12.136V18.136H65.066V12.136H64.866ZM65.737 12.036H64.966V12.236H65.737V12.036ZM65.837 18.136V12.136H65.637V18.136H65.837ZM64.966 18.236H65.737V18.036H64.966V18.236ZM69.155 18.036H68.384V18.236H69.155V18.036ZM69.055 12.873V18.136H69.255V12.873H69.055ZM70.831 12.773H69.155V12.973H70.831V12.773ZM70.731 12.136V12.873H70.931V12.136H70.731ZM66.708 12.236H70.831V12.036H66.708V12.236ZM66.808 12.873V12.136H66.608V12.873H66.808ZM68.384 12.773H66.708V12.973H68.384V12.773ZM68.484 18.136V12.873H68.284V18.136H68.484ZM80.703 18.136V12.136H80.503V18.136H80.703ZM81.372 18.036H80.603V18.236H81.372V18.036ZM81.272 14.398V18.136H81.472V14.398H81.272ZM81.2391 13.2449L81.2721 14.4009L81.472 14.3951L81.439 13.2391L81.2391 13.2449ZM81.372 13.142H81.339V13.342H81.372V13.142ZM84.5079 18.0831L81.4569 13.1891L81.2872 13.2949L84.3382 18.1889L84.5079 18.0831ZM85.228 18.036H84.423V18.236H85.228V18.036ZM85.128 12.136V18.136H85.328V12.136H85.128ZM84.457 12.236H85.228V12.036H84.457V12.236ZM84.557 15.648V12.136H84.357V15.648H84.557ZM84.59 16.8011L84.557 15.6451L84.3571 15.6509L84.3901 16.8069L84.59 16.8011ZM84.457 16.904H84.49V16.704H84.457V16.904ZM81.4562 12.189L84.3722 16.857L84.5418 16.751L81.6258 12.083L81.4562 12.189ZM80.603 12.236H81.541V12.036H80.603V12.236Z" fill="white"/>
<defs>
<linearGradient id="paint0_linear" x1="26.8276" y1="13.8459" x2="10.0452" y2="30.6283" gradientUnits="userSpaceOnUse">
<stop stop-color="#00A0FF"/>
<stop offset="0.0066" stop-color="#00A1FF"/>
<stop offset="0.2601" stop-color="#00BEFF"/>
<stop offset="0.5122" stop-color="#00D2FF"/>
<stop offset="0.7604" stop-color="#00DFFF"/>
<stop offset="1" stop-color="#00E3FF"/>
</linearGradient>
<linearGradient id="paint1_linear" x1="38.8623" y1="25.1376" x2="14.6654" y2="25.1376" gradientUnits="userSpaceOnUse">
<stop stop-color="#FFE000"/>
<stop offset="0.4087" stop-color="#FFBD00"/>
<stop offset="0.7754" stop-color="#FFA500"/>
<stop offset="1" stop-color="#FF9C00"/>
</linearGradient>
<linearGradient id="paint2_linear" x1="29.8549" y1="27.4322" x2="7.09661" y2="50.1905" gradientUnits="userSpaceOnUse">
<stop stop-color="#FF3A44"/>
<stop offset="1" stop-color="#C31162"/>
</linearGradient>
<linearGradient id="paint3_linear" x1="12.3252" y1="5.31233" x2="22.4878" y2="15.4748" gradientUnits="userSpaceOnUse">
<stop stop-color="#32A071"/>
<stop offset="0.0685" stop-color="#2DA771"/>
<stop offset="0.4762" stop-color="#15CF74"/>
<stop offset="0.8009" stop-color="#06E775"/>
<stop offset="1" stop-color="#00F076"/>
</linearGradient>
</defs>
</svg>
