<svg width="25" height="25" viewBox="0 0 25 25" fill="none" xmlns="http://www.w3.org/2000/svg">
<path d="M9.66751 22.1675C4.32828 20.6032 1.26813 15.0067 2.83246 9.66752C4.3968 4.32829 9.99324 1.26814 15.3325 2.83247C20.6717 4.3968 23.7318 9.99325 22.1675 15.3325C20.6032 20.6717 15.0067 23.7319 9.66751 22.1675Z" fill="url(#paint0_linear)"/>
<path d="M2.41545 20.5794C2.41545 20.5794 2.5245 20.5794 2.70853 20.6476C2.96805 20.7367 3.19403 20.9032 3.35604 21.1247C3.46848 21.2735 3.54542 21.446 3.58097 21.6291C3.62118 21.8385 3.59988 22.0551 3.51963 22.2527C3.43799 22.4854 3.28704 22.6874 3.08708 22.8317C2.88712 22.9759 2.64777 23.0554 2.40125 23.0595C2.15472 23.0636 1.91286 22.9921 1.70824 22.8545C1.50361 22.717 1.34605 22.52 1.25675 22.2902C1.16767 22.0952 1.13803 21.8783 1.17155 21.6666C1.20465 21.483 1.2767 21.3087 1.38284 21.1554C1.53731 20.9291 1.75731 20.7554 2.01331 20.6578C2.19734 20.593 2.3064 20.5931 2.3064 20.5828H2.23142H2.136C2.09196 20.589 2.0486 20.5992 2.00649 20.6135C1.73198 20.7005 1.4929 20.8738 1.3249 21.1077C1.20809 21.2661 1.12885 21.4491 1.09316 21.6427C1.05177 21.8727 1.07904 22.1097 1.17155 22.3243C1.27136 22.5564 1.43283 22.7568 1.63844 22.9036C1.8596 23.0638 2.12533 23.1508 2.39841 23.1524C2.67097 23.1436 2.93362 23.0481 3.14816 22.8798C3.34947 22.7263 3.50405 22.5198 3.5946 22.2834C3.68259 22.0674 3.70395 21.83 3.65595 21.6018C3.60195 21.3665 3.48642 21.1497 3.32115 20.9736C3.15589 20.7976 2.94683 20.6686 2.71536 20.5999C2.67309 20.5869 2.62975 20.5778 2.58585 20.5726H2.49043L2.41545 20.5794Z" fill="#263238"/>
<path d="M2.45634 14.0498C2.45634 14.0498 2.45634 13.9952 2.45634 13.8862C2.45634 13.7771 2.43248 13.6135 2.41204 13.4057C2.41204 13.3 2.39159 13.1807 2.37796 13.0649C2.36432 12.949 2.37796 12.7922 2.37796 12.6355V12.1345C2.37523 12.0433 2.38094 11.952 2.395 11.8619C2.395 11.7664 2.41204 11.6676 2.42226 11.5688C2.51219 10.594 2.74768 9.63829 3.12089 8.73335C3.60953 7.5325 4.32457 6.43683 5.22701 5.50602L5.6087 5.11751C5.74502 4.99482 5.89156 4.87895 6.0347 4.75626L6.2494 4.57223C6.32172 4.50948 6.39798 4.45142 6.47773 4.39843L6.95825 4.05763C7.04004 3.9997 7.11843 3.94517 7.20363 3.89064L7.46263 3.74751L7.99427 3.45442C8.1749 3.36241 8.36915 3.29084 8.56 3.20565L8.84626 3.08296L8.9928 3.02162L9.14275 2.97731C9.5477 2.83459 9.96223 2.72071 10.3833 2.63652C10.598 2.59562 10.8092 2.54109 11.0308 2.51042L11.6953 2.44226C11.8078 2.44226 11.9202 2.415 12.0361 2.41159H12.3769C12.6052 2.41159 12.8336 2.41159 13.0585 2.41159C13.5268 2.44126 13.9924 2.50274 14.4524 2.59562L14.7932 2.66719L14.9704 2.70127L15.1408 2.75579L15.8224 2.96709C16.0507 3.04888 16.2722 3.15112 16.5039 3.24313C16.6164 3.29084 16.7323 3.33174 16.8447 3.38968L17.1855 3.56348C17.6289 3.79852 18.0569 4.06146 18.4669 4.35072L19.0599 4.83124L19.2099 4.95393L19.3496 5.08684L19.6256 5.35947L19.9017 5.6287L20.1539 5.9286L20.4061 6.2285L20.5322 6.37845L20.6446 6.53863C20.7912 6.75674 20.9411 6.97144 21.0911 7.18955L21.4762 7.87114C22.4755 9.81041 22.8164 12.0223 22.4474 14.1725C22.3929 14.4315 22.3418 14.6939 22.2907 14.9529C22.2395 15.2119 22.1373 15.4573 22.0589 15.7094L22.001 15.8969L21.926 16.0775L21.7761 16.4387L21.6261 16.8L21.4421 17.1408L21.2615 17.4816L21.1694 17.652L21.0638 17.8122L20.6446 18.4494C20.341 18.8495 20.012 19.2297 19.6597 19.5877L19.3973 19.8535C19.3121 19.9421 19.2133 20.0137 19.1213 20.0955C18.9304 20.2523 18.7498 20.4158 18.5555 20.5624L17.9591 20.9747L17.8092 21.0736C17.7589 21.1064 17.7065 21.136 17.6524 21.1622L17.3423 21.336C16.9317 21.5617 16.5071 21.7609 16.0711 21.9324C15.853 22.0108 15.6315 22.0721 15.4134 22.1437L15.0726 22.2459C14.9635 22.2766 14.8511 22.2936 14.7318 22.3175L14.0741 22.4538C13.856 22.4913 13.6379 22.5049 13.4197 22.5288C12.9931 22.5751 12.5638 22.591 12.1349 22.5765H11.9782L11.8214 22.5594L11.5079 22.5322C11.3034 22.5083 11.0955 22.4981 10.8979 22.464L10.3015 22.3447L10.0084 22.2868L9.72552 22.2016L9.17002 22.0312C9.07855 22.0045 8.98866 21.9726 8.90079 21.9358L8.63838 21.8267C8.46457 21.7518 8.29758 21.687 8.12377 21.6086L7.64326 21.353C6.5024 20.7378 5.49105 19.9081 4.6647 18.9095C4.57269 18.7971 4.48067 18.6948 4.39547 18.5858L4.16373 18.245L3.94221 17.9246C3.90813 17.8701 3.86723 17.819 3.83656 17.7678C3.80589 17.7167 3.77522 17.6588 3.74796 17.6043C3.62868 17.3896 3.51281 17.1851 3.40717 16.9908C3.30152 16.7966 3.22994 16.5921 3.14475 16.4081C3.10726 16.3161 3.06636 16.2275 3.02888 16.1388C2.99113 16.056 2.95924 15.9706 2.93345 15.8832L2.78009 15.4061C2.73579 15.2562 2.68467 15.1233 2.654 14.9972C2.62333 14.8711 2.59947 14.7518 2.57902 14.6564L2.47679 14.1827C2.45293 14.077 2.4393 14.0225 2.4393 14.0225C2.4393 14.0225 2.4393 14.077 2.46657 14.1861C2.49383 14.2951 2.52109 14.4519 2.55858 14.6598C2.58243 14.762 2.60289 14.8813 2.63015 15.0006C2.65742 15.1199 2.70853 15.263 2.75283 15.413C2.79714 15.5629 2.84826 15.7231 2.90278 15.8935C2.92605 15.9827 2.95801 16.0695 2.99821 16.1525L3.11408 16.4217C3.19587 16.6057 3.26743 16.8102 3.36967 17.0079C3.47191 17.2055 3.59119 17.41 3.71047 17.6281L3.80248 17.7917C3.83315 17.8428 3.87065 17.8939 3.90814 17.9485C3.9797 18.0541 4.05127 18.1632 4.12965 18.2893L4.35798 18.6301C4.44318 18.7391 4.5352 18.8448 4.62721 18.9709C5.45435 19.9808 6.4693 20.8211 7.61599 21.445L8.09992 21.7006C8.26691 21.779 8.44071 21.8472 8.61452 21.9222L8.88034 22.0312C8.96756 22.0707 9.05754 22.1037 9.14957 22.13L9.71188 22.3038L9.99474 22.389L10.2912 22.447L10.8876 22.5697C11.0887 22.6037 11.2966 22.614 11.5045 22.6378L11.818 22.6685C11.8725 22.6685 11.9237 22.6685 11.9782 22.6685H12.1349C12.5683 22.6841 13.0021 22.6693 13.4334 22.6242C13.6515 22.5969 13.873 22.5867 14.0911 22.5492L14.7523 22.4129C14.8647 22.389 14.9772 22.372 15.0931 22.3413L15.4338 22.2391C15.652 22.1675 15.8769 22.1062 16.095 22.0244C16.5358 21.8525 16.965 21.6521 17.3798 21.4246L17.6933 21.2508L17.8535 21.1622L18.0034 21.0599C18.2011 20.9236 18.4022 20.7839 18.6067 20.6476C18.8111 20.5113 18.9849 20.334 19.1758 20.1773C19.2678 20.0955 19.37 20.0205 19.4552 19.9319L19.7176 19.6627C20.0751 19.3041 20.4076 18.9215 20.7128 18.5176L21.1388 17.8735L21.2478 17.7133L21.3398 17.5429L21.5205 17.2021L21.7045 16.8613L21.8578 16.5001L21.9976 16.1286L22.076 15.9446L22.1339 15.7572C22.2123 15.5016 22.2907 15.2494 22.3656 14.9938C22.4406 14.7382 22.4713 14.4689 22.5258 14.2031C22.9026 12.0342 22.5578 9.80152 21.5443 7.84728C21.4148 7.60873 21.2853 7.37698 21.1558 7.14184L20.706 6.4841L20.5901 6.32052L20.464 6.17057L20.2084 5.86726L19.9528 5.56395L19.6733 5.29131L19.3939 5.01527L19.2712 4.88236L19.1213 4.75967L18.5215 4.27574C18.1074 3.98638 17.6748 3.72454 17.2264 3.49191L16.8856 3.3147C16.7732 3.25676 16.6539 3.21587 16.5448 3.16816C16.3165 3.07614 16.0916 2.9739 15.8632 2.88871L15.1646 2.67741L14.9908 2.62288L14.8136 2.5888L14.4728 2.51724C14.0106 2.42435 13.5426 2.36287 13.0721 2.33321C12.837 2.33321 12.6052 2.33321 12.3905 2.33321H12.0497C11.9339 2.33321 11.8214 2.35366 11.7089 2.36388L11.0274 2.43204C10.8058 2.46271 10.5911 2.51724 10.3764 2.55813C9.95256 2.6444 9.53476 2.75824 9.12571 2.89893L8.97576 2.94664C8.92464 2.94664 8.87693 2.98754 8.82922 3.00798L8.53954 3.13067C8.3487 3.21587 8.15445 3.29084 7.97042 3.38286L7.43878 3.67935L7.17296 3.82589C7.09116 3.87701 7.00937 3.93495 6.92758 3.99288L6.44365 4.33368C6.36513 4.38811 6.29002 4.44729 6.21873 4.51089L6.00062 4.69492C5.85407 4.81761 5.70753 4.93689 5.57121 5.05957L5.18952 5.45149C4.28448 6.39063 3.56935 7.49574 3.08341 8.70609C2.71228 9.61665 2.48243 10.5786 2.40181 11.5585C2.40181 11.6574 2.38137 11.7562 2.37455 11.8516C2.36453 11.9434 2.36453 12.0359 2.37455 12.1277V12.6287C2.37455 12.7854 2.37455 12.9285 2.37455 13.0581C2.37455 13.1876 2.40182 13.3068 2.41545 13.3988C2.43817 13.6101 2.45521 13.7703 2.46657 13.8794C2.44612 13.9952 2.45634 14.0498 2.45634 14.0498Z" fill="#263238"/>
<path d="M7.27606 12.8399C7.30541 12.1872 7.53593 11.5596 7.93601 11.0431C8.3118 10.5284 8.83633 10.1413 9.43892 9.93393C9.76247 9.83616 10.1023 9.80395 10.4384 9.83918C10.7746 9.87442 11.1003 9.97639 11.3966 10.1391C11.7469 10.339 12.0438 10.6206 12.2617 10.9599C12.4841 10.4848 12.8513 10.0925 13.3107 9.8394C13.7701 9.58628 14.298 9.4854 14.8183 9.55128C15.4462 9.65154 16.0275 9.94412 16.4821 10.3887C16.9682 10.8309 17.307 11.4116 17.4526 12.0524C17.6252 12.8661 17.5319 13.7137 17.1864 14.4704C16.7708 15.2416 16.18 15.9045 15.4617 16.4059C14.297 17.2544 12.7609 18.3303 12.7609 18.3303C12.7609 18.3303 11.2968 17.4263 9.98795 16.7941C9.19044 16.4339 8.49067 15.8882 7.94709 15.2024C7.4769 14.5068 7.24175 13.6789 7.27606 12.8399V12.8399Z" fill="#EC5E4A"/>
<path d="M6.76283 11.8135C6.79219 11.1608 7.02271 10.5332 7.42279 10.0167C7.79858 9.50199 8.32311 9.11488 8.92569 8.9075C9.24924 8.80972 9.58906 8.77751 9.92522 8.81275C10.2614 8.84798 10.5871 8.94996 10.8834 9.11269C11.2337 9.31253 11.5305 9.59412 11.7485 9.93347C11.9708 9.4584 12.3381 9.06609 12.7975 8.81297C13.2569 8.55985 13.7848 8.45897 14.3051 8.52484C14.933 8.6251 15.5143 8.91768 15.9689 9.36225C16.455 9.80446 16.7937 10.3852 16.9394 11.026C17.112 11.8397 17.0187 12.6873 16.6732 13.444C16.2575 14.2151 15.6668 14.878 14.9484 15.3794C13.7838 16.228 12.2476 17.3038 12.2476 17.3038C12.2476 17.3038 10.7835 16.3999 9.47473 15.7677C8.67722 15.4075 7.97745 14.8618 7.43387 14.176C6.96368 13.4804 6.72853 12.6525 6.76283 11.8135V11.8135Z" fill="white"/>
<defs>
<linearGradient id="paint0_linear" x1="10.6087" y1="2.09" x2="17.5371" y2="23.1319" gradientUnits="userSpaceOnUse">
<stop stop-color="#FF9788"/>
<stop offset="1" stop-color="#FF6F5B"/>
</linearGradient>
</defs>
</svg>
