<svg width="49" height="49" viewBox="0 0 49 49" fill="none" xmlns="http://www.w3.org/2000/svg">
<path d="M18.8371 43.1933C8.43365 40.1452 2.47095 29.2406 5.51905 18.8371C8.56715 8.43366 19.4718 2.47096 29.8752 5.51906C40.2787 8.56716 46.2414 19.4718 43.1933 29.8753C40.1452 40.2787 29.2406 46.2414 18.8371 43.1933Z" fill="url(#paint0_linear)"/>
<path d="M4.7065 40.0989C4.7065 40.0989 4.91898 40.0989 5.27756 40.2317C5.78323 40.4054 6.22354 40.7298 6.53923 41.1614C6.75831 41.4513 6.90822 41.7874 6.9775 42.1441C7.05585 42.5522 7.01434 42.9743 6.85798 43.3593C6.69891 43.8127 6.40478 44.2063 6.01516 44.4874C5.62555 44.7685 5.15917 44.9234 4.67882 44.9314C4.19846 44.9393 3.7272 44.7999 3.32849 44.5319C2.92977 44.2639 2.62276 43.8802 2.44877 43.4324C2.27519 43.0524 2.21745 42.6298 2.28276 42.2172C2.34726 41.8596 2.48764 41.5199 2.69446 41.2211C2.99544 40.7802 3.4241 40.4419 3.92292 40.2516C4.2815 40.1255 4.494 40.1255 4.494 40.1055H4.34791H4.16198C4.07617 40.1175 3.99168 40.1375 3.90964 40.1653C3.37475 40.3347 2.90891 40.6725 2.58156 41.1282C2.35396 41.4369 2.19955 41.7934 2.13002 42.1707C2.04937 42.6188 2.1025 43.0807 2.28276 43.4988C2.47724 43.9511 2.79186 44.3415 3.19249 44.6276C3.62342 44.9398 4.14119 45.1093 4.67328 45.1124C5.20437 45.0953 5.71615 44.9092 6.13418 44.5812C6.52641 44.2821 6.82763 43.8797 7.00407 43.4191C7.17551 42.9982 7.21713 42.5357 7.12359 42.091C7.01838 41.6324 6.79326 41.21 6.47124 40.867C6.14922 40.524 5.74188 40.2727 5.29085 40.1387C5.20851 40.1135 5.12405 40.0957 5.03852 40.0856H4.85259L4.7065 40.0989Z" fill="#263238"/>
<path d="M4.78619 27.3759C4.78619 27.3759 4.78619 27.2697 4.78619 27.0572C4.78619 26.8447 4.7397 26.5259 4.69986 26.1209C4.69986 25.915 4.66001 25.6826 4.63345 25.4568C4.60689 25.2311 4.63345 24.9256 4.63345 24.6201V23.644C4.62815 23.4663 4.63927 23.2885 4.66667 23.1128C4.66667 22.9268 4.69986 22.7343 4.71978 22.5417C4.89501 20.6424 5.35386 18.7802 6.08105 17.0169C7.03318 14.677 8.42641 12.5421 10.1848 10.7284L10.9286 9.97144C11.1942 9.73239 11.4797 9.50661 11.7586 9.26756L12.1769 8.90897C12.3179 8.78669 12.4665 8.67358 12.6218 8.57032L13.5581 7.90628C13.7175 7.79339 13.8702 7.68714 14.0362 7.5809L14.5409 7.302L15.5768 6.73093C15.9288 6.55164 16.3073 6.41219 16.6791 6.24618L17.2369 6.00713L17.5225 5.8876L17.8146 5.80128C18.6037 5.52318 19.4114 5.30128 20.2317 5.13724C20.6501 5.05755 21.0618 4.9513 21.4934 4.89154L22.7883 4.75873C23.0074 4.75873 23.2266 4.70561 23.4523 4.69897H24.1164C24.5613 4.69897 25.0062 4.69897 25.4444 4.69897C26.3568 4.75678 27.2642 4.87658 28.1604 5.05755L28.8244 5.197L29.1697 5.2634L29.5017 5.36965L30.8298 5.78135C31.2747 5.94072 31.7063 6.13994 32.1579 6.31923C32.377 6.41219 32.6028 6.49188 32.8219 6.60476L33.486 6.94342C34.3498 7.40139 35.1838 7.91374 35.9827 8.47735L37.1382 9.41365L37.4304 9.6527L37.7026 9.91167L38.2405 10.4429L38.7784 10.9675L39.2697 11.5519L39.7611 12.1362L40.0068 12.4284L40.226 12.7405C40.5115 13.1655 40.8037 13.5838 41.0958 14.0088L41.8462 15.3369C43.7934 19.1155 44.4577 23.4253 43.7387 27.615C43.6325 28.1196 43.5329 28.6309 43.4333 29.1356C43.3337 29.6403 43.1344 30.1184 42.9817 30.6098L42.8688 30.975L42.7227 31.3269L42.4306 32.0308L42.1384 32.7347L41.7798 33.3987L41.4279 34.0628L41.2486 34.3948L41.0427 34.7069L40.226 35.9486C39.6343 36.7282 38.9933 37.469 38.3069 38.1665L37.7956 38.6845C37.6296 38.8571 37.437 38.9966 37.2577 39.156C36.8858 39.4614 36.5339 39.7801 36.1554 40.0657L34.9933 40.8692L34.7012 41.0617C34.6031 41.1257 34.5011 41.1834 34.3957 41.2344L33.7914 41.5731C32.9914 42.0128 32.1641 42.401 31.3145 42.7351C30.8896 42.8879 30.4579 43.0074 30.0329 43.1468L29.3689 43.346C29.1564 43.4058 28.9373 43.439 28.7049 43.4855L27.4233 43.7511C26.9983 43.8241 26.5733 43.8507 26.1483 43.8972C25.3171 43.9875 24.4805 44.0185 23.6449 43.9902H23.3394L23.034 43.957L22.4231 43.9038C22.0246 43.8573 21.6196 43.8374 21.2344 43.771L20.0724 43.5386L19.5013 43.4257L18.9501 43.2597L17.8678 42.9277C17.6895 42.8757 17.5144 42.8136 17.3432 42.7418L16.8319 42.5293C16.4932 42.3832 16.1678 42.257 15.8292 42.1043L14.8929 41.6063C12.6699 40.4075 10.6993 38.7909 9.08917 36.8451C8.90988 36.626 8.73058 36.4268 8.56457 36.2143L8.11303 35.5502L7.68139 34.926C7.61499 34.8198 7.5353 34.7202 7.47554 34.6206C7.41577 34.521 7.35603 34.4081 7.3029 34.3018C7.07049 33.8835 6.84472 33.4851 6.63886 33.1066C6.43301 32.7281 6.29355 32.3296 6.12754 31.9711C6.0545 31.7918 5.97481 31.6191 5.90177 31.4465C5.82822 31.285 5.76609 31.1186 5.71584 30.9484L5.41701 30.0188C5.33069 29.7266 5.23109 29.4676 5.17132 29.2219C5.11156 28.9762 5.06507 28.7438 5.02523 28.5579L4.82603 27.6349C4.77955 27.429 4.75297 27.3228 4.75297 27.3228C4.75297 27.3228 4.75299 27.429 4.80611 27.6415C4.85923 27.854 4.91235 28.1595 4.98539 28.5645C5.03187 28.7637 5.07173 28.9962 5.12485 29.2286C5.17798 29.461 5.27757 29.7399 5.3639 30.0321C5.45022 30.3242 5.54983 30.6363 5.65608 30.9684C5.70141 31.1422 5.76368 31.3113 5.84201 31.473L6.06778 31.9976C6.22715 32.3562 6.3666 32.7546 6.56581 33.1398C6.76502 33.5249 6.99743 33.9233 7.22985 34.3483L7.40913 34.6671C7.46889 34.7667 7.54196 34.8663 7.615 34.9725C7.75445 35.1784 7.89389 35.3909 8.04662 35.6365L8.49152 36.3006C8.65753 36.5131 8.83682 36.7189 9.01611 36.9646C10.6278 38.9326 12.6054 40.5697 14.8397 41.7856L15.7827 42.2836C16.1081 42.4363 16.4467 42.5691 16.7854 42.7152L17.3033 42.9277C17.4733 43.0046 17.6486 43.0689 17.8279 43.1203L18.9236 43.4589L19.4747 43.6249L20.0524 43.7378L21.2145 43.9769C21.6063 44.0433 22.0114 44.0632 22.4164 44.1097L23.0273 44.1695C23.1336 44.1695 23.2332 44.1695 23.3394 44.1695H23.6449C24.4892 44.2 25.3346 44.1711 26.1749 44.0831C26.5999 44.03 27.0315 44.0101 27.4565 43.937L28.7447 43.6714C28.9639 43.6249 29.183 43.5917 29.4088 43.532L30.0728 43.3328C30.4978 43.1933 30.936 43.0738 31.361 42.9144C32.2199 42.5794 33.0561 42.189 33.8645 41.7457L34.4754 41.407L34.7875 41.2344L35.0796 41.0352C35.4648 40.7696 35.8566 40.4973 36.255 40.2317C36.6534 39.9661 36.9921 39.6208 37.3639 39.3153C37.5432 39.156 37.7424 39.0099 37.9085 38.8372L38.4198 38.3126C39.1162 37.614 39.7641 36.8685 40.3588 36.0815L41.1888 34.8264L41.4013 34.5143L41.5806 34.1823L41.9325 33.5183L42.2911 32.8542L42.5899 32.1503L42.8622 31.4265L43.0149 31.068L43.1278 30.7027C43.2805 30.2047 43.4333 29.7133 43.5794 29.2153C43.7254 28.7173 43.7852 28.1927 43.8915 27.6747C44.6257 23.4486 43.9539 19.0982 41.979 15.2904C41.7267 14.8256 41.4743 14.374 41.222 13.9158L40.3455 12.6342L40.1197 12.3155L39.874 12.0233L39.376 11.4323L38.878 10.8413L38.3334 10.3101L37.7889 9.77223L37.5499 9.51325L37.2577 9.2742L36.089 8.33126C35.2822 7.76744 34.4393 7.25724 33.5656 6.80397L32.9016 6.45867C32.6825 6.34579 32.4501 6.2661 32.2376 6.17314C31.7927 5.99385 31.3544 5.79463 30.9095 5.62862L29.5482 5.21692L29.2095 5.11068L28.8642 5.04427L28.2002 4.90482C27.2996 4.72384 26.3878 4.60404 25.471 4.54624C25.0128 4.54624 24.5613 4.54624 24.1429 4.54624H23.4789C23.2531 4.54624 23.034 4.58608 22.8148 4.606L21.4868 4.73881C21.0551 4.79857 20.6368 4.90482 20.2185 4.98451C19.3925 5.1526 18.5785 5.37441 17.7814 5.64855L17.4892 5.74151C17.3896 5.74151 17.2967 5.8212 17.2037 5.86104L16.6393 6.10009C16.2674 6.2661 15.8889 6.41219 15.5303 6.59148L14.4944 7.1692L13.9765 7.45473C13.8171 7.55434 13.6577 7.66722 13.4984 7.78011L12.5554 8.44415C12.4024 8.5502 12.2561 8.66552 12.1172 8.78945L11.6922 9.14803C11.4067 9.38708 11.1211 9.6195 10.8555 9.85855L10.1118 10.6222C8.34831 12.4521 6.95487 14.6054 6.00802 16.9638C5.28488 18.738 4.83702 20.6123 4.67994 22.5218C4.67994 22.7143 4.64011 22.9069 4.62683 23.0928C4.6073 23.2716 4.6073 23.452 4.62683 23.6307V24.6069C4.62683 24.9123 4.62683 25.1912 4.62683 25.4435C4.62683 25.6959 4.67995 25.9283 4.70651 26.1076C4.75078 26.5193 4.78397 26.8314 4.80611 27.0439C4.76627 27.2697 4.78619 27.3759 4.78619 27.3759Z" fill="#263238"/>
<path d="M14.1774 25.0186C14.2346 23.7468 14.6837 22.5239 15.4633 21.5174C16.1955 20.5146 17.2176 19.7603 18.3917 19.3562C19.0221 19.1657 19.6842 19.1029 20.3393 19.1716C20.9943 19.2403 21.629 19.439 22.2062 19.756C22.8888 20.1454 23.4672 20.6941 23.8919 21.3553C24.3251 20.4296 25.0407 19.6652 25.9359 19.172C26.831 18.6788 27.8595 18.4823 28.8735 18.6106C30.0969 18.806 31.2295 19.3761 32.1153 20.2423C33.0625 21.1039 33.7225 22.2355 34.0063 23.4841C34.3426 25.0696 34.1608 26.7212 33.4876 28.1955C32.6777 29.6981 31.5267 30.9898 30.127 31.9668C27.8577 33.6201 24.8645 35.7165 24.8645 35.7165C24.8645 35.7165 22.0117 33.9551 19.4615 32.7232C17.9075 32.0215 16.544 30.9581 15.4849 29.6219C14.5687 28.2664 14.1105 26.6532 14.1774 25.0186V25.0186Z" fill="#EC5E4A"/>
<path d="M13.1774 23.0186C13.2346 21.7468 13.6837 20.5239 14.4633 19.5174C15.1955 18.5146 16.2176 17.7603 17.3917 17.3562C18.0221 17.1657 18.6842 17.1029 19.3393 17.1716C19.9943 17.2403 20.629 17.439 21.2062 17.756C21.8888 18.1454 22.4672 18.6941 22.8919 19.3553C23.3251 18.4296 24.0407 17.6652 24.9359 17.172C25.831 16.6788 26.8595 16.4823 27.8735 16.6106C29.0969 16.806 30.2295 17.3761 31.1153 18.2423C32.0625 19.1039 32.7225 20.2355 33.0063 21.4841C33.3426 23.0696 33.1608 24.7212 32.4876 26.1955C31.6777 27.6981 30.5267 28.9898 29.127 29.9668C26.8577 31.6201 23.8645 33.7165 23.8645 33.7165C23.8645 33.7165 21.0117 31.9551 18.4615 30.7232C16.9075 30.0215 15.544 28.9581 14.4849 27.6219C13.5687 26.2664 13.1105 24.6532 13.1774 23.0186V23.0186Z" fill="white"/>
<defs>
<linearGradient id="paint0_linear" x1="20.671" y1="4.07237" x2="34.171" y2="45.0724" gradientUnits="userSpaceOnUse">
<stop stop-color="#FF9788"/>
<stop offset="1" stop-color="#FF6F5B"/>
</linearGradient>
</defs>
</svg>
