<svg width="35" height="35" viewBox="0 0 35 35" fill="none" xmlns="http://www.w3.org/2000/svg">
<path d="M13.5345 31.0345C6.0596 28.8445 1.77538 21.0094 3.96545 13.5345C6.15552 6.05961 13.9905 1.77539 21.4655 3.96546C28.9404 6.15553 33.2246 13.9905 31.0345 21.4655C28.8445 28.9404 21.0094 33.2246 13.5345 31.0345Z" fill="url(#paint0_linear)"/>
<path d="M3.38163 28.8112C3.38163 28.8112 3.5343 28.8112 3.79194 28.9066C4.15527 29.0314 4.47164 29.2645 4.69846 29.5746C4.85587 29.7829 4.96358 30.0244 5.01336 30.2807C5.06965 30.5739 5.03983 30.8772 4.92748 31.1538C4.81319 31.4795 4.60185 31.7624 4.32191 31.9644C4.04197 32.1663 3.70688 32.2776 3.36174 32.2833C3.01661 32.2891 2.678 32.1889 2.39153 31.9963C2.10505 31.8038 1.88446 31.528 1.75945 31.2063C1.63474 30.9333 1.59325 30.6296 1.64017 30.3332C1.68651 30.0762 1.78738 29.8322 1.93598 29.6175C2.15224 29.3007 2.46023 29.0576 2.81863 28.9209C3.07627 28.8303 3.22895 28.8303 3.22895 28.816H3.12399H2.9904C2.92874 28.8245 2.86804 28.8389 2.80909 28.8589C2.42477 28.9806 2.09006 29.2233 1.85486 29.5507C1.69133 29.7726 1.58039 30.0287 1.53043 30.2998C1.47248 30.6217 1.51065 30.9536 1.64017 31.254C1.7799 31.579 2.00596 31.8595 2.29381 32.0651C2.60344 32.2894 2.97546 32.4112 3.35777 32.4134C3.73935 32.4011 4.10707 32.2674 4.40743 32.0317C4.68925 31.8168 4.90567 31.5277 5.03244 31.1968C5.15562 30.8944 5.18553 30.5621 5.11832 30.2425C5.04273 29.913 4.88098 29.6096 4.64961 29.3631C4.41824 29.1166 4.12556 28.936 3.8015 28.8398C3.74233 28.8217 3.68165 28.8089 3.62019 28.8016H3.4866L3.38163 28.8112Z" fill="#263238"/>
<path d="M3.43889 19.6697C3.43889 19.6697 3.43889 19.5933 3.43889 19.4407C3.43889 19.288 3.40549 19.059 3.37686 18.7679C3.37686 18.62 3.34823 18.453 3.32915 18.2908C3.31007 18.1286 3.32915 17.9091 3.32915 17.6897V16.9883C3.32534 16.8606 3.33333 16.7328 3.35301 16.6066C3.35301 16.473 3.37686 16.3346 3.39118 16.1963C3.51708 14.8317 3.84676 13.4936 4.36926 12.2267C5.05336 10.5455 6.0544 9.01156 7.31783 7.70842L7.8522 7.16451C8.04304 6.99275 8.2482 6.83053 8.44859 6.65877L8.74917 6.40113C8.85042 6.31327 8.95718 6.23199 9.06883 6.1578L9.74157 5.68069C9.85607 5.59958 9.96581 5.52324 10.0851 5.4469L10.4477 5.24651L11.192 4.83619C11.4449 4.70737 11.7168 4.60718 11.984 4.4879L12.3848 4.31614L12.5899 4.23026L12.7999 4.16824C13.3668 3.96842 13.9471 3.80899 14.5366 3.69112C14.8371 3.63387 15.133 3.55753 15.4431 3.51459L16.3735 3.41916C16.5309 3.41916 16.6884 3.381 16.8506 3.37622H17.3277C17.6474 3.37622 17.967 3.37622 18.2819 3.37622C18.9375 3.41776 19.5894 3.50384 20.2333 3.63387L20.7104 3.73406L20.9585 3.78177L21.1971 3.85811L22.1513 4.15392C22.471 4.26843 22.7811 4.41156 23.1055 4.54038C23.263 4.60718 23.4252 4.66443 23.5827 4.74554L24.0598 4.98887C24.6805 5.31792 25.2796 5.68605 25.8537 6.09101L26.6839 6.76373L26.8938 6.9355L27.0894 7.12157L27.4759 7.50326L27.8624 7.88018L28.2154 8.30004L28.5685 8.7199L28.745 8.92983L28.9025 9.15408C29.1076 9.45943 29.3176 9.76001 29.5275 10.0654L30.0666 11.0196C31.4657 13.7346 31.943 16.8312 31.4264 19.8414C31.3501 20.204 31.2785 20.5714 31.2069 20.934C31.1354 21.2966 30.9922 21.6402 30.8825 21.9932L30.8014 22.2556L30.6964 22.5085L30.4865 23.0142L30.2766 23.52L30.0189 23.9971L29.766 24.4742L29.6372 24.7128L29.4893 24.937L28.9025 25.8292C28.4774 26.3893 28.0168 26.9216 27.5236 27.4228L27.1562 27.7949C27.037 27.919 26.8986 28.0192 26.7698 28.1337C26.5026 28.3532 26.2497 28.5822 25.9778 28.7873L25.1428 29.3646L24.9329 29.503C24.8624 29.5489 24.7891 29.5904 24.7134 29.627L24.2792 29.8704C23.7044 30.1863 23.11 30.4652 22.4996 30.7053C22.1942 30.8151 21.8841 30.9009 21.5788 31.0011L21.1017 31.1443C20.949 31.1872 20.7915 31.2111 20.6245 31.2445L19.7037 31.4353C19.3984 31.4878 19.093 31.5069 18.7877 31.5403C18.1904 31.6051 17.5893 31.6275 16.9889 31.6071H16.7695L16.55 31.5832L16.111 31.545C15.8248 31.5116 15.5337 31.4973 15.257 31.4496L14.4221 31.2826L14.0117 31.2015L13.6157 31.0822L12.838 30.8437C12.71 30.8063 12.5841 30.7617 12.4611 30.7101L12.0937 30.5574C11.8504 30.4525 11.6166 30.3618 11.3733 30.2521L10.7006 29.8942C9.10338 29.0329 7.68749 27.8714 6.5306 26.4733C6.40178 26.3159 6.27295 26.1727 6.15367 26.0201L5.82924 25.5429L5.5191 25.0945C5.47139 25.0181 5.41414 24.9466 5.3712 24.875C5.32826 24.8034 5.28533 24.7223 5.24716 24.646C5.08017 24.3454 4.91795 24.0591 4.77004 23.7872C4.62214 23.5152 4.52194 23.2289 4.40266 22.9713C4.35017 22.8425 4.29292 22.7184 4.24044 22.5944C4.18759 22.4784 4.14295 22.3588 4.10685 22.2365L3.89214 21.5686C3.83012 21.3587 3.75855 21.1726 3.71561 20.9961C3.67267 20.8195 3.63927 20.6525 3.61065 20.5189L3.46752 19.8557C3.43412 19.7078 3.41503 19.6315 3.41503 19.6315C3.41503 19.6315 3.41504 19.7078 3.4532 19.8605C3.49137 20.0132 3.52954 20.2327 3.58202 20.5237C3.61542 20.6668 3.64406 20.8338 3.68222 21.0008C3.72039 21.1678 3.79195 21.3682 3.85398 21.5781C3.916 21.7881 3.98757 22.0123 4.06391 22.2509C4.09648 22.3758 4.14123 22.4973 4.1975 22.6135L4.35972 22.9904C4.47423 23.248 4.57442 23.5343 4.71755 23.811C4.86069 24.0878 5.02768 24.374 5.19467 24.6794L5.32348 24.9084C5.36642 24.98 5.41892 25.0515 5.4714 25.1279C5.5716 25.2758 5.67179 25.4284 5.78152 25.605L6.10118 26.0821C6.22046 26.2348 6.34929 26.3827 6.47811 26.5592C7.6361 27.9732 9.05703 29.1495 10.6624 30.0231L11.3399 30.3809C11.5737 30.4906 11.817 30.586 12.0603 30.691L12.4325 30.8437C12.5546 30.8989 12.6806 30.9452 12.8094 30.9821L13.5966 31.2254L13.9927 31.3447L14.4077 31.4258L15.2427 31.5975C15.5242 31.6452 15.8152 31.6596 16.1063 31.693L16.5452 31.7359C16.6216 31.7359 16.6931 31.7359 16.7695 31.7359H16.9889C17.5956 31.7578 18.203 31.7371 18.8067 31.6739C19.1121 31.6357 19.4222 31.6214 19.7276 31.5689L20.6532 31.3781C20.8106 31.3447 20.9681 31.3208 21.1303 31.2779L21.6074 31.1347C21.9128 31.0345 22.2276 30.9487 22.533 30.8341C23.1501 30.5935 23.7509 30.313 24.3317 29.9944L24.7707 29.7511L24.9949 29.627L25.2048 29.4839C25.4816 29.2931 25.7631 29.0974 26.0493 28.9066C26.3356 28.7158 26.5789 28.4677 26.8461 28.2482C26.9749 28.1337 27.1181 28.0287 27.2373 27.9047L27.6047 27.5277C28.1051 27.0258 28.5706 26.4902 28.9979 25.9246L29.5943 25.0229L29.747 24.7987L29.8758 24.5601L30.1287 24.083L30.3863 23.6059L30.601 23.1001L30.7966 22.5801L30.9064 22.3224L30.9875 22.06C31.0972 21.7022 31.2069 21.3491 31.3119 20.9913C31.4169 20.6334 31.4598 20.2565 31.5361 19.8844C32.0637 16.8479 31.581 13.7221 30.1621 10.9862C29.9807 10.6522 29.7994 10.3278 29.6181 9.99857L28.9884 9.07774L28.8261 8.84873L28.6496 8.63879L28.2918 8.21416L27.9339 7.78953L27.5427 7.40784L27.1515 7.02138L26.9797 6.8353L26.7698 6.66354L25.9301 5.98604C25.3504 5.58093 24.7447 5.21435 24.117 4.88868L23.6399 4.64058C23.4825 4.55947 23.3155 4.50222 23.1628 4.43542C22.8431 4.3066 22.5282 4.16346 22.2086 4.04419L21.2305 3.74837L20.9871 3.67204L20.739 3.62432L20.2619 3.52413C19.6149 3.39409 18.9597 3.30802 18.301 3.26649C17.9718 3.26649 17.6473 3.26649 17.3468 3.26649H16.8697C16.7074 3.26649 16.55 3.29512 16.3925 3.30943L15.4383 3.40485C15.1282 3.44779 14.8276 3.52413 14.527 3.58138C13.9336 3.70216 13.3487 3.86153 12.776 4.0585L12.5661 4.12529C12.4945 4.12529 12.4277 4.18255 12.3609 4.21117L11.9554 4.38294C11.6882 4.50221 11.4162 4.60718 11.1586 4.736L10.4143 5.15109L10.0422 5.35625C9.92764 5.42782 9.81313 5.50893 9.69863 5.59003L9.02112 6.06715C8.91119 6.14335 8.80604 6.2262 8.70624 6.31525L8.40088 6.57289C8.19572 6.74465 7.99055 6.91164 7.79971 7.0834L7.26534 7.63208C5.99828 8.94688 4.9971 10.494 4.31678 12.1885C3.7972 13.4633 3.47542 14.81 3.36255 16.182C3.36255 16.3203 3.33393 16.4587 3.32439 16.5923C3.31036 16.7207 3.31036 16.8503 3.32439 16.9788V17.6801C3.32439 17.8996 3.32439 18.1 3.32439 18.2813C3.32439 18.4626 3.36256 18.6296 3.38164 18.7584C3.41345 19.0542 3.4373 19.2784 3.4532 19.4311C3.42458 19.5933 3.43889 19.6697 3.43889 19.6697Z" fill="#263238"/>
<path d="M10.1865 17.9759C10.2276 17.0621 10.5503 16.1835 11.1104 15.4603C11.6365 14.7398 12.3709 14.1978 13.2145 13.9075C13.6675 13.7706 14.1432 13.7255 14.6138 13.7749C15.0844 13.8242 15.5405 13.967 15.9552 14.1948C16.4457 14.4746 16.8612 14.8688 17.1664 15.3439C17.4777 14.6788 17.9919 14.1295 18.635 13.7752C19.2782 13.4208 20.0172 13.2796 20.7457 13.3718C21.6247 13.5122 22.4385 13.9218 23.0749 14.5442C23.7555 15.1632 24.2298 15.9762 24.4336 16.8734C24.6753 18.0126 24.5446 19.1992 24.061 20.2586C23.4791 21.3382 22.652 22.2663 21.6463 22.9682C20.0159 24.1562 17.8652 25.6624 17.8652 25.6624C17.8652 25.6624 15.8155 24.3968 13.9831 23.5117C12.8666 23.0075 11.8869 22.2435 11.1259 21.2834C10.4677 20.3095 10.1384 19.1504 10.1865 17.9759V17.9759Z" fill="#EC5E4A"/>
<path d="M9.46797 16.5389C9.50907 15.6251 9.83179 14.7465 10.3919 14.0233C10.918 13.3028 11.6524 12.7608 12.496 12.4705C12.9489 12.3336 13.4247 12.2885 13.8953 12.3378C14.3659 12.3872 14.822 12.5299 15.2367 12.7578C15.7272 13.0375 16.1427 13.4318 16.4479 13.9069C16.7592 13.2418 17.2734 12.6925 17.9165 12.3382C18.5597 11.9838 19.2987 11.8426 20.0272 11.9348C20.9062 12.0751 21.72 12.4848 22.3564 13.1072C23.037 13.7262 23.5112 14.5392 23.7151 15.4364C23.9568 16.5756 23.8261 17.7622 23.3425 18.8216C22.7605 19.9012 21.9335 20.8293 20.9278 21.5312C19.2973 22.7191 17.1467 24.2254 17.1467 24.2254C17.1467 24.2254 15.097 22.9598 13.2646 22.0747C12.1481 21.5705 11.1684 20.8065 10.4074 19.8464C9.74915 18.8725 9.41994 17.7134 9.46797 16.5389V16.5389Z" fill="white"/>
<defs>
<linearGradient id="paint0_linear" x1="14.8521" y1="2.92601" x2="24.5519" y2="32.3846" gradientUnits="userSpaceOnUse">
<stop stop-color="#FF9788"/>
<stop offset="1" stop-color="#FF6F5B"/>
</linearGradient>
</defs>
</svg>
