<svg width="20" height="20" viewBox="0 0 20 20" fill="none" xmlns="http://www.w3.org/2000/svg">
<rect x="0.5" y="0.5" width="19" height="19" rx="3.5" fill="white" stroke="#EBEBEB"/>
<path fill-rule="evenodd" clip-rule="evenodd" d="M16.4329 9.90068C16.4329 13.5083 13.5083 16.4329 9.90067 16.4329C6.293 16.4329 3.36841 13.5083 3.36841 9.90068C3.36841 6.29302 6.293 3.36842 9.90067 3.36842C13.5083 3.36842 16.4329 6.29302 16.4329 9.90068ZM14.4355 9.91936C14.4355 12.3245 12.4857 14.2742 10.0806 14.2742C7.67552 14.2742 5.72579 12.3245 5.72579 9.91936C5.72579 7.51425 7.67552 5.56452 10.0806 5.56452C12.4857 5.56452 14.4355 7.51425 14.4355 9.91936ZM13.0122 10.1062C12.8035 10.1694 12.582 10.2034 12.3527 10.2034C11.0978 10.2034 10.0806 9.18612 10.0806 7.93128C10.0806 7.5974 10.1526 7.28034 10.2819 6.99479C10.2 6.98802 10.117 6.98457 10.0333 6.98457C8.38633 6.98457 7.05119 8.31971 7.05119 9.96669C7.05119 10.4615 7.17171 10.9282 7.385 11.339C7.57314 11.1631 7.82587 11.0554 8.10375 11.0554C8.6851 11.0554 9.15638 11.5267 9.15638 12.108C9.15638 12.3466 9.07698 12.5667 8.94317 12.7433C9.28084 12.8759 9.64856 12.9488 10.0333 12.9488C11.6335 12.9488 12.9394 11.6884 13.0122 10.1062Z" fill="#EFAF64"/>
</svg>
