<svg width="74" height="74" viewBox="0 0 74 74" fill="none" xmlns="http://www.w3.org/2000/svg">
<path d="M64.7506 10.7917L61.7329 12.8035" stroke="#323232" stroke-width="4" stroke-linecap="round" stroke-linejoin="round"/>
<path d="M67.8339 27.75H64.8162" stroke="#323232" stroke-width="4" stroke-linecap="round" stroke-linejoin="round"/>
<path d="M9.25 10.7917L12.2677 12.8035" stroke="#323232" stroke-width="4" stroke-linecap="round" stroke-linejoin="round"/>
<path d="M6.16666 27.75H9.18431" stroke="#323232" stroke-width="4" stroke-linecap="round" stroke-linejoin="round"/>
<path d="M43.1666 61.6667C42.4486 62.6241 41.5176 63.4011 40.4473 63.9363C39.3769 64.4715 38.1967 64.7501 37 64.7501C35.8033 64.7501 34.6231 64.4715 33.5527 63.9363C32.4824 63.4011 31.5513 62.6241 30.8333 61.6667" stroke="#323232" stroke-width="4" stroke-linecap="round" stroke-linejoin="round"/>
<path d="M19.6559 40.2449V29.677C19.6559 25.0772 21.4832 20.6657 24.7358 17.4131C27.9884 14.1605 32.3998 12.3333 36.9997 12.3333V12.3333C41.5995 12.3333 46.011 14.1605 49.2636 17.4131C52.5161 20.6657 54.3434 25.0772 54.3434 29.677V40.245H54.3303L58.3078 44.2256C59.1698 45.0882 59.7567 46.1871 59.9942 47.3833C60.2317 48.5795 60.1092 49.8193 59.6422 50.9458C59.1752 52.0724 58.3846 53.0352 57.3705 53.7125C56.3563 54.3898 55.1641 54.7512 53.9445 54.751H20.0548C18.8353 54.7512 17.6431 54.3898 16.6289 53.7125C15.6147 53.0352 14.8242 52.0724 14.3571 50.9458C13.8901 49.8193 13.7676 48.5795 14.0051 47.3833C14.2427 46.1871 14.8295 45.0882 15.6915 44.2256L19.669 40.245" stroke="#323232" stroke-width="4" stroke-linecap="round" stroke-linejoin="round"/>
</svg>
