<svg width="74" height="74" viewBox="0 0 74 74" fill="none" xmlns="http://www.w3.org/2000/svg">
<path d="M49.3333 64.75H24.6667C21.2596 64.75 18.5 61.9904 18.5 58.5833V15.4167C18.5 12.0096 21.2596 9.25 24.6667 9.25H49.3333C52.7404 9.25 55.5 12.0096 55.5 15.4167V58.5833C55.5 61.9904 52.7404 64.75 49.3333 64.75Z" stroke="#323232" stroke-width="4" stroke-linecap="round" stroke-linejoin="round"/>
<path d="M36.9969 53.1875C36.5714 53.1875 36.2261 53.5328 36.2292 53.9583C36.2292 54.3838 36.5745 54.7292 37 54.7292C37.4255 54.7292 37.7708 54.3838 37.7708 53.9583C37.7708 53.5328 37.4255 53.1875 36.9969 53.1875Z" stroke="#323232" stroke-width="4" stroke-linecap="round" stroke-linejoin="round"/>
<path d="M33.1458 18.5H40.8542" stroke="#323232" stroke-width="4" stroke-linecap="round" stroke-linejoin="round"/>
</svg>
