<svg width="24" height="24" viewBox="0 0 24 24" fill="none" xmlns="http://www.w3.org/2000/svg">
<path d="M17 21H7H6.99C5.88 21 4.99 20.1 4.99 19C4.98 18.99 4.98 18.99 4.99 18.99V11.99L4.98 11.98C4.97 10.87 5.87 9.97996 6.97 9.97996C6.97 9.97896 6.97 9.97996 6.97 9.97996H16.96V9.97896C18.06 9.96896 18.95 10.869 18.95 11.969C18.95 11.969 18.95 11.969 18.949 11.969V18.969C18.949 20.069 18.049 20.959 16.949 20.959C16.939 20.959 16.939 20.949 16.939 20.949L17 21Z" stroke="#323232" stroke-width="1.5" stroke-linecap="round" stroke-linejoin="round"/>
<path d="M12.03 15.46C12.05 15.48 12.05 15.51 12.03 15.53C12 15.55 11.97 15.55 11.95 15.53C11.92 15.5 11.92 15.47 11.94 15.45C11.94 15.44 11.94 15.44 11.94 15.44V15.43C11.96 15.4 11.99 15.4 12.01 15.43" stroke="#323232" stroke-width="1.5" stroke-linecap="round" stroke-linejoin="round"/>
<path d="M15.437 17V14" stroke="#323232" stroke-width="1.5" stroke-linecap="round" stroke-linejoin="round"/>
<path d="M8.00001 9.99999V6.99999H7.99001C7.99001 4.78999 9.78001 2.99999 11.98 2.98999C14.18 2.98999 15.97 4.77999 15.98 6.98999V9.98999" stroke="#323232" stroke-width="1.5" stroke-linecap="round" stroke-linejoin="round"/>
<path d="M8.59001 15.46C8.61001 15.48 8.61001 15.51 8.59001 15.53C8.56001 15.55 8.53001 15.55 8.51001 15.53C8.48001 15.5 8.48001 15.47 8.50001 15.45C8.50001 15.44 8.50001 15.44 8.50001 15.44V15.43C8.52001 15.4 8.55001 15.4 8.57001 15.43" stroke="#323232" stroke-width="1.5" stroke-linecap="round" stroke-linejoin="round"/>
</svg>
