<svg width="63" height="63" viewBox="0 0 63 63" fill="none" xmlns="http://www.w3.org/2000/svg">
<path fill-rule="evenodd" clip-rule="evenodd" d="M62.0564 31.0282C62.0564 48.1646 48.1646 62.0564 31.0282 62.0564C13.8918 62.0564 0 48.1646 0 31.0282C0 13.8918 13.8918 0 31.0282 0C48.1646 0 62.0564 13.8918 62.0564 31.0282ZM52.5686 31.1169C52.5686 42.5412 43.3073 51.8024 31.8831 51.8024C20.4588 51.8024 11.1976 42.5412 11.1976 31.1169C11.1976 19.6927 20.4588 10.4315 31.8831 10.4315C43.3073 10.4315 52.5686 19.6927 52.5686 31.1169ZM45.8081 32.0043C44.8166 32.3046 43.7649 32.466 42.6755 32.466C36.715 32.466 31.883 27.6341 31.883 21.6736C31.883 20.0877 32.2251 18.5816 32.8395 17.2253C32.45 17.1931 32.056 17.1767 31.6582 17.1767C23.8351 17.1767 17.4932 23.5186 17.4932 31.3418C17.4932 33.6923 18.0657 35.9091 19.0789 37.8604C19.9725 37.0247 21.1731 36.5132 22.4931 36.5132C25.2546 36.5132 27.4931 38.7517 27.4931 41.5132C27.4931 42.6466 27.116 43.692 26.4803 44.5306C28.0842 45.1608 29.8308 45.5068 31.6582 45.5068C39.2593 45.5068 45.462 39.5199 45.8081 32.0043Z" fill="#FF3A44"/>
</svg>
