<svg width="211" height="60" viewBox="0 0 211 60" fill="none" xmlns="http://www.w3.org/2000/svg">
<rect width="211" height="60" rx="18" fill="#15CF74" fill-opacity="0.2"/>
<path d="M44.1213 30.462C44.5893 30.462 44.9433 30.366 45.1833 30.174C45.4233 29.97 45.5433 29.7 45.5433 29.364V27.654H44.2833C43.7793 27.654 43.4193 27.804 43.2033 28.104C42.9873 28.392 42.8793 28.77 42.8793 29.238C42.8793 29.67 42.9753 29.982 43.1673 30.174C43.3593 30.366 43.6773 30.462 44.1213 30.462ZM47.3073 29.778C47.3073 30.162 47.3913 30.468 47.5593 30.696C47.7273 30.912 47.9913 31.02 48.3513 31.02H48.7653C48.9213 31.02 49.0233 31.104 49.0713 31.272C49.1313 31.428 49.1613 31.662 49.1613 31.974C49.1613 32.322 49.1313 32.58 49.0713 32.748C49.0233 32.916 48.9213 33 48.7653 33H48.3513C47.7393 33 47.2413 32.892 46.8573 32.676C46.4853 32.46 46.2033 32.094 46.0113 31.578C45.7113 31.914 45.3513 32.13 44.9313 32.226C44.5113 32.31 44.1153 32.352 43.7433 32.352C42.8793 32.352 42.2253 32.106 41.7813 31.614C41.3373 31.11 41.1153 30.366 41.1153 29.382C41.1153 28.938 41.1753 28.506 41.2953 28.086C41.4273 27.654 41.6133 27.27 41.8533 26.934C42.1053 26.598 42.4173 26.328 42.7893 26.124C43.1733 25.92 43.6173 25.818 44.1213 25.818H45.5433V24.612H47.3073V29.778ZM50.0178 31.02C50.8218 31.02 51.2238 30.63 51.2238 29.85V27.726H53.0778V29.85C53.0778 30.27 53.2038 30.57 53.4558 30.75C53.7198 30.93 54.0258 31.02 54.3738 31.02H54.8418C55.1178 31.02 55.2558 31.338 55.2558 31.974C55.2558 32.658 55.1178 33 54.8418 33H54.3198C53.8638 33 53.4498 32.928 53.0778 32.784C52.7058 32.628 52.3818 32.322 52.1058 31.866C51.8058 32.322 51.4818 32.628 51.1338 32.784C50.7858 32.928 50.4138 33 50.0178 33H48.7578C48.6018 33 48.4998 32.922 48.4518 32.766C48.3918 32.598 48.3618 32.358 48.3618 32.046C48.3618 31.698 48.3918 31.44 48.4518 31.272C48.4998 31.104 48.6018 31.02 48.7578 31.02H50.0178ZM54.1398 25.62H52.2678V23.856H54.1398V25.62ZM51.5658 25.62H49.6938V23.856H51.5658V25.62ZM56.4598 31.02C56.6518 31.02 56.8198 31.026 56.9638 31.038C57.1078 31.038 57.2398 31.044 57.3598 31.056C57.4918 31.068 57.6178 31.086 57.7378 31.11C57.8578 31.134 57.9898 31.164 58.1338 31.2C57.7138 31.02 57.3778 30.834 57.1258 30.642C56.8858 30.438 56.6998 30.222 56.5678 29.994C56.4358 29.766 56.3458 29.52 56.2978 29.256C56.2618 28.98 56.2438 28.68 56.2438 28.356C56.2438 28.032 56.3038 27.696 56.4238 27.348C56.5558 27 56.7478 26.688 56.9998 26.412C57.2518 26.136 57.5638 25.908 57.9358 25.728C58.3198 25.548 58.7578 25.458 59.2498 25.458C59.7178 25.458 60.1378 25.518 60.5098 25.638C60.8938 25.758 61.2238 25.956 61.4998 26.232C61.7758 26.508 61.9858 26.874 62.1298 27.33C62.2858 27.774 62.3638 28.326 62.3638 28.986V29.904C62.3638 30.876 62.0818 31.638 61.5178 32.19C60.9658 32.73 60.0898 33 58.8898 33H54.8398C54.6838 33 54.5818 32.922 54.5338 32.766C54.4738 32.598 54.4438 32.358 54.4438 32.046C54.4438 31.698 54.4738 31.44 54.5338 31.272C54.5818 31.104 54.6838 31.02 54.8398 31.02H56.4598ZM59.1778 27.438C58.7578 27.438 58.4458 27.576 58.2418 27.852C58.0378 28.116 57.9358 28.398 57.9358 28.698C57.9358 28.866 57.9538 29.028 57.9898 29.184C58.0378 29.328 58.1398 29.478 58.2958 29.634C58.4518 29.79 58.6858 29.958 58.9978 30.138C59.3098 30.318 59.7418 30.522 60.2938 30.75C60.3898 30.63 60.4618 30.468 60.5098 30.264C60.5698 30.048 60.5998 29.838 60.5998 29.634V29.166C60.5998 28.662 60.4978 28.248 60.2938 27.924C60.0898 27.6 59.7178 27.438 59.1778 27.438ZM60.2578 23.964H58.2238V22.128H60.2578V23.964ZM66.6425 32.712C66.6425 33.36 66.5345 33.966 66.3185 34.53C66.1025 35.094 65.8025 35.586 65.4185 36.006C65.0465 36.426 64.5965 36.756 64.0685 36.996C63.5525 37.236 62.9885 37.356 62.3765 37.356H61.2425L61.1525 35.394H61.9085C62.4485 35.394 62.9105 35.316 63.2945 35.16C63.6665 35.016 63.9725 34.818 64.2125 34.566C64.4525 34.314 64.6265 34.026 64.7345 33.702C64.8425 33.378 64.8965 33.048 64.8965 32.712V27.726H66.7325V29.868C66.7325 30.252 66.8465 30.54 67.0745 30.732C67.3145 30.924 67.6145 31.02 67.9745 31.02H68.1725C68.4365 31.02 68.5685 31.338 68.5685 31.974C68.5685 32.658 68.4365 33 68.1725 33H67.9745C67.7345 33 67.4945 32.964 67.2545 32.892C67.0145 32.808 66.8105 32.646 66.6425 32.406V32.712ZM68.9561 31.02C69.7841 31.02 70.1981 30.63 70.1981 29.85V27.726H72.0161V29.85C72.0161 30.27 72.1421 30.57 72.3941 30.75C72.6581 30.93 72.9581 31.02 73.2941 31.02C74.1941 31.02 74.6441 30.63 74.6441 29.85V27.726H76.4801V29.85C76.4801 30.27 76.5881 30.57 76.8041 30.75C77.0321 30.93 77.2961 31.02 77.5961 31.02C78.3521 31.02 78.7301 30.63 78.7301 29.85V27.726H80.5661V29.85C80.5661 30.27 80.6921 30.57 80.9441 30.75C81.2081 30.93 81.5021 31.02 81.8261 31.02H82.2401C82.3961 31.02 82.4981 31.104 82.5461 31.272C82.6061 31.428 82.6361 31.662 82.6361 31.974C82.6361 32.322 82.6061 32.58 82.5461 32.748C82.4981 32.916 82.3961 33 82.2401 33H81.8261C81.3701 33 80.9501 32.928 80.5661 32.784C80.1941 32.628 79.8701 32.322 79.5941 31.866C79.3061 32.322 78.9761 32.628 78.6041 32.784C78.2441 32.928 77.9081 33 77.5961 33C77.1761 33 76.7921 32.928 76.4441 32.784C76.1081 32.628 75.8021 32.322 75.5261 31.866C75.2381 32.322 74.8961 32.628 74.5001 32.784C74.1161 32.928 73.7141 33 73.2941 33C72.8381 33 72.4181 32.928 72.0341 32.784C71.6621 32.628 71.3381 32.322 71.0621 31.866C70.7741 32.322 70.4501 32.628 70.0901 32.784C69.7301 32.928 69.3461 33 68.9381 33H68.1641C68.0081 33 67.9061 32.922 67.8581 32.766C67.7981 32.598 67.7681 32.358 67.7681 32.046C67.7681 31.698 67.7981 31.44 67.8581 31.272C67.9061 31.104 68.0081 31.02 68.1641 31.02H68.9561ZM76.4981 23.1H74.5901V21.354H76.4981V23.1ZM77.7581 25.62H75.8861V23.856H77.7581V25.62ZM75.1841 25.62H73.3121V23.856H75.1841V25.62ZM83.5041 31.02C84.3081 31.02 84.7101 30.63 84.7101 29.85V27.726H86.5641V29.85C86.5641 30.27 86.6901 30.57 86.9421 30.75C87.2061 30.93 87.5121 31.02 87.8601 31.02H88.3281C88.6041 31.02 88.7421 31.338 88.7421 31.974C88.7421 32.658 88.6041 33 88.3281 33H87.8061C87.3501 33 86.9361 32.928 86.5641 32.784C86.1921 32.628 85.8681 32.322 85.5921 31.866C85.2921 32.322 84.9681 32.628 84.6201 32.784C84.2721 32.928 83.9001 33 83.5041 33H82.2441C82.0881 33 81.9861 32.922 81.9381 32.766C81.8781 32.598 81.8481 32.358 81.8481 32.046C81.8481 31.698 81.8781 31.44 81.9381 31.272C81.9861 31.104 82.0881 31.02 82.2441 31.02H83.5041ZM87.5001 36.78H85.6461V35.016H87.5001V36.78ZM84.9081 36.78H83.0541V35.016H84.9081V36.78ZM89.9822 31.02C90.7862 31.02 91.1882 30.63 91.1882 29.85V27.726H93.0242V29.976C93.0242 30.972 92.7722 31.728 92.2682 32.244C91.7642 32.748 91.0562 33 90.1442 33H88.3262C88.1702 33 88.0682 32.922 88.0202 32.766C87.9602 32.598 87.9302 32.358 87.9302 32.046C87.9302 31.698 87.9602 31.44 88.0202 31.272C88.0682 31.104 88.1702 31.02 88.3262 31.02H89.9822ZM91.5302 39.3H89.6222V37.536H91.5302V39.3ZM92.7902 36.78H90.9182V35.016H92.7902V36.78ZM90.2162 36.78H88.3442V35.016H90.2162V36.78ZM100.208 33C99.716 33 99.29 32.928 98.93 32.784C98.582 32.628 98.294 32.424 98.066 32.172C97.85 31.92 97.688 31.626 97.58 31.29C97.484 30.954 97.436 30.6 97.436 30.228V27.672H99.272V29.76C99.272 30.156 99.356 30.468 99.524 30.696C99.704 30.912 100.07 31.02 100.622 31.02H106.274C106.706 31.02 107.012 30.924 107.192 30.732C107.384 30.528 107.48 30.234 107.48 29.85V27.726H109.316V30.282C109.316 30.738 109.238 31.14 109.082 31.488C108.926 31.824 108.716 32.106 108.452 32.334C108.2 32.55 107.906 32.718 107.57 32.838C107.246 32.946 106.91 33 106.562 33H100.208ZM105.59 26.268H103.718V24.504H105.59V26.268ZM103.016 26.268H101.144V24.504H103.016V26.268ZM113.918 33C113.582 33 113.258 32.958 112.946 32.874C112.646 32.778 112.382 32.622 112.154 32.406C111.926 32.19 111.746 31.908 111.614 31.56C111.482 31.2 111.416 30.756 111.416 30.228V21.84H113.252V29.778C113.252 30.162 113.336 30.468 113.504 30.696C113.684 30.912 113.948 31.02 114.296 31.02H114.71C114.974 31.02 115.106 31.338 115.106 31.974C115.106 32.658 114.974 33 114.71 33H113.918ZM114.873 31.02C115.281 31.02 115.599 30.942 115.827 30.786C116.055 30.618 116.169 30.348 116.169 29.976V29.58C116.169 29.1 116.235 28.656 116.367 28.248C116.511 27.84 116.715 27.492 116.979 27.204C117.243 26.916 117.561 26.694 117.933 26.538C118.317 26.37 118.743 26.286 119.211 26.286C119.703 26.286 120.135 26.37 120.507 26.538C120.891 26.694 121.209 26.922 121.461 27.222C121.713 27.51 121.905 27.852 122.037 28.248C122.169 28.644 122.235 29.076 122.235 29.544V29.886C122.235 30.318 122.361 30.618 122.613 30.786C122.877 30.942 123.153 31.02 123.441 31.02H123.693C123.849 31.02 123.951 31.104 123.999 31.272C124.059 31.428 124.089 31.662 124.089 31.974C124.089 32.322 124.059 32.58 123.999 32.748C123.951 32.916 123.849 33 123.693 33H123.441C123.093 33 122.739 32.928 122.379 32.784C122.019 32.628 121.707 32.304 121.443 31.812C121.119 32.304 120.753 32.628 120.345 32.784C119.949 32.928 119.541 33 119.121 33C118.641 33 118.191 32.91 117.771 32.73C117.363 32.538 117.045 32.238 116.817 31.83C116.589 32.298 116.295 32.61 115.935 32.766C115.575 32.922 115.221 33 114.873 33H114.711C114.555 33 114.453 32.922 114.405 32.766C114.345 32.598 114.315 32.358 114.315 32.046C114.315 31.698 114.345 31.44 114.405 31.272C114.453 31.104 114.555 31.02 114.711 31.02H114.873ZM120.471 29.724C120.471 29.316 120.375 28.974 120.183 28.698C120.003 28.422 119.673 28.284 119.193 28.284C118.737 28.284 118.407 28.422 118.203 28.698C118.011 28.962 117.915 29.31 117.915 29.742C117.915 30.162 118.029 30.48 118.257 30.696C118.485 30.912 118.797 31.02 119.193 31.02C120.045 31.02 120.471 30.588 120.471 29.724ZM124.953 31.02C125.757 31.02 126.159 30.63 126.159 29.85V27.726H128.013V29.85C128.013 30.27 128.139 30.57 128.391 30.75C128.655 30.93 128.961 31.02 129.309 31.02H129.777C130.053 31.02 130.191 31.338 130.191 31.974C130.191 32.658 130.053 33 129.777 33H129.255C128.799 33 128.385 32.928 128.013 32.784C127.641 32.628 127.317 32.322 127.041 31.866C126.741 32.322 126.417 32.628 126.069 32.784C125.721 32.928 125.349 33 124.953 33H123.693C123.537 33 123.435 32.922 123.387 32.766C123.327 32.598 123.297 32.358 123.297 32.046C123.297 31.698 123.327 31.44 123.387 31.272C123.435 31.104 123.537 31.02 123.693 31.02H124.953ZM128.949 36.78H127.095V35.016H128.949V36.78ZM126.357 36.78H124.503V35.016H126.357V36.78ZM131.305 21.84H133.141V26.808C133.141 27.156 133.135 27.48 133.123 27.78C133.123 28.08 133.105 28.386 133.069 28.698C133.645 27.882 134.191 27.276 134.707 26.88C135.235 26.484 135.775 26.262 136.327 26.214C136.495 26.202 136.651 26.208 136.795 26.232C136.939 26.244 137.077 26.262 137.209 26.286C137.581 26.358 137.917 26.496 138.217 26.7C138.529 26.904 138.787 27.156 138.991 27.456C139.195 27.744 139.351 28.08 139.459 28.464C139.579 28.836 139.639 29.232 139.639 29.652C139.639 29.832 139.621 30.012 139.585 30.192C139.561 30.372 139.513 30.546 139.441 30.714C139.657 30.858 139.879 30.948 140.107 30.984C140.347 31.008 140.587 31.02 140.827 31.02H141.061C141.325 31.02 141.457 31.338 141.457 31.974C141.457 32.658 141.325 33 141.061 33H140.827C140.671 33 140.503 33 140.323 33C140.155 32.988 139.975 32.958 139.783 32.91C139.603 32.85 139.411 32.772 139.207 32.676C139.015 32.568 138.823 32.412 138.631 32.208C138.355 32.448 138.031 32.64 137.659 32.784C137.299 32.928 136.879 33 136.399 33H129.775C129.619 33 129.517 32.922 129.469 32.766C129.409 32.598 129.379 32.358 129.379 32.046C129.379 31.698 129.409 31.44 129.469 31.272C129.517 31.104 129.619 31.02 129.775 31.02H131.305V21.84ZM137.821 29.652C137.821 29.28 137.695 28.944 137.443 28.644C137.191 28.332 136.831 28.176 136.363 28.176C136.147 28.176 135.925 28.224 135.697 28.32C135.481 28.416 135.247 28.578 134.995 28.806C134.743 29.034 134.467 29.328 134.167 29.688C133.867 30.048 133.525 30.492 133.141 31.02H136.489C136.873 31.02 137.191 30.906 137.443 30.678C137.695 30.438 137.821 30.096 137.821 29.652ZM137.695 24.198H135.661V22.362H137.695V24.198ZM142.321 31.02C143.125 31.02 143.527 30.63 143.527 29.85V27.726H145.381V29.85C145.381 30.27 145.507 30.57 145.759 30.75C146.023 30.93 146.329 31.02 146.677 31.02H147.145C147.421 31.02 147.559 31.338 147.559 31.974C147.559 32.658 147.421 33 147.145 33H146.623C146.167 33 145.753 32.928 145.381 32.784C145.009 32.628 144.685 32.322 144.409 31.866C144.109 32.322 143.785 32.628 143.437 32.784C143.089 32.928 142.717 33 142.321 33H141.061C140.905 33 140.803 32.922 140.755 32.766C140.695 32.598 140.665 32.358 140.665 32.046C140.665 31.698 140.695 31.44 140.755 31.272C140.803 31.104 140.905 31.02 141.061 31.02H142.321ZM145.309 25.62H143.275V23.784H145.309V25.62ZM148.799 31.02C149.603 31.02 150.005 30.63 150.005 29.85V27.726H151.841V29.976C151.841 30.972 151.589 31.728 151.085 32.244C150.581 32.748 149.873 33 148.961 33H147.143C146.987 33 146.885 32.922 146.837 32.766C146.777 32.598 146.747 32.358 146.747 32.046C146.747 31.698 146.777 31.44 146.837 31.272C146.885 31.104 146.987 31.02 147.143 31.02H148.799ZM151.895 25.62H150.023V23.856H151.895V25.62ZM149.321 25.62H147.449V23.856H149.321V25.62Z" fill="#15CF74"/>
<path d="M181 38H169C167.895 38 167 37.105 167 36V24C167 22.895 167.895 22 169 22H181C182.105 22 183 22.895 183 24V36C183 37.105 182.105 38 181 38Z" stroke="#15CF74" stroke-width="1.5" stroke-linecap="round" stroke-linejoin="round"/>
<path d="M175 26V34" stroke="#15CF74" stroke-width="1.5" stroke-linecap="round" stroke-linejoin="round"/>
<path d="M179 30H171" stroke="#15CF74" stroke-width="1.5" stroke-linecap="round" stroke-linejoin="round"/>
</svg>
