<svg width="320" height="320" viewBox="0 0 320 320" fill="none" xmlns="http://www.w3.org/2000/svg">
<path fill-rule="evenodd" clip-rule="evenodd" d="M320 160C320 248.366 248.366 320 160 320C71.6344 320 0 248.366 0 160C0 71.6344 71.6344 0 160 0C248.366 0 320 71.6344 320 160ZM271.075 160.457C271.075 219.368 223.318 267.124 164.408 267.124C105.498 267.124 57.7413 219.368 57.7413 160.457C57.7413 101.547 105.498 53.7908 164.408 53.7908C223.318 53.7908 271.075 101.547 271.075 160.457ZM236.213 165.033C231.101 166.582 225.677 167.414 220.06 167.414C189.324 167.414 164.407 142.498 164.407 111.762C164.407 103.584 166.171 95.818 169.339 88.8237C167.331 88.6579 165.3 88.5733 163.248 88.5733C122.908 88.5733 90.205 121.276 90.205 161.617C90.205 173.738 93.1572 185.169 98.3819 195.231C102.99 190.921 109.181 188.284 115.988 188.284C130.227 188.284 141.771 199.827 141.771 214.067C141.771 219.911 139.826 225.302 136.548 229.626C144.819 232.876 153.825 234.66 163.248 234.66C202.444 234.66 234.429 203.788 236.213 165.033Z" fill="#F4F4F4"/>
</svg>
