<svg width="80" height="80" viewBox="0 0 80 80" fill="none" xmlns="http://www.w3.org/2000/svg">
    <path fill-rule="evenodd" clip-rule="evenodd"
          d="M80 40C80 62.0914 62.0914 80 40 80C17.9086 80 0 62.0914 0 40C0 17.9086 17.9086 0 40 0C62.0914 0 80 17.9086 80 40ZM67.7683 40.1143C67.7683 54.8419 55.8292 66.781 41.1016 66.781C26.374 66.781 14.4349 54.8419 14.4349 40.1143C14.4349 25.3867 26.374 13.4476 41.1016 13.4476C55.8292 13.4476 67.7683 25.3867 67.7683 40.1143ZM59.0534 41.2582C57.7751 41.6454 56.419 41.8535 55.0143 41.8535C47.3303 41.8535 41.1012 35.6245 41.1012 27.9405C41.1012 25.896 41.5422 23.9545 42.3343 22.2059C41.8324 22.1645 41.3247 22.1434 40.8122 22.1434C30.727 22.1434 22.5513 30.3191 22.5513 40.4043C22.5513 43.4344 23.2893 46.2921 24.5954 48.8075C25.7474 47.7303 27.295 47.071 28.9966 47.071C32.5565 47.071 35.4423 49.9569 35.4423 53.5168C35.4423 54.9779 34.9562 56.3254 34.1368 57.4065C36.2044 58.219 38.4562 58.6651 40.8122 58.6651C50.6111 58.6651 58.6074 50.9469 59.0534 41.2582Z"
          fill="white"/>
</svg>
