<svg width="47" height="22" viewBox="0 0 47 22" fill="none" xmlns="http://www.w3.org/2000/svg">
<path d="M0 11C0 4.92487 4.92487 0 11 0H36C42.0751 0 47 4.92487 47 11C47 17.0751 42.0751 22 36 22H11C4.92487 22 0 17.0751 0 11Z" fill="#323232"/>
<path d="M12.6509 11.524C13.0189 11.524 13.3069 11.448 13.5149 11.296C13.7229 11.144 13.8269 10.952 13.8269 10.72V9.22H12.7469C12.3629 9.22 12.0789 9.34 11.8949 9.58C11.7109 9.82 11.6189 10.136 11.6189 10.528C11.6189 10.896 11.7029 11.156 11.8709 11.308C12.0389 11.452 12.2989 11.524 12.6509 11.524ZM14.7749 10.936C14.7749 11.24 14.8349 11.484 14.9549 11.668C15.0829 11.852 15.2989 11.944 15.6029 11.944H15.8429C15.9389 11.944 16.0029 11.988 16.0349 12.076C16.0749 12.156 16.0949 12.284 16.0949 12.46C16.0949 12.644 16.0749 12.78 16.0349 12.868C16.0029 12.956 15.9389 13 15.8429 13H15.6029C15.2189 13 14.8949 12.928 14.6309 12.784C14.3749 12.632 14.1869 12.364 14.0669 11.98C13.9709 12.1 13.8549 12.196 13.7189 12.268C13.5909 12.34 13.4549 12.396 13.3109 12.436C13.1669 12.476 13.0189 12.504 12.8669 12.52C12.7149 12.536 12.5749 12.544 12.4469 12.544C11.8709 12.544 11.4309 12.384 11.1269 12.064C10.8229 11.744 10.6709 11.26 10.6709 10.612C10.6709 10.316 10.7109 10.028 10.7909 9.748C10.8789 9.46 11.0069 9.204 11.1749 8.98C11.3429 8.756 11.5509 8.576 11.7989 8.44C12.0549 8.304 12.3509 8.236 12.6869 8.236H13.8269V7.42H14.7749V10.936ZM16.9397 11.944C17.2277 11.944 17.4517 11.868 17.6117 11.716C17.7797 11.564 17.8637 11.348 17.8637 11.068V9.532H18.8477V11.116C18.8477 11.724 18.6837 12.192 18.3557 12.52C18.0357 12.84 17.5877 13 17.0117 13H15.8477C15.7437 13 15.6757 12.96 15.6437 12.88C15.6037 12.792 15.5837 12.664 15.5837 12.496C15.5837 12.304 15.6037 12.164 15.6437 12.076C15.6757 11.988 15.7437 11.944 15.8477 11.944H16.9397ZM18.5117 8.056H17.3357V7.024H18.5117V8.056ZM20.3079 5.56H21.2919V11.944H22.7079C22.9879 11.944 23.1999 11.88 23.3439 11.752C23.4879 11.616 23.5599 11.428 23.5599 11.188V5.56H24.5559V11.296C24.5559 11.576 24.5079 11.824 24.4119 12.04C24.3239 12.248 24.1999 12.424 24.0399 12.568C23.8879 12.712 23.7039 12.82 23.4879 12.892C23.2799 12.964 23.0559 13 22.8159 13H20.3079V5.56ZM27.7993 13C27.5833 13 27.3753 12.972 27.1753 12.916C26.9753 12.852 26.7993 12.748 26.6473 12.604C26.5033 12.46 26.3873 12.272 26.2993 12.04C26.2113 11.8 26.1673 11.504 26.1673 11.152V5.56H27.1513V10.936C27.1513 11.24 27.2153 11.484 27.3433 11.668C27.4793 11.852 27.6913 11.944 27.9793 11.944H28.2193C28.3953 11.944 28.4833 12.116 28.4833 12.46C28.4833 12.82 28.3953 13 28.2193 13H27.7993ZM28.7027 11.944C29.3347 11.944 29.6507 11.652 29.6507 11.068V9.532H30.6347V11.068C30.6347 11.228 30.6627 11.364 30.7187 11.476C30.7747 11.588 30.8467 11.68 30.9347 11.752C31.0227 11.816 31.1227 11.864 31.2347 11.896C31.3547 11.928 31.4747 11.944 31.5947 11.944C32.2827 11.944 32.6267 11.652 32.6267 11.068V9.532H33.6107V11.068C33.6107 11.396 33.6947 11.624 33.8627 11.752C34.0387 11.88 34.2427 11.944 34.4747 11.944C34.7467 11.944 34.9627 11.868 35.1227 11.716C35.2827 11.564 35.3627 11.348 35.3627 11.068V9.532H36.3467V11.116C36.3467 11.724 36.1827 12.192 35.8547 12.52C35.5267 12.84 35.0787 13 34.5107 13C34.2307 13 33.9627 12.948 33.7067 12.844C33.4587 12.74 33.2507 12.536 33.0827 12.232C32.8987 12.536 32.6747 12.74 32.4107 12.844C32.1467 12.948 31.8747 13 31.5947 13C31.2907 13 31.0067 12.948 30.7427 12.844C30.4867 12.74 30.2747 12.536 30.1067 12.232C29.9227 12.536 29.7067 12.74 29.4587 12.844C29.2107 12.948 28.9467 13 28.6667 13H28.2227C28.1187 13 28.0507 12.96 28.0187 12.88C27.9787 12.792 27.9587 12.664 27.9587 12.496C27.9587 12.304 27.9787 12.164 28.0187 12.076C28.0507 11.988 28.1187 11.944 28.2227 11.944H28.7027Z" fill="white"/>
</svg>
